STARTFONT 2.3
FONT -FontForge-Lobster-Book-R-Normal--10-100-72-72-P-58-ISO10646-1
SIZE 10 72 72  4
FONTBOUNDINGBOX 21 16 -5 -5
COMMENT "Generated by fontforge, http://fontforge.sourceforge.net"
COMMENT "Copyright 2010 The Lobster Project Authors (https://github.com/impallari/The-Lobster-Font), with Reserved Font Name "Lobster"."
STARTPROPERTIES 41
FOUNDRY "FontForge"
FAMILY_NAME "Lobster"
WEIGHT_NAME "Book"
SLANT "R"
SETWIDTH_NAME "Normal"
ADD_STYLE_NAME ""
PIXEL_SIZE 10
POINT_SIZE 100
RESOLUTION_X 72
RESOLUTION_Y 72
SPACING "P"
AVERAGE_WIDTH 58
CHARSET_REGISTRY "ISO10646"
CHARSET_ENCODING "1"
FONTNAME_REGISTRY ""
CHARSET_COLLECTIONS "ISO8859-2 ISO8859-5 ISO8859-9 ISO8859-4 ISO10646-1"
BITS_PER_PIXEL 4
FONT_NAME "Lobster-Regular"
FACE_NAME "Lobster Regular"
COPYRIGHT "Copyright 2010 The Lobster Project Authors (https://github.com/impallari/The-Lobster-Font), with Reserved Font Name "Lobster"."
FONT_VERSION "2.100"
FONT_ASCENT 8
FONT_DESCENT 2
UNDERLINE_POSITION -1
UNDERLINE_THICKNESS 1
X_HEIGHT 5
CAP_HEIGHT 6
DEFAULT_CHAR 1
RAW_ASCENT 800
RAW_DESCENT 200
NORM_SPACE 2
RELATIVE_WEIGHT 40
RELATIVE_SETWIDTH 50
SUPERSCRIPT_X 0
SUPERSCRIPT_Y 3
SUPERSCRIPT_SIZE 6
SUBSCRIPT_X 0
SUBSCRIPT_Y 0
SUBSCRIPT_SIZE 6
AVG_LOWERCASE_WIDTH 46
AVG_UPPERCASE_WIDTH 62
ENDPROPERTIES
CHARS 1148
STARTCHAR NULL.dup1
ENCODING 0
SWIDTH 600 0
DWIDTH 6 0
BBX 1 1 0 0
BITMAP
00
ENDCHAR
STARTCHAR nonmarkingreturn
ENCODING 13
SWIDTH 600 0
DWIDTH 6 0
BBX 1 1 0 0
BITMAP
00
ENDCHAR
STARTCHAR space
ENCODING 32
SWIDTH 217 0
DWIDTH 2 0
BBX 1 1 0 0
BITMAP
00
ENDCHAR
STARTCHAR exclam
ENCODING 33
SWIDTH 257 0
DWIDTH 3 0
BBX 4 8 0 0
BITMAP
0282
06E0
08A0
0B60
0D20
0700
3500
7B00
ENDCHAR
STARTCHAR quotedbl
ENCODING 34
SWIDTH 353 0
DWIDTH 4 0
BBX 4 3 0 4
BITMAP
096D
0C67
1221
ENDCHAR
STARTCHAR numbersign
ENCODING 35
SWIDTH 659 0
DWIDTH 7 0
BBX 6 7 0 0
BITMAP
006353
00A1A1
0AEBEA
01A1A0
4CDCD5
074740
071710
ENDCHAR
STARTCHAR dollar
ENCODING 36
SWIDTH 548 0
DWIDTH 5 0
BBX 6 11 0 -2
BITMAP
000440
000620
029AA2
09E830
03EC00
007F80
8B8AC0
C48990
4CDA10
053000
020000
ENDCHAR
STARTCHAR percent
ENCODING 37
SWIDTH 796 0
DWIDTH 8 0
BBX 8 7 0 0
BITMAP
08960740
5A4A1900
77859200
28647698
000A2C1C
00645A49
01A02B91
ENDCHAR
STARTCHAR ampersand
ENCODING 38
SWIDTH 682 0
DWIDTH 7 0
BBX 7 7 0 0
BITMAP
01AAA000
07B1D100
05D20010
1BA49B70
9F179600
CE22A000
5DEB2000
ENDCHAR
STARTCHAR quotesingle
ENCODING 39
SWIDTH 196 0
DWIDTH 2 0
BBX 3 3 0 4
BITMAP
0960
0C00
1400
ENDCHAR
STARTCHAR parenleft
ENCODING 40
SWIDTH 437 0
DWIDTH 4 0
BBX 5 11 1 -3
BITMAP
000320
006700
04B000
0C4000
3E0000
6B0000
7A0000
6B0000
2C0000
093000
011000
ENDCHAR
STARTCHAR parenright
ENCODING 41
SWIDTH 413 0
DWIDTH 4 0
BBX 5 11 -1 -3
BITMAP
004000
006600
002C00
001F10
001F10
002F00
006B00
00B500
04A000
390000
200000
ENDCHAR
STARTCHAR asterisk
ENCODING 42
SWIDTH 515 0
DWIDTH 5 0
BBX 5 4 0 3
BITMAP
0BCC30
08FA00
1ACB20
00A000
ENDCHAR
STARTCHAR plus
ENCODING 43
SWIDTH 442 0
DWIDTH 4 0
BBX 4 4 0 1
BITMAP
01B0
9DDB
0840
0510
ENDCHAR
STARTCHAR comma
ENCODING 44
SWIDTH 216 0
DWIDTH 2 0
BBX 2 3 0 -1
BITMAP
98
67
40
ENDCHAR
STARTCHAR hyphen
ENCODING 45
SWIDTH 290 0
DWIDTH 3 0
BBX 3 1 0 2
BITMAP
8C30
ENDCHAR
STARTCHAR period
ENCODING 46
SWIDTH 263 0
DWIDTH 3 0
BBX 2 2 0 0
BITMAP
35
8B
ENDCHAR
STARTCHAR slash
ENCODING 47
SWIDTH 311 0
DWIDTH 3 0
BBX 3 9 0 -2
BITMAP
00B0
0290
0550
0920
0B00
1A00
5600
8300
B000
ENDCHAR
STARTCHAR zero
ENCODING 48
SWIDTH 546 0
DWIDTH 5 0
BBX 6 7 0 0
BITMAP
02BAB1
0D90D6
6F20D8
AD00F6
CB04F2
AC0B90
3DC910
ENDCHAR
STARTCHAR one
ENCODING 49
SWIDTH 317 0
DWIDTH 3 0
BBX 4 8 0 0
BITMAP
0021
3BF1
0AC0
0D90
1F60
4F30
7E00
AB00
ENDCHAR
STARTCHAR two
ENCODING 50
SWIDTH 492 0
DWIDTH 5 0
BBX 6 7 -1 0
BITMAP
0099D4
04C0DA
0161F6
000B70
01A400
0BA654
1BADE3
ENDCHAR
STARTCHAR three
ENCODING 51
SWIDTH 514 0
DWIDTH 5 0
BBX 5 7 0 0
BITMAP
06AB70
0D46E0
023D70
006E40
690CC0
D40DA0
7BB910
ENDCHAR
STARTCHAR four
ENCODING 52
SWIDTH 476 0
DWIDTH 5 0
BBX 5 7 0 0
BITMAP
00C500
01E520
087840
4A4D50
AADF70
009900
00E600
ENDCHAR
STARTCHAR five
ENCODING 53
SWIDTH 517 0
DWIDTH 5 0
BBX 5 8 0 0
BITMAP
011020
08FFD0
0C1210
0ECC30
121DA0
6B0AC0
C50D70
6CB900
ENDCHAR
STARTCHAR six
ENCODING 54
SWIDTH 500 0
DWIDTH 5 0
BBX 5 7 0 0
BITMAP
02A9C0
1D6060
7E8C40
BD08B0
CA08B0
BB0C60
3DC700
ENDCHAR
STARTCHAR seven
ENCODING 55
SWIDTH 464 0
DWIDTH 5 0
BBX 6 7 0 0
BITMAP
3EFFE1
455B60
003A00
02D200
0B9000
3F5000
2E5000
ENDCHAR
STARTCHAR eight
ENCODING 56
SWIDTH 499 0
DWIDTH 5 0
BBX 5 7 0 0
BITMAP
05B980
0E72E0
0AEA40
19DE30
C81DB0
E60BA0
5CBA10
ENDCHAR
STARTCHAR nine
ENCODING 57
SWIDTH 489 0
DWIDTH 5 0
BBX 5 7 0 0
BITMAP
07BD40
7C08C0
A90BD0
4C9CC0
000E80
B26E20
8BC300
ENDCHAR
STARTCHAR colon
ENCODING 58
SWIDTH 267 0
DWIDTH 3 0
BBX 3 4 0 1
BITMAP
0D50
0620
2600
6C00
ENDCHAR
STARTCHAR semicolon
ENCODING 59
SWIDTH 276 0
DWIDTH 3 0
BBX 3 6 0 -2
BITMAP
0620
0D50
0000
6C00
2A00
3100
ENDCHAR
STARTCHAR less
ENCODING 60
SWIDTH 358 0
DWIDTH 4 0
BBX 4 5 0 0
BITMAP
0013
17B3
BA00
07B0
0010
ENDCHAR
STARTCHAR equal
ENCODING 61
SWIDTH 515 0
DWIDTH 5 0
BBX 5 4 0 0
BITMAP
1EEE80
022210
8EEE20
122200
ENDCHAR
STARTCHAR greater
ENCODING 62
SWIDTH 362 0
DWIDTH 4 0
BBX 4 4 0 1
BITMAP
2200
3B81
05D4
A710
ENDCHAR
STARTCHAR question
ENCODING 63
SWIDTH 441 0
DWIDTH 4 0
BBX 5 7 0 0
BITMAP
19AC10
7A2F30
139800
076000
080000
260000
5D0000
ENDCHAR
STARTCHAR at
ENCODING 64
SWIDTH 688 0
DWIDTH 7 0
BBX 8 7 -1 -1
BITMAP
0018BB70
01CA9995
098D5977
0D5A86B2
1D2A6A40
0D303800
03BCA300
ENDCHAR
STARTCHAR A
ENCODING 65
SWIDTH 668 0
DWIDTH 7 0
BBX 7 8 0 -1
BITMAP
00002AC0
00092E90
4ACB7F60
C4E16F20
07B09E00
0D60CA00
1F20F700
0D100000
ENDCHAR
STARTCHAR B
ENCODING 66
SWIDTH 641 0
DWIDTH 6 0
BBX 6 7 0 0
BITMAP
078996
A5B95B
81EAE6
03F26E
07E06E
0AB1AB
0D9DD2
ENDCHAR
STARTCHAR C
ENCODING 67
SWIDTH 497 0
DWIDTH 5 0
BBX 6 7 0 0
BITMAP
02B9A2
0CB094
5F4000
AE0000
CD0000
BE2151
3DEB30
ENDCHAR
STARTCHAR D
ENCODING 68
SWIDTH 663 0
DWIDTH 7 0
BBX 7 7 0 0
BITMAP
0677A700
96BA1F30
D1F60F60
14F22F50
07E05F20
0BA1CA00
0ECDB100
ENDCHAR
STARTCHAR E
ENCODING 69
SWIDTH 459 0
DWIDTH 5 0
BBX 5 7 0 0
BITMAP
01BA90
09A1B0
07D100
2BA100
AE1000
DE1250
6EE800
ENDCHAR
STARTCHAR F
ENCODING 70
SWIDTH 459 0
DWIDTH 5 0
BBX 6 7 0 0
BITMAP
29DFFD
C3D821
72FC70
05F000
08C000
0C9000
0F6000
ENDCHAR
STARTCHAR G
ENCODING 71
SWIDTH 578 0
DWIDTH 6 0
BBX 6 9 0 -2
BITMAP
03B995
2E7079
9E0010
CB00C5
9D06F2
2CCBD0
098A90
4A2E30
088500
ENDCHAR
STARTCHAR H
ENCODING 72
SWIDTH 665 0
DWIDTH 7 0
BBX 7 7 0 0
BITMAP
128D0AC0
A2D90E90
72FCCF60
04F26F20
07E09E00
0BB0CA00
0E80F700
ENDCHAR
STARTCHAR I
ENCODING 73
SWIDTH 375 0
DWIDTH 4 0
BBX 4 7 0 0
BITMAP
05AD
84D9
D1F6
25F3
08E0
0BB0
0E70
ENDCHAR
STARTCHAR J
ENCODING 74
SWIDTH 536 0
DWIDTH 5 0
BBX 6 9 0 -2
BITMAP
0017CA
00B3F6
01C4F3
0027E0
000BB0
000E80
5B6F40
C38D00
488200
ENDCHAR
STARTCHAR K
ENCODING 75
SWIDTH 601 0
DWIDTH 6 0
BBX 7 7 0 0
BITMAP
17BC2A30
C2DA9100
61FCA200
04F1E600
08D1F400
0BA4F100
0E74F100
ENDCHAR
STARTCHAR L
ENCODING 76
SWIDTH 379 0
DWIDTH 4 0
BBX 7 9 0 -2
BITMAP
06BD0000
95C90000
D1F60000
24F20000
08E00000
0BA00000
0EA10000
016DA740
0001AE40
ENDCHAR
STARTCHAR M
ENCODING 77
SWIDTH 787 0
DWIDTH 8 0
BBX 8 7 0 0
BITMAP
016E909E
1B4F81FC
4A9F87FA
03CE7BE8
067EC7F5
0B1FE4F3
2A1F86F1
ENDCHAR
STARTCHAR N
ENCODING 78
SWIDTH 668 0
DWIDTH 7 0
BBX 8 7 0 0
BITMAP
17BE00E1
A4CF32D0
D2EE7590
35BBB860
0877EC20
0B43FD00
0E00EA00
ENDCHAR
STARTCHAR O
ENCODING 79
SWIDTH 665 0
DWIDTH 7 0
BBX 7 7 0 0
BITMAP
04889A10
699B0D60
B6F30C80
2AD00E60
0DA05F20
0D91D800
06EC8000
ENDCHAR
STARTCHAR P
ENCODING 80
SWIDTH 573 0
DWIDTH 6 0
BBX 6 7 0 0
BITMAP
0678A4
85CA4D
D1F66C
24F5C3
07E410
0BB000
0E7000
ENDCHAR
STARTCHAR Q
ENCODING 81
SWIDTH 665 0
DWIDTH 7 0
BBX 7 8 0 -1
BITMAP
04889A10
699B0D60
B6F30C80
1AC00E60
0DA05F10
0DB8D800
06EDD000
0000CB00
ENDCHAR
STARTCHAR R
ENCODING 82
SWIDTH 601 0
DWIDTH 6 0
BBX 6 7 0 0
BITMAP
178996
C3C86A
61FAE2
04F1E6
08D1F4
0BA4F1
0E74F1
ENDCHAR
STARTCHAR S
ENCODING 83
SWIDTH 570 0
DWIDTH 6 0
BBX 6 7 0 0
BITMAP
01A9A3
07F196
03F810
006F70
4D49F1
9807E1
2BBC40
ENDCHAR
STARTCHAR T
ENCODING 84
SWIDTH 481 0
DWIDTH 5 0
BBX 8 7 0 0
BITMAP
19CFEFE1
B53F4000
D06F1000
109C0000
00D90000
01F50000
05F20000
ENDCHAR
STARTCHAR U
ENCODING 85
SWIDTH 716 0
DWIDTH 7 0
BBX 8 7 0 0
BITMAP
07AF20E8
B48D02F4
E0C806F1
22F409C0
05F00D80
06E05F20
01CEC400
ENDCHAR
STARTCHAR V
ENCODING 86
SWIDTH 615 0
DWIDTH 6 0
BBX 7 7 0 0
BITMAP
06BE0190
867F0640
D07F0900
207F2700
006F7100
006F8000
006F4000
ENDCHAR
STARTCHAR W
ENCODING 87
SWIDTH 962 0
DWIDTH 10 0
BBX 11 7 0 0
BITMAP
06BE01F70820
867F06F70900
D07F09F74500
207F27F78000
006F71F87000
006F80ED2000
006F40EB0000
ENDCHAR
STARTCHAR X
ENCODING 88
SWIDTH 620 0
DWIDTH 6 0
BBX 7 7 0 0
BITMAP
06BF1910
865F9500
D02FB000
200DB000
002EE000
0097F300
0543F600
ENDCHAR
STARTCHAR Y
ENCODING 89
SWIDTH 620 0
DWIDTH 6 0
BBX 7 7 0 0
BITMAP
06AF10A0
864F5540
D01F9900
200BE500
000AE000
000DB000
002F7000
ENDCHAR
STARTCHAR Z
ENCODING 90
SWIDTH 542 0
DWIDTH 5 0
BBX 6 7 0 0
BITMAP
1C8CF4
170DA0
007F20
01E900
08E200
2F8080
9FAAA0
ENDCHAR
STARTCHAR bracketleft
ENCODING 91
SWIDTH 400 0
DWIDTH 4 0
BBX 5 9 0 -2
BITMAP
01E810
05B000
087000
0C4000
1E0000
4B0000
780000
B40000
E91000
ENDCHAR
STARTCHAR backslash
ENCODING 92
SWIDTH 362 0
DWIDTH 4 0
BBX 4 9 0 -2
BITMAP
7400
3700
0A00
0B00
0830
0470
01A0
00B0
0092
ENDCHAR
STARTCHAR bracketright
ENCODING 93
SWIDTH 400 0
DWIDTH 4 0
BBX 5 9 -1 -2
BITMAP
005C80
000B40
000E10
003C00
007900
00A500
00E200
02D000
5BA000
ENDCHAR
STARTCHAR asciicircum
ENCODING 94
SWIDTH 421 0
DWIDTH 4 0
BBX 4 2 0 6
BITMAP
01C0
2864
ENDCHAR
STARTCHAR underscore
ENCODING 95
SWIDTH 444 0
DWIDTH 4 0
BBX 4 1 0 0
BITMAP
6BBB
ENDCHAR
STARTCHAR grave
ENCODING 96
SWIDTH 201 0
DWIDTH 2 0
BBX 2 2 0 6
BITMAP
85
38
ENDCHAR
STARTCHAR a
ENCODING 97
SWIDTH 526 0
DWIDTH 5 0
BBX 7 5 -1 0
BITMAP
01BADA00
0AC0E700
0F72F400
1F67F250
0BD7EB10
ENDCHAR
STARTCHAR b
ENCODING 98
SWIDTH 444 0
DWIDTH 4 0
BBX 4 7 0 0
BITMAP
0C60
3F30
6FBB
AC0F
D91E
F679
BEA1
ENDCHAR
STARTCHAR c
ENCODING 99
SWIDTH 384 0
DWIDTH 4 0
BBX 5 5 -1 0
BITMAP
01AA70
09C150
0F7000
1F6060
0BEA20
ENDCHAR
STARTCHAR d
ENCODING 100
SWIDTH 525 0
DWIDTH 5 0
BBX 7 7 -1 0
BITMAP
00004C20
00008E00
01BADA00
0AC0E700
0F73F400
1F67F250
0BD7EB10
ENDCHAR
STARTCHAR e
ENCODING 101
SWIDTH 384 0
DWIDTH 4 0
BBX 5 5 -1 0
BITMAP
01AA80
09B670
0FB600
1F6060
0BEA20
ENDCHAR
STARTCHAR f
ENCODING 102
SWIDTH 267 0
DWIDTH 3 0
BBX 6 9 -2 -2
BITMAP
0008E8
002F52
006F50
009C00
00D800
01F500
06F100
7AD000
CE5000
ENDCHAR
STARTCHAR g
ENCODING 103
SWIDTH 507 0
DWIDTH 5 0
BBX 7 7 -1 -2
BITMAP
01BADA00
0AC0E700
0F73F400
1F68F240
0BEDD400
017E8000
03CC2000
ENDCHAR
STARTCHAR h
ENCODING 104
SWIDTH 505 0
DWIDTH 5 0
BBX 7 7 -1 0
BITMAP
00B60000
03F40000
06FCE200
09D3F400
0D95F100
1F68D230
4F25E900
ENDCHAR
STARTCHAR i
ENCODING 105
SWIDTH 267 0
DWIDTH 3 0
BBX 4 7 -1 0
BITMAP
01D4
0062
06F1
0AC0
0D90
1F66
0CD4
ENDCHAR
STARTCHAR j
ENCODING 106
SWIDTH 240 0
DWIDTH 2 0
BBX 5 9 -2 -2
BITMAP
001D30
000710
006F00
00AC00
00D800
02F560
06F600
8BD000
BE5000
ENDCHAR
STARTCHAR k
ENCODING 107
SWIDTH 518 0
DWIDTH 5 0
BBX 7 7 -1 0
BITMAP
00C60000
03F30000
06F29300
09ED8000
0DB7F200
1F67F140
4F24EB10
ENDCHAR
STARTCHAR l
ENCODING 108
SWIDTH 267 0
DWIDTH 3 0
BBX 4 8 -1 0
BITMAP
0001
01E6
04F3
07F0
0AC0
0D90
1F67
0CD4
ENDCHAR
STARTCHAR m
ENCODING 109
SWIDTH 752 0
DWIDTH 8 0
BBX 9 5 -1 0
BITMAP
06FBE7E800
0AD3F5BB00
0D96F1D800
1F69D1F550
4F2CA0CD30
ENDCHAR
STARTCHAR n
ENCODING 110
SWIDTH 505 0
DWIDTH 5 0
BBX 7 5 -1 0
BITMAP
06FCE200
0AD3F400
0D95F100
1F68D230
4F25E900
ENDCHAR
STARTCHAR o
ENCODING 111
SWIDTH 439 0
DWIDTH 4 0
BBX 7 5 -1 0
BITMAP
01AB8000
09D2D630
0F71B000
2F677000
0BEA0000
ENDCHAR
STARTCHAR p
ENCODING 112
SWIDTH 468 0
DWIDTH 5 0
BBX 6 9 -1 -3
BITMAP
028100
07FAE3
0AC0F6
0D91F4
1F67E1
4FDD50
8E0000
BB0000
410000
ENDCHAR
STARTCHAR q
ENCODING 113
SWIDTH 486 0
DWIDTH 5 0
BBX 6 8 -1 -3
BITMAP
01BADA
0AC0E7
0F73F4
1F68F1
0BEDC0
000D90
001F60
001400
ENDCHAR
STARTCHAR r
ENCODING 114
SWIDTH 376 0
DWIDTH 4 0
BBX 5 5 -1 0
BITMAP
06FAB0
0AC140
0D9000
1F6000
4F2000
ENDCHAR
STARTCHAR s
ENCODING 115
SWIDTH 382 0
DWIDTH 4 0
BBX 5 6 -1 0
BITMAP
003500
00CF00
03AF10
086F20
486F70
1BD700
ENDCHAR
STARTCHAR t
ENCODING 116
SWIDTH 267 0
DWIDTH 3 0
BBX 4 7 -1 0
BITMAP
0063
03F3
08F4
0AC0
0D90
1F66
0CD4
ENDCHAR
STARTCHAR u
ENCODING 117
SWIDTH 505 0
DWIDTH 5 0
BBX 7 5 -1 0
BITMAP
06F1E700
0AC3F400
0D96F100
1F6BD230
0CD7E900
ENDCHAR
STARTCHAR v
ENCODING 118
SWIDTH 414 0
DWIDTH 4 0
BBX 5 5 -1 0
BITMAP
06F3C0
0AC090
0D9190
1F6840
0CE700
ENDCHAR
STARTCHAR w
ENCODING 119
SWIDTH 661 0
DWIDTH 7 0
BBX 8 5 -1 0
BITMAP
06F1E7A5
0AC3F436
0D96F182
1F6BD2A0
0CD8EB20
ENDCHAR
STARTCHAR x
ENCODING 120
SWIDTH 522 0
DWIDTH 5 0
BBX 6 6 0 0
BITMAP
0002B0
09E3A0
51DA60
60CB00
15CC15
463EA1
ENDCHAR
STARTCHAR y
ENCODING 121
SWIDTH 486 0
DWIDTH 5 0
BBX 7 7 -1 -2
BITMAP
06F1E700
0AC3F400
0D96F100
1F6BC410
0CDEB300
038F5000
06DB0000
ENDCHAR
STARTCHAR z
ENCODING 122
SWIDTH 428 0
DWIDTH 4 0
BBX 5 5 0 0
BITMAP
3BCE10
24E600
09C000
2F4600
BFB800
ENDCHAR
STARTCHAR braceleft
ENCODING 123
SWIDTH 352 0
DWIDTH 4 0
BBX 4 9 0 -2
BITMAP
00A8
03D0
06A0
0780
4D10
0D10
3D00
7A00
4D20
ENDCHAR
STARTCHAR bar
ENCODING 124
SWIDTH 532 0
DWIDTH 5 0
BBX 2 9 2 -2
BITMAP
C2
C2
C2
C2
C2
C2
C2
C2
C2
ENDCHAR
STARTCHAR braceright
ENCODING 125
SWIDTH 352 0
DWIDTH 4 0
BBX 4 9 -1 -2
BITMAP
00A9
005C
0088
00B4
00A8
03D0
05B0
0890
5C20
ENDCHAR
STARTCHAR asciitilde
ENCODING 126
SWIDTH 431 0
DWIDTH 4 0
BBX 5 1 0 6
BITMAP
16ED30
ENDCHAR
STARTCHAR uni00A0
ENCODING 160
SWIDTH 217 0
DWIDTH 2 0
BBX 1 1 0 0
BITMAP
00
ENDCHAR
STARTCHAR exclamdown
ENCODING 161
SWIDTH 219 0
DWIDTH 2 0
BBX 4 8 -1 -3
BITMAP
02D3
0071
0240
0780
0B50
1F30
4F10
5700
ENDCHAR
STARTCHAR cent
ENCODING 162
SWIDTH 384 0
DWIDTH 4 0
BBX 5 8 0 -1
BITMAP
005300
07DA10
6A8910
D66000
DB3100
4EC300
080000
010000
ENDCHAR
STARTCHAR sterling
ENCODING 163
SWIDTH 455 0
DWIDTH 5 0
BBX 6 7 0 0
BITMAP
006BC1
02F390
06E000
4CD810
0D7000
2E3250
AFFF90
ENDCHAR
STARTCHAR currency
ENCODING 164
SWIDTH 500 0
DWIDTH 5 0
BBX 5 4 0 2
BITMAP
010100
1B9B10
090810
199A20
ENDCHAR
STARTCHAR yen
ENCODING 165
SWIDTH 558 0
DWIDTH 6 0
BBX 6 7 0 0
BITMAP
0CC028
08F181
04F680
01FE20
06ED70
18FB60
05F400
ENDCHAR
STARTCHAR brokenbar
ENCODING 166
SWIDTH 532 0
DWIDTH 5 0
BBX 2 9 2 -2
BITMAP
C2
C2
C2
C2
D2
C2
C2
C2
C2
ENDCHAR
STARTCHAR section
ENCODING 167
SWIDTH 542 0
DWIDTH 5 0
BBX 6 8 0 -1
BITMAP
007892
02F251
0ACB10
1F6BC0
08F6F0
65AE80
D17C00
599200
ENDCHAR
STARTCHAR dieresis
ENCODING 168
SWIDTH 392 0
DWIDTH 4 0
BBX 4 1 0 6
BITMAP
3754
ENDCHAR
STARTCHAR copyright
ENCODING 169
SWIDTH 587 0
DWIDTH 6 0
BBX 6 6 0 0
BITMAP
037720
287780
662234
663124
278880
036620
ENDCHAR
STARTCHAR ordfeminine
ENCODING 170
SWIDTH 345 0
DWIDTH 3 0
BBX 4 3 0 4
BITMAP
29C1
85C0
2560
ENDCHAR
STARTCHAR guillemotleft
ENCODING 171
SWIDTH 589 0
DWIDTH 6 0
BBX 6 4 0 1
BITMAP
000101
068682
957700
057480
ENDCHAR
STARTCHAR logicalnot
ENCODING 172
SWIDTH 444 0
DWIDTH 4 0
BBX 4 3 0 0
BITMAP
8CCC
007A
0033
ENDCHAR
STARTCHAR uni00AD
ENCODING 173
SWIDTH 290 0
DWIDTH 3 0
BBX 3 1 0 2
BITMAP
8C30
ENDCHAR
STARTCHAR registered
ENCODING 174
SWIDTH 553 0
DWIDTH 6 0
BBX 6 6 0 0
BITMAP
047710
487680
743752
748752
372570
036610
ENDCHAR
STARTCHAR macron
ENCODING 175
SWIDTH 446 0
DWIDTH 4 0
BBX 4 1 0 6
BITMAP
2BBB
ENDCHAR
STARTCHAR degree
ENCODING 176
SWIDTH 314 0
DWIDTH 3 0
BBX 3 4 0 3
BITMAP
0650
6490
9280
4710
ENDCHAR
STARTCHAR plusminus
ENCODING 177
SWIDTH 479 0
DWIDTH 5 0
BBX 5 6 0 1
BITMAP
001000
00A200
4CEC40
02A000
024000
8CC900
ENDCHAR
STARTCHAR uni00B2
ENCODING 178
SWIDTH 328 0
DWIDTH 3 0
BBX 4 4 0 3
BITMAP
18B1
03B0
0710
5BB0
ENDCHAR
STARTCHAR uni00B3
ENCODING 179
SWIDTH 336 0
DWIDTH 3 0
BBX 4 4 0 3
BITMAP
09A2
03A0
55D1
2760
ENDCHAR
STARTCHAR acute
ENCODING 180
SWIDTH 316 0
DWIDTH 3 0
BBX 2 2 1 6
BITMAP
2C
82
ENDCHAR
STARTCHAR uni00B5
ENCODING 181
SWIDTH 505 0
DWIDTH 5 0
BBX 7 7 -1 -2
BITMAP
06F1E700
0AC2F400
0D96F100
1F6AD230
4FD7E900
7E000000
54000000
ENDCHAR
STARTCHAR paragraph
ENCODING 182
SWIDTH 542 0
DWIDTH 5 0
BBX 5 9 0 -2
BITMAP
05DE80
1EFCC0
4FF9E0
1EF9B0
03EC80
00EA40
03BD10
069D00
011200
ENDCHAR
STARTCHAR periodcentered
ENCODING 183
SWIDTH 434 0
DWIDTH 4 0
BBX 3 2 1 2
BITMAP
7B00
9D10
ENDCHAR
STARTCHAR cedilla
ENCODING 184
SWIDTH 227 0
DWIDTH 2 0
BBX 3 3 0 -2
BITMAP
2700
2B40
6810
ENDCHAR
STARTCHAR uni00B9
ENCODING 185
SWIDTH 229 0
DWIDTH 2 0
BBX 3 5 0 3
BITMAP
0310
3E00
1B00
5800
3200
ENDCHAR
STARTCHAR ordmasculine
ENCODING 186
SWIDTH 329 0
DWIDTH 3 0
BBX 3 3 0 4
BITMAP
3990
8550
3600
ENDCHAR
STARTCHAR guillemotright
ENCODING 187
SWIDTH 586 0
DWIDTH 6 0
BBX 6 4 0 1
BITMAP
100100
194860
01B395
665720
ENDCHAR
STARTCHAR onequarter
ENCODING 188
SWIDTH 749 0
DWIDTH 7 0
BBX 8 8 0 0
BITMAP
03100000
3E001900
1B009200
58047000
320A0B74
00641AC1
01A048D1
09200490
ENDCHAR
STARTCHAR onehalf
ENCODING 189
SWIDTH 745 0
DWIDTH 7 0
BBX 8 8 0 0
BITMAP
03100000
3E001900
1B009200
58047000
320A08A3
006404B2
01A00730
09203CA1
ENDCHAR
STARTCHAR threequarters
ENCODING 190
SWIDTH 836 0
DWIDTH 8 0
BBX 9 7 0 0
BITMAP
09A2038000
03A00A1000
55D1650000
2761A0B920
0008329D00
0038058D10
00A1005800
ENDCHAR
STARTCHAR questiondown
ENCODING 191
SWIDTH 439 0
DWIDTH 4 0
BBX 5 7 -1 -2
BITMAP
000A80
000540
000710
004900
06B310
1F5790
0AB930
ENDCHAR
STARTCHAR Agrave
ENCODING 192
SWIDTH 668 0
DWIDTH 7 0
BBX 7 11 0 -1
BITMAP
00000C00
00000B20
00000000
00002AC0
00092E90
4ACB7F60
C4E16F20
07B09E00
0D60CA00
1F20F700
0D100000
ENDCHAR
STARTCHAR Aacute
ENCODING 193
SWIDTH 668 0
DWIDTH 7 0
BBX 8 11 0 -1
BITMAP
00000096
000001B0
00000000
00002AC0
00092E90
4ACB7F60
C4E16F20
07B09E00
0D60CA00
1F20F700
0D100000
ENDCHAR
STARTCHAR Acircumflex
ENCODING 194
SWIDTH 668 0
DWIDTH 7 0
BBX 8 11 0 -1
BITMAP
000000A3
00001856
00000000
00002AC0
00092E90
4ACB7F60
C4E16F20
07B09E00
0D60CA00
1F20F700
0D100000
ENDCHAR
STARTCHAR Atilde
ENCODING 195
SWIDTH 668 0
DWIDTH 7 0
BBX 8 10 0 -1
BITMAP
00002AEA
00000000
00002AC0
00092E90
4ACB7F60
C4E16F20
07B09E00
0D60CA00
1F20F700
0D100000
ENDCHAR
STARTCHAR Adieresis
ENCODING 196
SWIDTH 668 0
DWIDTH 7 0
BBX 8 10 0 -1
BITMAP
00005986
00000111
00002AC0
00092E90
4ACB7F60
C4E16F20
07B09E00
0D60CA00
1F20F700
0D100000
ENDCHAR
STARTCHAR Aring
ENCODING 197
SWIDTH 668 0
DWIDTH 7 0
BBX 7 11 0 -1
BITMAP
00000340
00000450
00000000
00002AC0
00092E90
4ACB7F60
C4E16F20
07B09E00
0D60CA00
1F20F700
0D100000
ENDCHAR
STARTCHAR AE
ENCODING 198
SWIDTH 764 0
DWIDTH 8 0
BBX 9 8 0 -1
BITMAP
00004BDCB0
00093E9000
3ACB4F5000
D5E18FC800
48B08E0000
0D60BA1100
2F20EFFA00
1D10000000
ENDCHAR
STARTCHAR Ccedilla
ENCODING 199
SWIDTH 497 0
DWIDTH 5 0
BBX 6 9 0 -2
BITMAP
02B9A2
0CA094
5F3000
AE0000
CD0000
BF2171
4DFB30
00A500
036300
ENDCHAR
STARTCHAR Egrave
ENCODING 200
SWIDTH 459 0
DWIDTH 5 0
BBX 5 10 0 0
BITMAP
005A00
001A00
000000
01BA90
09A1B0
07D100
2BA100
AE1000
DE1250
6EE800
ENDCHAR
STARTCHAR Eacute
ENCODING 201
SWIDTH 459 0
DWIDTH 5 0
BBX 6 10 0 0
BITMAP
0001D1
000750
000000
01BA90
09A1B0
07D100
2BA100
AE1000
DE1250
6EE800
ENDCHAR
STARTCHAR Ecircumflex
ENCODING 202
SWIDTH 459 0
DWIDTH 5 0
BBX 5 10 0 0
BITMAP
000670
006780
000000
01BA90
09A1B0
07D100
2BA100
AE1000
DE1250
6EE800
ENDCHAR
STARTCHAR Edieresis
ENCODING 203
SWIDTH 459 0
DWIDTH 5 0
BBX 6 9 0 0
BITMAP
0077A4
001110
01BA90
09A1B0
07D100
2BA100
AE1000
DE1250
6EE800
ENDCHAR
STARTCHAR Igrave
ENCODING 204
SWIDTH 375 0
DWIDTH 4 0
BBX 4 10 0 0
BITMAP
0093
0066
0000
05AD
84D9
D1F6
25F3
08E0
0BB0
0E70
ENDCHAR
STARTCHAR Iacute
ENCODING 205
SWIDTH 375 0
DWIDTH 4 0
BBX 5 10 0 0
BITMAP
000690
000B10
000000
05AD00
84D900
D1F600
25F300
08E000
0BB000
0E7000
ENDCHAR
STARTCHAR Icircumflex
ENCODING 206
SWIDTH 375 0
DWIDTH 4 0
BBX 5 10 0 0
BITMAP
000A30
018560
000000
05AD00
84D900
D1F600
25F300
08E000
0BB000
0E7000
ENDCHAR
STARTCHAR Idieresis
ENCODING 207
SWIDTH 375 0
DWIDTH 4 0
BBX 5 9 0 0
BITMAP
01D3B0
001010
05AD00
84D900
D1F600
25F300
08E000
0BB000
0E7000
ENDCHAR
STARTCHAR Eth
ENCODING 208
SWIDTH 663 0
DWIDTH 7 0
BBX 7 7 0 0
BITMAP
06779700
86BA1F40
D1F60F60
38FB2F50
07E05F20
0BB1CA00
0ECDB100
ENDCHAR
STARTCHAR Ntilde
ENCODING 209
SWIDTH 686 0
DWIDTH 7 0
BBX 8 10 0 0
BITMAP
00001000
0006EE80
00001300
17BE00E1
A4CF32D0
D2EE7590
35BBB860
0877EC20
0B43FD00
0E00EA00
ENDCHAR
STARTCHAR Ograve
ENCODING 210
SWIDTH 665 0
DWIDTH 7 0
BBX 7 10 0 0
BITMAP
000B2000
00084000
00000000
04889A10
699B0D60
B6F30C80
2AD00E60
0DA05F20
0D91D800
06EC8000
ENDCHAR
STARTCHAR Oacute
ENCODING 211
SWIDTH 665 0
DWIDTH 7 0
BBX 7 10 0 0
BITMAP
00005A00
0000B100
00000000
04889A10
699B0D60
B6F30C80
2AD00E60
0DA05F20
0D91D800
06EC8000
ENDCHAR
STARTCHAR Ocircumflex
ENCODING 212
SWIDTH 665 0
DWIDTH 7 0
BBX 7 10 0 0
BITMAP
0000A300
00185600
00000000
04889A10
699B0D60
B6F30C80
2AD00E60
0DA05F20
0D91D800
06EC8000
ENDCHAR
STARTCHAR Otilde
ENCODING 213
SWIDTH 665 0
DWIDTH 7 0
BBX 7 9 0 0
BITMAP
0005CE50
00000000
04889A10
699B0D60
B6F30C80
2AD00E60
0DA05F20
0D91D800
06EC8000
ENDCHAR
STARTCHAR Odieresis
ENCODING 214
SWIDTH 665 0
DWIDTH 7 0
BBX 7 9 0 0
BITMAP
001D3B00
00010100
04889A10
699B0D60
B6F30C80
2AD00E60
0DA05F20
0D91D800
06EC8000
ENDCHAR
STARTCHAR multiply
ENCODING 215
SWIDTH 414 0
DWIDTH 4 0
BBX 4 3 0 2
BITMAP
5776
0CD0
4AA5
ENDCHAR
STARTCHAR Oslash
ENCODING 216
SWIDTH 658 0
DWIDTH 7 0
BBX 7 8 0 -1
BITMAP
0476D800
68798F20
C5F55F40
3AB73F30
0D987E00
0E89D600
07DE8000
00330000
ENDCHAR
STARTCHAR Ugrave
ENCODING 217
SWIDTH 716 0
DWIDTH 7 0
BBX 8 10 0 0
BITMAP
0000B200
00008500
00000000
07AE10E7
A49C03F3
D0D707F0
22F30AB0
05E00E70
07E07E10
03DED400
ENDCHAR
STARTCHAR Uacute
ENCODING 218
SWIDTH 716 0
DWIDTH 7 0
BBX 8 10 0 0
BITMAP
00000C20
00005800
00000000
07AE10E7
A49C03F3
D0D707F0
22F30AB0
05E00E70
07E07E10
03DED400
ENDCHAR
STARTCHAR Ucircumflex
ENCODING 219
SWIDTH 716 0
DWIDTH 7 0
BBX 8 10 0 0
BITMAP
00001B10
00018650
00000000
07AE10E7
A49C03F3
D0D707F0
22F30AB0
05E00E70
07E07E10
03DED400
ENDCHAR
STARTCHAR Udieresis
ENCODING 220
SWIDTH 716 0
DWIDTH 7 0
BBX 8 9 0 0
BITMAP
0002C4A0
00001010
07AE10E7
A49C03F3
D0D707F0
22F30AB0
05E00E70
07E07E10
03DED400
ENDCHAR
STARTCHAR Yacute
ENCODING 221
SWIDTH 620 0
DWIDTH 6 0
BBX 7 10 0 0
BITMAP
00000690
00000B10
00000000
06AF10A0
864F5540
D01F9900
200BE500
000AE000
000DB000
002F7000
ENDCHAR
STARTCHAR Thorn
ENCODING 222
SWIDTH 583 0
DWIDTH 6 0
BBX 6 8 0 0
BITMAP
005A00
00BD81
1CF86A
B6F54E
D4F26B
48E1D4
0BD730
0E8000
ENDCHAR
STARTCHAR germandbls
ENCODING 223
SWIDTH 480 0
DWIDTH 5 0
BBX 6 10 -1 -3
BITMAP
005CC1
01E5B1
05F2A0
09D680
0CA0E3
0F60E4
3F7BA0
7F0000
AC0000
410000
ENDCHAR
STARTCHAR agrave
ENCODING 224
SWIDTH 526 0
DWIDTH 5 0
BBX 7 7 -1 0
BITMAP
000A4000
00056000
01BADA00
0AC0E700
0F72F400
1F67F250
0BD7EB10
ENDCHAR
STARTCHAR aacute
ENCODING 225
SWIDTH 526 0
DWIDTH 5 0
BBX 7 7 -1 0
BITMAP
0001C200
00033000
01BADA00
0AC0E700
0F72F400
1F67F250
0BD7EB10
ENDCHAR
STARTCHAR acircumflex
ENCODING 226
SWIDTH 526 0
DWIDTH 5 0
BBX 7 7 -1 0
BITMAP
0003C100
00141300
01BADA00
0AC0E700
0F72F400
1F67F250
0BD7EB10
ENDCHAR
STARTCHAR atilde
ENCODING 227
SWIDTH 526 0
DWIDTH 5 0
BBX 7 7 -1 0
BITMAP
004DD810
00014100
01BADA00
0AC0E700
0F72F400
1F67F250
0BD7EB10
ENDCHAR
STARTCHAR adieresis
ENCODING 228
SWIDTH 526 0
DWIDTH 5 0
BBX 7 7 -1 0
BITMAP
001D4A00
00010100
01BADA00
0AC0E700
0F72F400
1F67F250
0BD7EB10
ENDCHAR
STARTCHAR aring
ENCODING 229
SWIDTH 526 0
DWIDTH 5 0
BBX 7 7 -1 0
BITMAP
00056000
00044000
01BADA00
0AC0E700
0F72F400
1F67F250
0BD7EB10
ENDCHAR
STARTCHAR ae
ENCODING 230
SWIDTH 650 0
DWIDTH 7 0
BBX 7 5 0 0
BITMAP
18BCCB30
003F7A20
5BBF8300
F6AF1150
CD6DD700
ENDCHAR
STARTCHAR ccedilla
ENCODING 231
SWIDTH 384 0
DWIDTH 4 0
BBX 5 7 -1 -2
BITMAP
01AA70
09C150
0F7000
1F6060
0BEB20
007700
005700
ENDCHAR
STARTCHAR egrave
ENCODING 232
SWIDTH 384 0
DWIDTH 4 0
BBX 5 7 -1 0
BITMAP
004B00
000A00
01AA80
09B670
0FB600
1F6060
0BEA20
ENDCHAR
STARTCHAR eacute
ENCODING 233
SWIDTH 384 0
DWIDTH 4 0
BBX 5 7 -1 0
BITMAP
0002B0
000520
01AA80
09B670
0FB600
1F6060
0BEA20
ENDCHAR
STARTCHAR ecircumflex
ENCODING 234
SWIDTH 384 0
DWIDTH 4 0
BBX 5 7 -1 0
BITMAP
000880
004240
01AA80
09B670
0FB600
1F6060
0BEA20
ENDCHAR
STARTCHAR edieresis
ENCODING 235
SWIDTH 384 0
DWIDTH 4 0
BBX 6 7 -1 0
BITMAP
00A4D1
001010
01AA80
09B670
0FB600
1F6060
0BEA20
ENDCHAR
STARTCHAR igrave
ENCODING 236
SWIDTH 267 0
DWIDTH 3 0
BBX 4 7 -1 0
BITMAP
04A0
00A0
06F1
0AC0
0D90
1F66
0CD4
ENDCHAR
STARTCHAR iacute
ENCODING 237
SWIDTH 267 0
DWIDTH 3 0
BBX 4 7 -1 0
BITMAP
004A
0061
06F1
0AC0
0D90
1F66
0CD4
ENDCHAR
STARTCHAR icircumflex
ENCODING 238
SWIDTH 267 0
DWIDTH 3 0
BBX 4 7 -1 0
BITMAP
0088
0424
06F1
0AC0
0D90
1F66
0CD4
ENDCHAR
STARTCHAR idieresis
ENCODING 239
SWIDTH 267 0
DWIDTH 3 0
BBX 4 7 -1 0
BITMAP
0A4D
0101
06F1
0AC0
0D90
1F66
0CD4
ENDCHAR
STARTCHAR eth
ENCODING 240
SWIDTH 526 0
DWIDTH 5 0
BBX 7 8 -1 0
BITMAP
00014000
0004FA30
0005B900
01BADA00
0AC0E800
0F72F400
1F67F250
0BD7EB10
ENDCHAR
STARTCHAR ntilde
ENCODING 241
SWIDTH 505 0
DWIDTH 5 0
BBX 7 7 -1 0
BITMAP
008EC500
00013000
06FCE200
0AD3F400
0D95F100
1F68D230
4F25E900
ENDCHAR
STARTCHAR ograve
ENCODING 242
SWIDTH 433 0
DWIDTH 4 0
BBX 7 7 -1 0
BITMAP
001E0000
000A1000
01BB7000
0AC3D630
1F72A000
3F586000
0BE90000
ENDCHAR
STARTCHAR oacute
ENCODING 243
SWIDTH 439 0
DWIDTH 4 0
BBX 7 7 -1 0
BITMAP
0002C000
00052000
01AB8000
09D2D630
0F71B000
2F677000
0BEA0000
ENDCHAR
STARTCHAR ocircumflex
ENCODING 244
SWIDTH 433 0
DWIDTH 4 0
BBX 7 7 -1 0
BITMAP
00097000
00424000
01BB7000
0AC3D630
1F72A000
3F586000
0BE90000
ENDCHAR
STARTCHAR otilde
ENCODING 245
SWIDTH 433 0
DWIDTH 4 0
BBX 7 7 -1 0
BITMAP
03CE9200
00042000
01BB7000
0AC3D630
1F72A000
3F586000
0BE90000
ENDCHAR
STARTCHAR odieresis
ENCODING 246
SWIDTH 433 0
DWIDTH 4 0
BBX 7 7 -1 0
BITMAP
00C3D000
00101000
01BB7000
0AC3D630
1F72A000
3F586000
0BE90000
ENDCHAR
STARTCHAR divide
ENCODING 247
SWIDTH 415 0
DWIDTH 4 0
BBX 4 5 0 1
BITMAP
02D3
0071
6CCB
0440
0A90
ENDCHAR
STARTCHAR oslash
ENCODING 248
SWIDTH 428 0
DWIDTH 4 0
BBX 6 6 -1 -1
BITMAP
01AAA5
0AC3D0
1F99C0
1FB870
1DE900
310000
ENDCHAR
STARTCHAR ugrave
ENCODING 249
SWIDTH 505 0
DWIDTH 5 0
BBX 7 7 -1 0
BITMAP
001E0000
00092000
06F1E700
0AC3F400
0D96F100
1F6BD230
0CD7E900
ENDCHAR
STARTCHAR uacute
ENCODING 250
SWIDTH 505 0
DWIDTH 5 0
BBX 7 7 -1 0
BITMAP
0001C100
00043000
06F1E700
0AC3F400
0D96F100
1F6BD230
0CD7E900
ENDCHAR
STARTCHAR ucircumflex
ENCODING 251
SWIDTH 505 0
DWIDTH 5 0
BBX 7 7 -1 0
BITMAP
0006B000
00333100
06F1E700
0AC3F400
0D96F100
1F6BD230
0CD7E900
ENDCHAR
STARTCHAR udieresis
ENCODING 252
SWIDTH 505 0
DWIDTH 5 0
BBX 7 7 -1 0
BITMAP
0086A400
00111000
06F1E700
0AC3F400
0D96F100
1F6BD230
0CD7E900
ENDCHAR
STARTCHAR yacute
ENCODING 253
SWIDTH 505 0
DWIDTH 5 0
BBX 7 9 -1 -2
BITMAP
0001C100
00043000
06F1E700
0AC3F400
0D96F100
1F6BC410
0CDEB300
038F5000
06DB0000
ENDCHAR
STARTCHAR thorn
ENCODING 254
SWIDTH 473 0
DWIDTH 5 0
BBX 6 11 -1 -3
BITMAP
003300
00E700
03F300
06FAE2
09C0F6
0D91F5
1F67E1
4FAD40
7E0000
BB0000
410000
ENDCHAR
STARTCHAR ydieresis
ENCODING 255
SWIDTH 505 0
DWIDTH 5 0
BBX 7 9 -1 -2
BITMAP
0095C200
00101000
06F1E700
0AC3F400
0D96F100
1F6BC410
0CDEB300
038F5000
06DB0000
ENDCHAR
STARTCHAR Amacron
ENCODING 256
SWIDTH 668 0
DWIDTH 7 0
BBX 8 10 0 -1
BITMAP
00005BB8
00000000
00002AC0
00092E90
4ACB7F60
C4E16F20
07B09E00
0D60CA00
1F20F700
0D100000
ENDCHAR
STARTCHAR amacron
ENCODING 257
SWIDTH 526 0
DWIDTH 5 0
BBX 7 7 -1 0
BITMAP
003BBA00
00000000
01BADA00
0AC0E700
0F72F400
1F67F250
0BD7EB10
ENDCHAR
STARTCHAR Abreve
ENCODING 258
SWIDTH 668 0
DWIDTH 7 0
BBX 9 11 0 -1
BITMAP
0000350710
0000198500
0000000000
00002AC000
00092E9000
4ACB7F6000
C4E16F2000
07B09E0000
0D60CA0000
1F20F70000
0D10000000
ENDCHAR
STARTCHAR abreve
ENCODING 259
SWIDTH 526 0
DWIDTH 5 0
BBX 7 7 -1 0
BITMAP
00398700
00000000
01BADA00
0AC0E700
0F72F400
1F67F250
0BD7EB10
ENDCHAR
STARTCHAR Aogonek
ENCODING 260
SWIDTH 668 0
DWIDTH 7 0
BBX 7 9 0 -2
BITMAP
00002AC0
00092E90
4ACB7F60
C4E16F20
07B09E00
0D60CA00
1F20F700
0D128000
00039200
ENDCHAR
STARTCHAR aogonek
ENCODING 261
SWIDTH 526 0
DWIDTH 5 0
BBX 7 7 -1 -2
BITMAP
01BADA00
0AC0E700
0F72F400
1F67F250
0BD7EA10
0000A000
0000A400
ENDCHAR
STARTCHAR Cacute
ENCODING 262
SWIDTH 497 0
DWIDTH 5 0
BBX 6 10 0 0
BITMAP
0000D1
000660
000000
02B9A2
0CB094
5F4000
AE0000
CD0000
BE2151
3DEB30
ENDCHAR
STARTCHAR cacute
ENCODING 263
SWIDTH 384 0
DWIDTH 4 0
BBX 6 7 -1 0
BITMAP
0001C2
000330
01AA70
09C150
0F7000
1F6060
0BEA20
ENDCHAR
STARTCHAR Ccircumflex
ENCODING 264
SWIDTH 497 0
DWIDTH 5 0
BBX 6 10 0 0
BITMAP
000670
006780
000000
02B9A2
0CB094
5F4000
AE0000
CD0000
BE2151
3DEB30
ENDCHAR
STARTCHAR ccircumflex
ENCODING 265
SWIDTH 384 0
DWIDTH 4 0
BBX 5 7 -1 0
BITMAP
000790
004240
01AA70
09C150
0F7000
1F6060
0BEA20
ENDCHAR
STARTCHAR Cdotaccent
ENCODING 266
SWIDTH 497 0
DWIDTH 5 0
BBX 6 10 0 0
BITMAP
000170
0003E2
000000
02B9A2
0CB094
5F4000
AE0000
CD0000
BE2151
3DEB30
ENDCHAR
STARTCHAR cdotaccent
ENCODING 267
SWIDTH 384 0
DWIDTH 4 0
BBX 5 7 -1 0
BITMAP
000A90
000540
01AA70
09C150
0F7000
1F6060
0BEA20
ENDCHAR
STARTCHAR Ccaron
ENCODING 268
SWIDTH 497 0
DWIDTH 5 0
BBX 6 10 0 0
BITMAP
000874
000940
000000
02B9A2
0CB094
5F4000
AE0000
CD0000
BE2151
3DEB30
ENDCHAR
STARTCHAR ccaron
ENCODING 269
SWIDTH 384 0
DWIDTH 4 0
BBX 6 7 -1 0
BITMAP
000984
000420
01AA70
09C150
0F7000
1F6060
0BEA20
ENDCHAR
STARTCHAR Dcaron
ENCODING 270
SWIDTH 663 0
DWIDTH 7 0
BBX 7 10 0 0
BITMAP
00087500
00085000
00000000
0677A700
96BA1F30
D1F60F60
14F22F50
07E05F20
0BA1CA00
0ECDB100
ENDCHAR
STARTCHAR dcaron
ENCODING 271
SWIDTH 525 0
DWIDTH 5 0
BBX 8 7 -1 0
BITMAP
0000265A
00007E23
01BADB00
0AC0E800
0F73F400
1F67F250
0BD7EB10
ENDCHAR
STARTCHAR Dcroat
ENCODING 272
SWIDTH 663 0
DWIDTH 7 0
BBX 7 7 0 0
BITMAP
06779700
86BA1F40
D1F60F60
38FB2F50
07E05F20
0BB1CA00
0ECDB100
ENDCHAR
STARTCHAR dcroat
ENCODING 273
SWIDTH 525 0
DWIDTH 5 0
BBX 7 7 -1 0
BITMAP
00002810
0002BF60
01BADB00
0AC0E800
0F73F400
1F67F250
0BD7EB10
ENDCHAR
STARTCHAR Emacron
ENCODING 274
SWIDTH 459 0
DWIDTH 5 0
BBX 6 9 0 0
BITMAP
007BB6
000000
01BA90
09A1B0
07D100
2BA100
AE1000
DE1250
6EE800
ENDCHAR
STARTCHAR emacron
ENCODING 275
SWIDTH 384 0
DWIDTH 4 0
BBX 6 7 -1 0
BITMAP
01BBB1
000000
01AA80
09B670
0FB600
1F6060
0BEA20
ENDCHAR
STARTCHAR Ebreve
ENCODING 276
SWIDTH 459 0
DWIDTH 5 0
BBX 6 10 0 0
BITMAP
007216
004982
000000
01BA90
09A1B0
07D100
2BA100
AE1000
DE1250
6EE800
ENDCHAR
STARTCHAR ebreve
ENCODING 277
SWIDTH 384 0
DWIDTH 4 0
BBX 6 7 -1 0
BITMAP
019881
000000
01AA80
09B670
0FB600
1F6060
0BEA20
ENDCHAR
STARTCHAR Edotaccent
ENCODING 278
SWIDTH 459 0
DWIDTH 5 0
BBX 5 10 0 0
BITMAP
000990
000440
000000
01BA90
09A1B0
07D100
2BA100
AE1000
DE1250
6EE800
ENDCHAR
STARTCHAR edotaccent
ENCODING 279
SWIDTH 384 0
DWIDTH 4 0
BBX 5 7 -1 0
BITMAP
000A80
000540
01AA80
09B670
0FB600
1F6060
0BEA20
ENDCHAR
STARTCHAR Eogonek
ENCODING 280
SWIDTH 459 0
DWIDTH 5 0
BBX 5 9 0 -2
BITMAP
06B780
0E51D0
0AB100
2BB200
BE1000
CF2040
4DEB20
008200
007700
ENDCHAR
STARTCHAR eogonek
ENCODING 281
SWIDTH 384 0
DWIDTH 4 0
BBX 5 7 -1 -2
BITMAP
01AA80
09B670
0FB600
1F6060
0BFB10
008100
007700
ENDCHAR
STARTCHAR Ecaron
ENCODING 282
SWIDTH 459 0
DWIDTH 5 0
BBX 6 10 0 0
BITMAP
000875
000850
000000
01BA90
09A1B0
07D100
2BA100
AE1000
DE1250
6EE800
ENDCHAR
STARTCHAR ecaron
ENCODING 283
SWIDTH 384 0
DWIDTH 4 0
BBX 6 7 -1 0
BITMAP
000983
000410
01AA80
09B670
0FB600
1F6060
0BEA20
ENDCHAR
STARTCHAR Gcircumflex
ENCODING 284
SWIDTH 578 0
DWIDTH 6 0
BBX 6 12 0 -2
BITMAP
0001B0
000A93
002102
03B996
2E7055
9E0031
CB00E4
9D07F1
2CCBD0
098A80
4A2E30
088400
ENDCHAR
STARTCHAR gcircumflex
ENCODING 285
SWIDTH 507 0
DWIDTH 5 0
BBX 7 9 -1 -2
BITMAP
0003C100
00141300
01BADA00
0AC0E700
0F73F400
1F68F240
0BEDD400
017E8000
03CC2000
ENDCHAR
STARTCHAR Gbreve
ENCODING 286
SWIDTH 578 0
DWIDTH 6 0
BBX 7 12 0 -2
BITMAP
00170520
00089700
00000000
03B99500
2E707900
9E001000
CB00C500
9D06F200
2CCBD000
098A9000
4A2E3000
08850000
ENDCHAR
STARTCHAR gbreve
ENCODING 287
SWIDTH 507 0
DWIDTH 5 0
BBX 7 9 -1 -2
BITMAP
00398700
00000000
01BADA00
0AC0E700
0F73F400
1F68F240
0BEDD400
017E8000
03CC2000
ENDCHAR
STARTCHAR Gdotaccent
ENCODING 288
SWIDTH 578 0
DWIDTH 6 0
BBX 6 12 0 -2
BITMAP
000350
0007B0
000000
03B995
2E7079
9E0010
CB00C5
9D06F2
2CCBD0
098A90
4A2E30
088500
ENDCHAR
STARTCHAR gdotaccent
ENCODING 289
SWIDTH 507 0
DWIDTH 5 0
BBX 7 9 -1 -2
BITMAP
0004D100
00017000
01BADA00
0AC0E700
0F73F400
1F68F240
0BEDD400
017E8000
03CC2000
ENDCHAR
STARTCHAR Gcommaaccent
ENCODING 290
SWIDTH 578 0
DWIDTH 6 0
BBX 6 10 0 -3
BITMAP
02A9A1
1D90C2
7F2000
CD0093
EB02F2
CD09D0
4ECCA0
006000
00A000
001000
ENDCHAR
STARTCHAR gcommaaccent
ENCODING 291
SWIDTH 507 0
DWIDTH 5 0
BBX 7 10 -1 -2
BITMAP
00014000
00049000
00000000
01BADA00
0AC0E700
0F73F400
1F68F240
0BEDD400
017E8000
03CC2000
ENDCHAR
STARTCHAR Hcircumflex
ENCODING 292
SWIDTH 665 0
DWIDTH 7 0
BBX 7 10 0 0
BITMAP
00002B00
00038720
00000000
128D0AC0
A2D90E90
72FCCF60
04F26F20
07E09E00
0BB0CA00
0E80F700
ENDCHAR
STARTCHAR hcircumflex
ENCODING 293
SWIDTH 505 0
DWIDTH 5 0
BBX 7 9 -1 0
BITMAP
001B1000
01865000
00950000
03F40000
06FCE200
09D3F400
0C95F100
1F68D230
4F25E900
ENDCHAR
STARTCHAR Hbar
ENCODING 294
SWIDTH 665 0
DWIDTH 7 0
BBX 8 7 0 0
BITMAP
16BD0AC0
A6EC8EB3
72FCCF40
04F26F10
07E09D00
0AB0CA00
0D80F700
ENDCHAR
STARTCHAR hbar
ENCODING 295
SWIDTH 505 0
DWIDTH 5 0
BBX 7 7 -1 0
BITMAP
00740000
07FA2000
05FCE200
09D3F400
0C95F100
1F68D230
4F25EA00
ENDCHAR
STARTCHAR Itilde
ENCODING 296
SWIDTH 375 0
DWIDTH 4 0
BBX 6 9 0 0
BITMAP
018EC1
000000
05AD00
84D900
D1F600
25F300
08E000
0BB000
0E7000
ENDCHAR
STARTCHAR itilde
ENCODING 297
SWIDTH 267 0
DWIDTH 3 0
BBX 4 7 -1 0
BITMAP
07E8
0021
06F1
0AC0
0D90
1F66
0CD4
ENDCHAR
STARTCHAR Imacron
ENCODING 298
SWIDTH 375 0
DWIDTH 4 0
BBX 5 9 0 0
BITMAP
04BB90
000000
05AD00
84D900
D1F600
25F300
08E000
0BB000
0E7000
ENDCHAR
STARTCHAR imacron
ENCODING 299
SWIDTH 267 0
DWIDTH 3 0
BBX 4 7 -1 0
BITMAP
08BA
0000
06F1
0AC0
0D90
1F66
0CD4
ENDCHAR
STARTCHAR Ibreve
ENCODING 300
SWIDTH 375 0
DWIDTH 4 0
BBX 6 10 0 0
BITMAP
026062
009960
000000
05AD00
84D900
D1F600
25F300
08E000
0BB000
0E7000
ENDCHAR
STARTCHAR ibreve
ENCODING 301
SWIDTH 267 0
DWIDTH 3 0
BBX 5 7 -1 0
BITMAP
059810
000000
06F100
0AC000
0D9000
1F6600
0CD400
ENDCHAR
STARTCHAR Iogonek
ENCODING 302
SWIDTH 375 0
DWIDTH 4 0
BBX 4 12 0 -2
BITMAP
02B0
00C0
0000
06BD
85C9
D1F6
24F3
07E0
0BB0
0E70
3700
3A50
ENDCHAR
STARTCHAR iogonek
ENCODING 303
SWIDTH 267 0
DWIDTH 3 0
BBX 4 9 -1 -2
BITMAP
01D4
0062
06F1
0AC0
0D90
1F66
0DD4
3700
3A50
ENDCHAR
STARTCHAR Idotaccent
ENCODING 304
SWIDTH 375 0
DWIDTH 4 0
BBX 5 10 0 0
BITMAP
000710
001E30
000000
05AD00
84D900
D1F600
25F300
08E000
0BB000
0E7000
ENDCHAR
STARTCHAR dotlessi
ENCODING 305
SWIDTH 267 0
DWIDTH 3 0
BBX 4 5 -1 0
BITMAP
06F1
0AC0
0D90
1F66
0CD4
ENDCHAR
STARTCHAR IJ
ENCODING 306
SWIDTH 663 0
DWIDTH 7 0
BBX 7 9 0 -2
BITMAP
06BD0A80
85CA1F60
D1F64F20
24F38E00
07E0CA00
0BB1F700
0EB4F300
0C29C000
05892000
ENDCHAR
STARTCHAR ij
ENCODING 307
SWIDTH 507 0
DWIDTH 5 0
BBX 7 9 -1 -2
BITMAP
01D45D00
00722600
06F1BA00
0AC0E700
0D93F400
1F67F240
0CCBD400
029E8000
03CC2000
ENDCHAR
STARTCHAR Jcircumflex
ENCODING 308
SWIDTH 536 0
DWIDTH 5 0
BBX 7 12 0 -2
BITMAP
00002B00
00028640
00000000
0017CA00
00B3F600
01C4F300
0027E000
000BB000
000E8000
5B6F4000
C38D0000
48820000
ENDCHAR
STARTCHAR jcircumflex
ENCODING 309
SWIDTH 240 0
DWIDTH 2 0
BBX 5 9 -2 -2
BITMAP
001960
004140
006F00
00AC00
00D800
02F560
06F600
8BD000
BE5000
ENDCHAR
STARTCHAR Kcommaaccent
ENCODING 310
SWIDTH 601 0
DWIDTH 6 0
BBX 7 10 0 -3
BITMAP
17BC2A30
C2DA9100
61FCA200
04F1E600
08D1F400
0BA4F100
0E74F100
00330000
00460000
00100000
ENDCHAR
STARTCHAR kcommaaccent
ENCODING 311
SWIDTH 518 0
DWIDTH 5 0
BBX 7 10 -1 -3
BITMAP
00C60000
03F30000
06F29300
09ED8000
0DB7F200
1F67F140
4F24EB10
00420000
00640000
00100000
ENDCHAR
STARTCHAR kgreenlandic
ENCODING 312
SWIDTH 518 0
DWIDTH 5 0
BBX 7 5 -1 0
BITMAP
06F29300
0AED8000
0DB7F200
1F67F140
4F24EB10
ENDCHAR
STARTCHAR Lacute
ENCODING 313
SWIDTH 379 0
DWIDTH 4 0
BBX 7 13 0 -2
BITMAP
00016000
00086000
00060000
00000000
06BD0000
95C90000
D1F60000
24F20000
08E00000
0BA00000
0EA10000
016DA740
0001AE40
ENDCHAR
STARTCHAR lacute
ENCODING 314
SWIDTH 267 0
DWIDTH 3 0
BBX 5 10 -1 0
BITMAP
000530
001C10
002400
00C600
03F300
06F100
0AC000
0D9000
1F6700
0CD400
ENDCHAR
STARTCHAR Lcommaaccent
ENCODING 315
SWIDTH 379 0
DWIDTH 4 0
BBX 7 9 0 -2
BITMAP
06BD0000
95C90000
D1F60000
24F20000
08E00000
0BA00000
0EA10000
196DA740
1701AE40
ENDCHAR
STARTCHAR lcommaaccent
ENCODING 316
SWIDTH 267 0
DWIDTH 3 0
BBX 4 11 -1 -3
BITMAP
0001
01E6
04F3
07F0
0AC0
0D90
1F67
0CD4
0600
0A00
0100
ENDCHAR
STARTCHAR Lcaron
ENCODING 317
SWIDTH 379 0
DWIDTH 4 0
BBX 7 13 0 -2
BITMAP
00121300
000BA000
00040000
00000000
06BD0000
95C90000
D1F60000
24F20000
08E00000
0BA00000
0EA10000
016DA740
0001AE40
ENDCHAR
STARTCHAR lcaron
ENCODING 318
SWIDTH 267 0
DWIDTH 3 0
BBX 4 7 0 0
BITMAP
044D
2F57
5F20
9D00
CA00
F650
DD50
ENDCHAR
STARTCHAR Ldot
ENCODING 319
SWIDTH 605 0
DWIDTH 6 0
BBX 7 9 0 -2
BITMAP
07BD0000
A4C90000
B1F60000
04F26300
08E0C600
0BA00000
0EA10000
016EA740
0001AE40
ENDCHAR
STARTCHAR ldot
ENCODING 320
SWIDTH 353 0
DWIDTH 4 0
BBX 5 7 -1 0
BITMAP
00D600
03F300
06F100
0ACA50
0D9200
1F6000
0CC000
ENDCHAR
STARTCHAR Lslash
ENCODING 321
SWIDTH 392 0
DWIDTH 4 0
BBX 7 9 0 -2
BITMAP
06BD0000
95CA0000
D1FB4000
26F30000
0AE00000
0BA00000
0EA10000
016DA740
0001AE40
ENDCHAR
STARTCHAR lslash
ENCODING 322
SWIDTH 286 0
DWIDTH 3 0
BBX 5 8 -1 0
BITMAP
000100
01E600
04F510
07F800
2CC000
1D9000
1F6700
0CD400
ENDCHAR
STARTCHAR Nacute
ENCODING 323
SWIDTH 702 0
DWIDTH 7 0
BBX 8 10 0 0
BITMAP
00000590
00000B10
00000000
17BE00E1
A4CF32D0
D2EE7590
35BBB860
0877EC20
0B43FD00
0E00EA00
ENDCHAR
STARTCHAR nacute
ENCODING 324
SWIDTH 505 0
DWIDTH 5 0
BBX 7 7 -1 0
BITMAP
0000B300
00025000
06FCE200
0AD3F400
0D95F100
1F68D230
4F25E900
ENDCHAR
STARTCHAR Ncommaaccent
ENCODING 325
SWIDTH 668 0
DWIDTH 7 0
BBX 8 10 0 -3
BITMAP
17BE00E1
A4CF32D0
D2EE7590
35BBB860
0877EC20
0B43FD00
0E00EA00
00330000
00550000
00100000
ENDCHAR
STARTCHAR ncommaaccent
ENCODING 326
SWIDTH 505 0
DWIDTH 5 0
BBX 7 8 -1 -3
BITMAP
06FCE200
0AD3F400
0D95F100
1F68D230
4F25E900
00600000
00A10000
00100000
ENDCHAR
STARTCHAR Ncaron
ENCODING 327
SWIDTH 668 0
DWIDTH 7 0
BBX 8 10 0 0
BITMAP
00006581
00002B10
00000000
17BE00E1
A4CF32D0
D2EE7590
35BBB860
0877EC20
0B43FD00
0E00EA00
ENDCHAR
STARTCHAR ncaron
ENCODING 328
SWIDTH 505 0
DWIDTH 5 0
BBX 7 7 -1 0
BITMAP
00198200
00050000
06FCE200
0AD3F400
0D95F100
1F68D230
4F25E900
ENDCHAR
STARTCHAR napostrophe
ENCODING 329
SWIDTH 505 0
DWIDTH 5 0
BBX 7 7 -1 0
BITMAP
07700000
03100000
06FCE200
0AD3F400
0D95F100
1F68D230
4F25E900
ENDCHAR
STARTCHAR Eng
ENCODING 330
SWIDTH 723 0
DWIDTH 7 0
BBX 8 10 0 -3
BITMAP
04BF6069
3C5FA096
788EE0D2
14C6F4E0
01E0EBB0
04A0AF70
08705F40
00555E00
00949800
00288000
ENDCHAR
STARTCHAR eng
ENCODING 331
SWIDTH 505 0
DWIDTH 5 0
BBX 6 7 -1 -2
BITMAP
07FBE1
0AD3F2
0D95F0
1F59C0
4F4D80
038F50
04BA00
ENDCHAR
STARTCHAR Omacron
ENCODING 332
SWIDTH 665 0
DWIDTH 7 0
BBX 7 9 0 0
BITMAP
002BBB00
00000000
04889A10
699B0D60
B6F30C80
2AD00E60
0DA05F20
0D91D800
06EC8000
ENDCHAR
STARTCHAR omacron
ENCODING 333
SWIDTH 433 0
DWIDTH 4 0
BBX 7 7 -1 0
BITMAP
00BBB300
00000000
01BB7000
0AC3D630
1F72A000
3F586000
0BE90000
ENDCHAR
STARTCHAR Obreve
ENCODING 334
SWIDTH 665 0
DWIDTH 7 0
BBX 7 10 0 0
BITMAP
00080350
00069810
00000000
04889A10
699B0D60
B6F30C80
2AD00E60
0DA05F20
0D91D800
06EC8000
ENDCHAR
STARTCHAR obreve
ENCODING 335
SWIDTH 433 0
DWIDTH 4 0
BBX 7 7 -1 0
BITMAP
00888300
00000000
01BB7000
0AC3D630
1F72A000
3F586000
0BE90000
ENDCHAR
STARTCHAR Ohungarumlaut
ENCODING 336
SWIDTH 665 0
DWIDTH 7 0
BBX 8 10 0 0
BITMAP
000085B1
00019640
00000000
04889A10
699B0D60
B6F30C80
2AD00E60
0DA05F20
0D91D800
06EC8000
ENDCHAR
STARTCHAR ohungarumlaut
ENCODING 337
SWIDTH 433 0
DWIDTH 4 0
BBX 7 7 -1 0
BITMAP
000C6900
00548100
01BB7000
0AC3D630
1F72A000
3F586000
0BE90000
ENDCHAR
STARTCHAR OE
ENCODING 338
SWIDTH 846 0
DWIDTH 8 0
BBX 9 7 0 0
BITMAP
04789DEFE0
698B0D6210
C6F30C8000
2AD00ED800
0DA05F2000
0D91C91000
06EDFFF800
ENDCHAR
STARTCHAR oe
ENCODING 339
SWIDTH 663 0
DWIDTH 7 0
BBX 8 5 -1 0
BITMAP
01B98CA5
0AA4FB37
0F62FB60
1F56F507
0AE99D81
ENDCHAR
STARTCHAR Racute
ENCODING 340
SWIDTH 601 0
DWIDTH 6 0
BBX 6 10 0 0
BITMAP
0000A5
0002B0
000000
178996
C3C86A
61FAE2
04F1E6
08D1F4
0BA4F1
0E74F1
ENDCHAR
STARTCHAR racute
ENCODING 341
SWIDTH 376 0
DWIDTH 4 0
BBX 5 7 -1 0
BITMAP
000590
000600
06FAB0
0AC140
0D9000
1F6000
4F2000
ENDCHAR
STARTCHAR Rcommaaccent
ENCODING 342
SWIDTH 601 0
DWIDTH 6 0
BBX 6 10 0 -3
BITMAP
178996
C3C86A
61FAE2
04F1E6
08D1F4
0BA4F1
0E74F1
004200
007300
001000
ENDCHAR
STARTCHAR rcommaaccent
ENCODING 343
SWIDTH 376 0
DWIDTH 4 0
BBX 5 8 -1 -3
BITMAP
06FAB0
0AC140
0D9000
1F6000
4F2000
033000
055000
010000
ENDCHAR
STARTCHAR Rcaron
ENCODING 344
SWIDTH 601 0
DWIDTH 6 0
BBX 7 10 0 0
BITMAP
00065810
0002B100
00000000
17899600
C3C86A00
61FAE200
04F1E600
08D1F400
0BA4F100
0E74F100
ENDCHAR
STARTCHAR rcaron
ENCODING 345
SWIDTH 376 0
DWIDTH 4 0
BBX 5 7 -1 0
BITMAP
007760
002300
06FAB0
0AC140
0D9000
1F6000
4F2000
ENDCHAR
STARTCHAR Sacute
ENCODING 346
SWIDTH 570 0
DWIDTH 6 0
BBX 6 10 0 0
BITMAP
0000B4
000390
000000
01A9A3
07F196
03F810
006F70
4D49F1
9807E1
2BBC40
ENDCHAR
STARTCHAR sacute
ENCODING 347
SWIDTH 382 0
DWIDTH 4 0
BBX 5 7 -1 0
BITMAP
0003B0
000720
008D00
01CF00
076F10
396F60
1BD800
ENDCHAR
STARTCHAR Scircumflex
ENCODING 348
SWIDTH 570 0
DWIDTH 6 0
BBX 6 10 0 0
BITMAP
0001C0
002864
000000
01A9A3
07F196
03F810
006F70
4D49F1
9807E1
2BBC40
ENDCHAR
STARTCHAR scircumflex
ENCODING 349
SWIDTH 382 0
DWIDTH 4 0
BBX 5 7 -1 0
BITMAP
001B30
016350
008D00
01CF00
076F10
396F60
1BD800
ENDCHAR
STARTCHAR Scedilla
ENCODING 350
SWIDTH 570 0
DWIDTH 6 0
BBX 6 9 0 -2
BITMAP
01A9A3
07F196
03F810
006F70
4D49F1
9807E1
3CBC40
00A500
038700
ENDCHAR
STARTCHAR scedilla
ENCODING 351
SWIDTH 382 0
DWIDTH 4 0
BBX 5 8 -1 -2
BITMAP
003500
00CF00
03AF10
085F20
497F80
1DE800
059100
06B100
ENDCHAR
STARTCHAR Scaron
ENCODING 352
SWIDTH 570 0
DWIDTH 6 0
BBX 7 10 0 0
BITMAP
00055810
0001B100
00000000
01A9A300
07F19600
03F81000
006F7000
4D49F100
9807E100
2BBC4000
ENDCHAR
STARTCHAR scaron
ENCODING 353
SWIDTH 369 0
DWIDTH 4 0
BBX 6 7 -1 0
BITMAP
006771
002700
008D00
01CF00
076F10
396F60
1BD800
ENDCHAR
STARTCHAR uni0162
ENCODING 354
SWIDTH 481 0
DWIDTH 5 0
BBX 8 9 0 -2
BITMAP
19CFEFE1
B53F4000
D06F1000
109C0000
00D90000
01F50000
05F20000
01A30000
04950000
ENDCHAR
STARTCHAR uni0163
ENCODING 355
SWIDTH 267 0
DWIDTH 3 0
BBX 4 9 -1 -2
BITMAP
0063
03F3
08F4
0AC0
0D90
1F66
0CD4
0960
2790
ENDCHAR
STARTCHAR Tcaron
ENCODING 356
SWIDTH 481 0
DWIDTH 5 0
BBX 8 10 0 0
BITMAP
00075700
00058000
00000000
19CFEFE1
B53F4000
D06F1000
109C0000
00D90000
01F50000
05F20000
ENDCHAR
STARTCHAR tcaron
ENCODING 357
SWIDTH 267 0
DWIDTH 3 0
BBX 6 7 -1 0
BITMAP
0011D1
03F440
08F400
0AC000
0D9000
1F6600
0CD400
ENDCHAR
STARTCHAR Tbar
ENCODING 358
SWIDTH 481 0
DWIDTH 5 0
BBX 8 7 0 0
BITMAP
19CFFFE1
A62F4000
E06F1000
409D0000
18DC8200
01F60000
05F20000
ENDCHAR
STARTCHAR tbar
ENCODING 359
SWIDTH 267 0
DWIDTH 3 0
BBX 4 7 -1 0
BITMAP
0063
03F3
08F4
1CE4
0C90
0F65
0DD4
ENDCHAR
STARTCHAR Utilde
ENCODING 360
SWIDTH 716 0
DWIDTH 7 0
BBX 8 9 0 0
BITMAP
00017EC2
00000000
07AE10E7
A49C03F3
D0D707F0
22F30AB0
05E00E70
07E07E10
03DED400
ENDCHAR
STARTCHAR utilde
ENCODING 361
SWIDTH 505 0
DWIDTH 5 0
BBX 7 7 -1 0
BITMAP
008EC500
00013000
06F1E700
0AC3F400
0D96F100
1F6BD230
0CD7E900
ENDCHAR
STARTCHAR Umacron
ENCODING 362
SWIDTH 716 0
DWIDTH 7 0
BBX 8 9 0 0
BITMAP
0003BBB0
00000000
07AE10E7
A49C03F3
D0D707F0
22F30AB0
05E00E70
07E07E10
03DED400
ENDCHAR
STARTCHAR umacron
ENCODING 363
SWIDTH 505 0
DWIDTH 5 0
BBX 7 7 -1 0
BITMAP
009BB500
00000000
06F1E700
0AC3F400
0D96F100
1F6BD230
0CD7E900
ENDCHAR
STARTCHAR Ubreve
ENCODING 364
SWIDTH 716 0
DWIDTH 7 0
BBX 8 10 0 0
BITMAP
00026062
00009860
00000000
07AE10E7
A49C03F3
D0D707F0
22F30AB0
05E00E70
07E07E10
03DED400
ENDCHAR
STARTCHAR ubreve
ENCODING 365
SWIDTH 505 0
DWIDTH 5 0
BBX 7 7 -1 0
BITMAP
00698400
00000000
06F1E700
0AC3F400
0D96F100
1F6BD230
0CD7E900
ENDCHAR
STARTCHAR Uring
ENCODING 366
SWIDTH 716 0
DWIDTH 7 0
BBX 8 10 0 0
BITMAP
00002600
00003600
00000000
07AE10E7
A49C03F3
D0D707F0
22F30AB0
05E00E70
07E07E10
03DED400
ENDCHAR
STARTCHAR uring
ENCODING 367
SWIDTH 505 0
DWIDTH 5 0
BBX 7 7 -1 0
BITMAP
00075000
00063000
06F1E700
0AC3F400
0D96F100
1F6BD230
0CD7E900
ENDCHAR
STARTCHAR Uhungarumlaut
ENCODING 368
SWIDTH 716 0
DWIDTH 7 0
BBX 8 10 0 0
BITMAP
00001A66
000083A0
00000000
07AE10E7
A49C03F3
D0D707F0
22F30AB0
05E00E70
07E07E10
03DED400
ENDCHAR
STARTCHAR uhungarumlaut
ENCODING 369
SWIDTH 505 0
DWIDTH 5 0
BBX 7 7 -1 0
BITMAP
000C6A00
00448100
06F1E700
0AC3F400
0D96F100
1F6BD230
0CD7E900
ENDCHAR
STARTCHAR Uogonek
ENCODING 370
SWIDTH 716 0
DWIDTH 7 0
BBX 8 12 0 -2
BITMAP
0000B200
00008500
00000000
07AE10E7
A49C03F3
D0D706F0
22F30AB0
05E00E70
07E06E20
03DFD500
00560000
004A4000
ENDCHAR
STARTCHAR uogonek
ENCODING 371
SWIDTH 505 0
DWIDTH 5 0
BBX 7 7 -1 -2
BITMAP
06F1E700
0AC3F400
0D96F100
1F6BD230
0CD7E700
00055000
0004A400
ENDCHAR
STARTCHAR Wcircumflex
ENCODING 372
SWIDTH 962 0
DWIDTH 10 0
BBX 11 10 0 0
BITMAP
0000003B0000
000003872000
000000000000
06BE01F70820
867F06F70900
D07F09F74500
207F27F78000
006F71F87000
006F80ED2000
006F40EB0000
ENDCHAR
STARTCHAR wcircumflex
ENCODING 373
SWIDTH 661 0
DWIDTH 7 0
BBX 8 7 -1 0
BITMAP
00006900
00044400
06F1E7A5
0AC3F436
0D96F182
1F6BD2A0
0CD8EB20
ENDCHAR
STARTCHAR Ycircumflex
ENCODING 374
SWIDTH 620 0
DWIDTH 6 0
BBX 7 10 0 0
BITMAP
00002B00
00028730
00000000
06AF10A0
864F5540
D01F9900
200BE500
000AE000
000DB000
002F7000
ENDCHAR
STARTCHAR ycircumflex
ENCODING 375
SWIDTH 505 0
DWIDTH 5 0
BBX 7 9 -1 -2
BITMAP
0006A000
00333000
06F1E700
0AC3F400
0D96F100
1F6BC410
0CDEB300
038F5000
06DB0000
ENDCHAR
STARTCHAR Ydieresis
ENCODING 376
SWIDTH 620 0
DWIDTH 6 0
BBX 7 9 0 0
BITMAP
0001D4A0
00001010
06AF10A0
864F5540
D01F9900
200BE500
000AE000
000DB000
002F7000
ENDCHAR
STARTCHAR Zacute
ENCODING 377
SWIDTH 542 0
DWIDTH 5 0
BBX 6 10 0 0
BITMAP
0000A4
0002A0
000000
1C8CF4
170DA0
007F20
01E900
08E200
2F8080
9FAAA0
ENDCHAR
STARTCHAR zacute
ENCODING 378
SWIDTH 428 0
DWIDTH 4 0
BBX 5 7 0 0
BITMAP
002C10
004200
3BCE10
24E600
09C000
2F4600
BFB800
ENDCHAR
STARTCHAR Zdotaccent
ENCODING 379
SWIDTH 530 0
DWIDTH 5 0
BBX 6 9 0 0
BITMAP
000D10
000100
1C8CF4
170DA0
007F20
01E900
08E200
2F8080
9FAAA0
ENDCHAR
STARTCHAR zdotaccent
ENCODING 380
SWIDTH 428 0
DWIDTH 4 0
BBX 5 7 0 0
BITMAP
00A400
001000
3BCE10
24E600
09C000
2F4600
BFB800
ENDCHAR
STARTCHAR Zcaron
ENCODING 381
SWIDTH 542 0
DWIDTH 5 0
BBX 6 10 0 0
BITMAP
000865
000760
000000
1C8CF4
170DA0
007F20
01E900
08E200
2F8080
9FAAA0
ENDCHAR
STARTCHAR zcaron
ENCODING 382
SWIDTH 428 0
DWIDTH 4 0
BBX 5 7 0 0
BITMAP
009830
004100
3BCE10
24E600
09C000
2F4600
BFB800
ENDCHAR
STARTCHAR longs
ENCODING 383
SWIDTH 267 0
DWIDTH 3 0
BBX 6 9 -2 -2
BITMAP
0009E8
003F52
00AF10
00AD00
00D900
02F500
17F200
7AD000
BE5000
ENDCHAR
STARTCHAR uni018F
ENCODING 399
SWIDTH 544 0
DWIDTH 5 0
BBX 6 7 0 0
BITMAP
08EE80
0A39F3
0004F5
028AF4
4D2AD0
B73F50
6DC500
ENDCHAR
STARTCHAR florin
ENCODING 402
SWIDTH 267 0
DWIDTH 3 0
BBX 8 9 -3 -2
BITMAP
00002CB3
0000C862
0008F730
0008E000
000D9000
002F5000
007E0000
35C80000
5BA10000
ENDCHAR
STARTCHAR Ohorn
ENCODING 416
SWIDTH 665 0
DWIDTH 7 0
BBX 8 9 0 0
BITMAP
00000041
000000B2
04889B80
699B0D60
B6F30C80
2AD00E60
0DA05F20
0D91D800
06EC8000
ENDCHAR
STARTCHAR ohorn
ENCODING 417
SWIDTH 439 0
DWIDTH 4 0
BBX 6 7 -1 0
BITMAP
000005
00000B
01AAC3
0AC0C0
1F72C0
1F6870
0AE900
ENDCHAR
STARTCHAR Uhorn
ENCODING 431
SWIDTH 716 0
DWIDTH 7 0
BBX 9 9 0 0
BITMAP
0000000390
0000000650
07AE10E700
A49C03F300
D0D707E000
22F30AB000
05E00E6000
07E07E1000
03DEC40000
ENDCHAR
STARTCHAR uhorn
ENCODING 432
SWIDTH 505 0
DWIDTH 5 0
BBX 7 7 -1 0
BITMAP
00000230
00000850
06F1E900
0AC3F400
0D96F100
1F6BD230
0CD7E900
ENDCHAR
STARTCHAR uni01B7
ENCODING 439
SWIDTH 555 0
DWIDTH 6 0
BBX 6 7 0 0
BITMAP
0B8AF5
071D80
00BC00
006EA0
000AF0
A50CC0
7BBA20
ENDCHAR
STARTCHAR uni01CD
ENCODING 461
SWIDTH 668 0
DWIDTH 7 0
BBX 9 11 0 -1
BITMAP
0000036820
000000B200
0000000000
00002AC000
00092E9000
4ACB7F6000
C4E16F2000
07B09E0000
0D60CA0000
1F20F70000
0D10000000
ENDCHAR
STARTCHAR uni01CE
ENCODING 462
SWIDTH 526 0
DWIDTH 5 0
BBX 7 7 -1 0
BITMAP
00067600
00014000
01BADA00
0AC0E700
0F72F400
1F67F250
0BD7EB10
ENDCHAR
STARTCHAR uni01CF
ENCODING 463
SWIDTH 375 0
DWIDTH 4 0
BBX 6 10 0 0
BITMAP
003682
000B20
000000
05AD00
84D900
D1F600
25F300
08E000
0BB000
0E7000
ENDCHAR
STARTCHAR uni01D0
ENCODING 464
SWIDTH 267 0
DWIDTH 3 0
BBX 5 7 -1 0
BITMAP
019820
005000
06F100
0AC000
0D9000
1F6600
0CD400
ENDCHAR
STARTCHAR uni01D1
ENCODING 465
SWIDTH 665 0
DWIDTH 7 0
BBX 7 10 0 0
BITMAP
00008660
00007600
00000000
04889A10
699B0D60
B6F30C80
2AD00E60
0DA05F20
0D91D800
06EC8000
ENDCHAR
STARTCHAR uni01D2
ENCODING 466
SWIDTH 433 0
DWIDTH 4 0
BBX 7 7 -1 0
BITMAP
00198300
00051000
01BB7000
0AC3D630
1F72A000
3F586000
0BE90000
ENDCHAR
STARTCHAR uni01D3
ENCODING 467
SWIDTH 716 0
DWIDTH 7 0
BBX 8 10 0 0
BITMAP
00004682
00000C20
00000000
07AE10E7
A49C03F3
D0D707F0
22F30AB0
05E00E70
07E07E10
03DED400
ENDCHAR
STARTCHAR uni01D4
ENCODING 468
SWIDTH 505 0
DWIDTH 5 0
BBX 7 7 -1 0
BITMAP
00098400
00041000
06F1E700
0AC3F400
0D96F100
1F6BD230
0CD7E900
ENDCHAR
STARTCHAR uni01D5
ENCODING 469
SWIDTH 716 0
DWIDTH 7 0
BBX 8 10 0 0
BITMAP
00008882
0002C1D0
00001010
07AE10E7
A49C03F3
D0D707F0
22F30AB0
05E00E70
07E07E10
03DED400
ENDCHAR
STARTCHAR uni01D6
ENCODING 470
SWIDTH 505 0
DWIDTH 5 0
BBX 7 9 -1 0
BITMAP
005BB800
00000000
0086A400
00111000
06F1E700
0AC3F400
0D96F100
1F6BD230
0CD7E900
ENDCHAR
STARTCHAR uni01D7
ENCODING 471
SWIDTH 716 0
DWIDTH 7 0
BBX 8 10 0 0
BITMAP
00000A50
00097B87
00012211
07AE10E7
A49C03F3
D0D707F0
22F30AB0
05E00E70
07E07E10
03DED400
ENDCHAR
STARTCHAR uni01D8
ENCODING 472
SWIDTH 505 0
DWIDTH 5 0
BBX 7 10 -1 0
BITMAP
00005300
0001C100
00024000
0086A400
00111000
06F1E700
0AC3F400
0D96F100
1F6BD230
0CD7E900
ENDCHAR
STARTCHAR uni01D9
ENCODING 473
SWIDTH 716 0
DWIDTH 7 0
BBX 8 10 0 0
BITMAP
00003140
00089B96
00010100
07AE10E7
A49C03F3
D0D707F0
22F30AB0
05E00E70
07E07E10
03DED400
ENDCHAR
STARTCHAR uni01DA
ENCODING 474
SWIDTH 505 0
DWIDTH 5 0
BBX 7 9 -1 0
BITMAP
00075700
00058000
0086A400
00111000
06F1E700
0AC3F400
0D96F100
1F6BD230
0CD7E900
ENDCHAR
STARTCHAR uni01DB
ENCODING 475
SWIDTH 716 0
DWIDTH 7 0
BBX 8 10 0 0
BITMAP
00002700
00096D87
00011311
07AE10E7
A49C03F3
D0D707F0
22F30AB0
05E00E70
07E07E10
03DED400
ENDCHAR
STARTCHAR uni01DC
ENCODING 476
SWIDTH 505 0
DWIDTH 5 0
BBX 7 9 -1 0
BITMAP
000E1000
00082000
0086A400
00111000
06F1E700
0AC3F400
0D96F100
1F6BD230
0CD7E900
ENDCHAR
STARTCHAR uni01E4
ENCODING 484
SWIDTH 601 0
DWIDTH 6 0
BBX 6 9 0 -2
BITMAP
03B995
2E7066
9E0042
CB08E8
9D07F1
2CCBC0
098A80
4A2E20
088400
ENDCHAR
STARTCHAR uni01E5
ENCODING 485
SWIDTH 507 0
DWIDTH 5 0
BBX 7 7 -1 -2
BITMAP
01BADA00
0AC0E700
0F73F400
1F68F230
0BEEC200
07BFB100
03CC1000
ENDCHAR
STARTCHAR Gcaron
ENCODING 486
SWIDTH 578 0
DWIDTH 6 0
BBX 7 12 0 -2
BITMAP
00055810
0001C100
00000000
03B99500
2E707900
9E001000
CB00C500
9D06F200
2CCBD000
098A9000
4A2E3000
08850000
ENDCHAR
STARTCHAR gcaron
ENCODING 487
SWIDTH 507 0
DWIDTH 5 0
BBX 7 9 -1 -2
BITMAP
00067600
00014000
01BADA00
0AC0E700
0F73F400
1F68F240
0BEDD400
017E8000
03CC2000
ENDCHAR
STARTCHAR uni01E8
ENCODING 488
SWIDTH 601 0
DWIDTH 6 0
BBX 7 11 0 0
BITMAP
00007570
00005800
00000000
00000000
17BC2A30
C2DA9100
61FCA200
04F1E600
08D1F400
0BA4F100
0E74F100
ENDCHAR
STARTCHAR uni01E9
ENCODING 489
SWIDTH 518 0
DWIDTH 5 0
BBX 7 10 -1 0
BITMAP
00046820
0000B200
00000000
00C60000
03F30000
06F29300
09ED8000
0DB7F200
1F67F140
4F24EB10
ENDCHAR
STARTCHAR uni01EA
ENCODING 490
SWIDTH 665 0
DWIDTH 7 0
BBX 7 12 0 -2
BITMAP
000C0000
000A3000
00000000
04889A10
699B0D60
B6F30C80
2AD00E60
0DA05F20
0D91D800
06EC8000
02900000
02A60000
ENDCHAR
STARTCHAR uni01EB
ENCODING 491
SWIDTH 433 0
DWIDTH 4 0
BBX 7 7 -1 -2
BITMAP
01BB7000
0AC3D630
1F72A000
3F586000
0CE90000
0A100000
08910000
ENDCHAR
STARTCHAR uni01EE
ENCODING 494
SWIDTH 525 0
DWIDTH 5 0
BBX 6 10 0 0
BITMAP
001884
000A40
000000
0B8AF5
071D80
00BC00
006EA0
000AF0
A50CC0
7BBA20
ENDCHAR
STARTCHAR uni01EF
ENCODING 495
SWIDTH 600 0
DWIDTH 6 0
BBX 5 10 0 -2
BITMAP
008740
00A400
000000
7AEB00
35E200
0E7000
0AA060
08F510
8BD000
AD5000
ENDCHAR
STARTCHAR uni01F4
ENCODING 500
SWIDTH 578 0
DWIDTH 6 0
BBX 6 12 0 -2
BITMAP
000087
0000C0
000130
03B996
2E7055
9E0031
CB00E4
9D07F1
2CCBD0
098A80
4A2E30
088400
ENDCHAR
STARTCHAR uni01F5
ENCODING 501
SWIDTH 507 0
DWIDTH 5 0
BBX 7 9 -1 -2
BITMAP
0001C200
00033000
01BADA00
0AC0E700
0F73F400
1F68F240
0BEDD400
017E8000
03CC2000
ENDCHAR
STARTCHAR Aringacute
ENCODING 506
SWIDTH 668 0
DWIDTH 7 0
BBX 8 11 0 -1
BITMAP
00000058
000003B1
000008C0
00017CB0
000A2E80
4ACB7F50
C4E16F20
07B09D00
0D60CA00
1F20F700
0D100000
ENDCHAR
STARTCHAR aringacute
ENCODING 507
SWIDTH 526 0
DWIDTH 5 0
BBX 7 8 -1 0
BITMAP
0000A300
00059000
00045000
01BADA00
0AC0E700
0F72F400
1F67F250
0BD7EB10
ENDCHAR
STARTCHAR AEacute
ENCODING 508
SWIDTH 764 0
DWIDTH 8 0
BBX 9 11 0 -1
BITMAP
0000001C10
0000006400
0000000000
00004BDCB0
00093E9000
3ACB4F5000
D5E18FC800
48B08E0000
0D60BA1100
2F20EFFA00
1D10000000
ENDCHAR
STARTCHAR aeacute
ENCODING 509
SWIDTH 650 0
DWIDTH 7 0
BBX 7 7 0 0
BITMAP
00008600
00006000
18BCCB30
003F7A20
5BBF8300
F6AF1150
CD6DD700
ENDCHAR
STARTCHAR Oslashacute
ENCODING 510
SWIDTH 658 0
DWIDTH 7 0
BBX 7 11 0 -1
BITMAP
00000D10
00006600
00000000
0476D800
68798F20
C5F55F40
3AB73F30
0D987E00
0E89D600
07DE8000
00330000
ENDCHAR
STARTCHAR oslashacute
ENCODING 511
SWIDTH 428 0
DWIDTH 4 0
BBX 6 8 -1 -1
BITMAP
0001C1
000430
01AAA5
0AC3D0
1F99C0
1FB870
1DE900
310000
ENDCHAR
STARTCHAR uni0200
ENCODING 512
SWIDTH 668 0
DWIDTH 7 0
BBX 7 11 0 -1
BITMAP
0002A750
000074A0
00000000
00002AC0
00092E90
4ACB7F60
C4E16F20
07B09E00
0D60CA00
1F20F700
0D100000
ENDCHAR
STARTCHAR uni0201
ENCODING 513
SWIDTH 526 0
DWIDTH 5 0
BBX 7 7 -1 0
BITMAP
01C59000
00367100
01BADA00
0AC0E700
0F72F400
1F67F250
0BD7EB10
ENDCHAR
STARTCHAR uni0202
ENCODING 514
SWIDTH 668 0
DWIDTH 7 0
BBX 8 11 0 -1
BITMAP
00000797
00003408
00000000
00002AC0
00092E90
4ACB7F60
C4E16F20
07B09E00
0D60CA00
1F20F700
0D100000
ENDCHAR
STARTCHAR uni0203
ENCODING 515
SWIDTH 526 0
DWIDTH 5 0
BBX 7 7 -1 0
BITMAP
0049A700
00411400
01BADA00
0AC0E700
0F72F400
1F67F250
0BD7EB10
ENDCHAR
STARTCHAR uni0204
ENCODING 516
SWIDTH 459 0
DWIDTH 5 0
BBX 5 10 0 0
BITMAP
086C10
008350
000000
01BA90
09A1B0
07D100
2BA100
AE1000
DE1250
6EE800
ENDCHAR
STARTCHAR uni0205
ENCODING 517
SWIDTH 384 0
DWIDTH 4 0
BBX 5 7 -1 0
BITMAP
087C10
008360
01AA80
09B670
0FB600
1F6060
0BEA20
ENDCHAR
STARTCHAR uni0206
ENCODING 518
SWIDTH 459 0
DWIDTH 5 0
BBX 6 10 0 0
BITMAP
0038A3
007035
000000
01BA90
09A1B0
07D100
2BA100
AE1000
DE1250
6EE800
ENDCHAR
STARTCHAR uni0207
ENCODING 519
SWIDTH 384 0
DWIDTH 4 0
BBX 5 7 -1 0
BITMAP
0199B0
022040
01AA80
09B670
0FB600
1F6060
0BEA20
ENDCHAR
STARTCHAR uni0208
ENCODING 520
SWIDTH 375 0
DWIDTH 4 0
BBX 5 10 0 0
BITMAP
1B6800
045810
000000
04AD00
A2D900
C2F600
05F300
08E000
0BB000
0E7000
ENDCHAR
STARTCHAR uni0209
ENCODING 521
SWIDTH 267 0
DWIDTH 3 0
BBX 4 7 -1 0
BITMAP
96C0
0845
06F1
0AC0
0D90
1F66
0CD4
ENDCHAR
STARTCHAR uni020A
ENCODING 522
SWIDTH 375 0
DWIDTH 4 0
BBX 5 10 0 0
BITMAP
018960
053080
000000
05AD00
84D900
D1F600
25F300
08E000
0BB000
0E7000
ENDCHAR
STARTCHAR uni020B
ENCODING 523
SWIDTH 267 0
DWIDTH 3 0
BBX 4 7 -1 0
BITMAP
079A
0404
06F1
0AC0
0D90
1F66
0CD4
ENDCHAR
STARTCHAR uni020C
ENCODING 524
SWIDTH 665 0
DWIDTH 7 0
BBX 7 10 0 0
BITMAP
00A4A000
00287300
00000000
04889A10
699B0D60
B6F30C80
2AD00E60
0DA05F20
0D91D800
06EC8000
ENDCHAR
STARTCHAR uni020D
ENCODING 525
SWIDTH 433 0
DWIDTH 4 0
BBX 7 7 -1 0
BITMAP
096C1000
00835000
01BB7000
0AC3D630
1F72A000
3F586000
0BE90000
ENDCHAR
STARTCHAR uni020E
ENCODING 526
SWIDTH 665 0
DWIDTH 7 0
BBX 7 10 0 0
BITMAP
00048A20
00070440
00000000
04889A10
699B0D60
B6F30C80
2AD00E60
0DA05F20
0D91D800
06EC8000
ENDCHAR
STARTCHAR uni020F
ENCODING 527
SWIDTH 433 0
DWIDTH 4 0
BBX 7 7 -1 0
BITMAP
0088C200
01303200
01BB7000
0AC3D630
1F72A000
3F586000
0BE90000
ENDCHAR
STARTCHAR uni0210
ENCODING 528
SWIDTH 601 0
DWIDTH 6 0
BBX 6 10 0 0
BITMAP
077C10
008260
000000
178996
C3C86A
61FAE2
04F1E6
08D1F4
0BA4F1
0E74F1
ENDCHAR
STARTCHAR uni0211
ENCODING 529
SWIDTH 376 0
DWIDTH 4 0
BBX 5 7 -1 0
BITMAP
1C6800
035810
06FAB0
0AC140
0D9000
1F6000
4F2000
ENDCHAR
STARTCHAR uni0212
ENCODING 530
SWIDTH 601 0
DWIDTH 6 0
BBX 6 10 0 0
BITMAP
0038A3
007135
000000
178996
C3C86A
61FAE2
04F1E6
08D1F4
0BA4F1
0E74F1
ENDCHAR
STARTCHAR uni0213
ENCODING 531
SWIDTH 376 0
DWIDTH 4 0
BBX 6 7 -1 0
BITMAP
0199B0
022041
06FAB0
0AC140
0D9000
1F6000
4F2000
ENDCHAR
STARTCHAR uni0214
ENCODING 532
SWIDTH 716 0
DWIDTH 7 0
BBX 8 10 0 0
BITMAP
001B5800
00046910
00000000
07AE10E7
A49C03F3
D0D707F0
22F30AB0
05E00E70
07E07E10
03DED400
ENDCHAR
STARTCHAR uni0215
ENCODING 533
SWIDTH 505 0
DWIDTH 5 0
BBX 7 7 -1 0
BITMAP
078C2000
00827000
06F1E700
0AC3F400
0D96F100
1F6BD230
0CD7E900
ENDCHAR
STARTCHAR uni0216
ENCODING 534
SWIDTH 716 0
DWIDTH 7 0
BBX 8 10 0 0
BITMAP
00007970
00034080
00000000
07AE10E7
A49C03F3
D0D707F0
22F30AB0
05E00E70
07E07E10
03DED400
ENDCHAR
STARTCHAR uni0217
ENCODING 535
SWIDTH 505 0
DWIDTH 5 0
BBX 7 7 -1 0
BITMAP
0078B300
00402200
06F1E700
0AC3F400
0D96F100
1F6BD230
0CD7E900
ENDCHAR
STARTCHAR Scommaaccent
ENCODING 536
SWIDTH 570 0
DWIDTH 6 0
BBX 6 10 0 -3
BITMAP
01A9A3
07F196
03F810
006F70
4D49F1
9807E1
2BBC40
024000
028000
010000
ENDCHAR
STARTCHAR scommaaccent
ENCODING 537
SWIDTH 382 0
DWIDTH 4 0
BBX 5 9 -1 -3
BITMAP
003500
00CF00
03AF10
086F20
486F70
1BD700
033000
056000
010000
ENDCHAR
STARTCHAR uni021A
ENCODING 538
SWIDTH 481 0
DWIDTH 5 0
BBX 8 10 0 -3
BITMAP
19CFEFE1
B53F4000
D06F1000
109C0000
00D90000
01F50000
05F20000
02400000
02800000
01000000
ENDCHAR
STARTCHAR uni021B
ENCODING 539
SWIDTH 267 0
DWIDTH 3 0
BBX 4 10 -1 -3
BITMAP
0063
03F3
08F4
0AC0
0D90
1F66
0CD4
0600
0A00
0100
ENDCHAR
STARTCHAR uni021E
ENCODING 542
SWIDTH 665 0
DWIDTH 7 0
BBX 7 11 0 0
BITMAP
00007570
00005800
00000000
00000000
128D0AC0
A2D90E90
72FCCF60
04F26F20
07E09E00
0BB0CA00
0E80F700
ENDCHAR
STARTCHAR uni021F
ENCODING 543
SWIDTH 600 0
DWIDTH 6 0
BBX 7 10 -1 0
BITMAP
00018840
0000A300
00000000
00B60000
03F40000
06FCE200
09D3F400
0D95F100
1F68D230
4F25E900
ENDCHAR
STARTCHAR uni0237
ENCODING 567
SWIDTH 240 0
DWIDTH 2 0
BBX 5 7 -2 -2
BITMAP
006F00
00AC00
00D800
02F560
06F600
8BD000
BE5000
ENDCHAR
STARTCHAR uni0259
ENCODING 601
SWIDTH 404 0
DWIDTH 4 0
BBX 4 5 0 0
BITMAP
3CE5
20BC
18DB
B3E5
BA70
ENDCHAR
STARTCHAR uni0292
ENCODING 658
SWIDTH 442 0
DWIDTH 4 0
BBX 5 7 0 -2
BITMAP
7AEB00
35E200
0E7000
0AA060
08F510
8BD000
AD5000
ENDCHAR
STARTCHAR uni02BB
ENCODING 699
SWIDTH 241 0
DWIDTH 2 0
BBX 2 3 1 5
BITMAP
01
64
97
ENDCHAR
STARTCHAR uni02BC
ENCODING 700
SWIDTH 228 0
DWIDTH 2 0
BBX 2 2 1 6
BITMAP
69
45
ENDCHAR
STARTCHAR circumflex
ENCODING 710
SWIDTH 293 0
DWIDTH 3 0
BBX 3 2 0 6
BITMAP
0670
6780
ENDCHAR
STARTCHAR caron
ENCODING 711
SWIDTH 294 0
DWIDTH 3 0
BBX 3 2 1 6
BITMAP
8750
8500
ENDCHAR
STARTCHAR uni02C9
ENCODING 713
SWIDTH 421 0
DWIDTH 4 0
BBX 4 1 1 6
BITMAP
8BB6
ENDCHAR
STARTCHAR uni02CA
ENCODING 714
SWIDTH 256 0
DWIDTH 3 0
BBX 2 2 1 6
BITMAP
2B
82
ENDCHAR
STARTCHAR uni02CB
ENCODING 715
SWIDTH 274 0
DWIDTH 3 0
BBX 2 2 1 6
BITMAP
39
0A
ENDCHAR
STARTCHAR breve
ENCODING 728
SWIDTH 431 0
DWIDTH 4 0
BBX 5 2 0 5
BITMAP
260620
198600
ENDCHAR
STARTCHAR dotaccent
ENCODING 729
SWIDTH 250 0
DWIDTH 3 0
BBX 3 2 0 6
BITMAP
3B00
4E10
ENDCHAR
STARTCHAR ring
ENCODING 730
SWIDTH 156 0
DWIDTH 2 0
BBX 2 2 0 5
BITMAP
64
74
ENDCHAR
STARTCHAR ogonek
ENCODING 731
SWIDTH 291 0
DWIDTH 3 0
BBX 3 3 0 -2
BITMAP
1500
7510
4B30
ENDCHAR
STARTCHAR tilde
ENCODING 732
SWIDTH 403 0
DWIDTH 4 0
BBX 5 1 0 6
BITMAP
17EC20
ENDCHAR
STARTCHAR hungarumlaut
ENCODING 733
SWIDTH 436 0
DWIDTH 4 0
BBX 4 2 1 6
BITMAP
57A2
A460
ENDCHAR
STARTCHAR gravecomb
ENCODING 768
SWIDTH 0 0
DWIDTH 0 0
BBX 2 2 -2 6
BITMAP
84
37
ENDCHAR
STARTCHAR acutecomb
ENCODING 769
SWIDTH 0 0
DWIDTH 0 0
BBX 2 2 -2 6
BITMAP
4A
91
ENDCHAR
STARTCHAR uni0302
ENCODING 770
SWIDTH 0 0
DWIDTH 0 0
BBX 4 2 -3 6
BITMAP
04A0
4881
ENDCHAR
STARTCHAR tildecomb
ENCODING 771
SWIDTH 0 0
DWIDTH 0 0
BBX 5 1 -4 6
BITMAP
18EC20
ENDCHAR
STARTCHAR uni0304
ENCODING 772
SWIDTH 0 0
DWIDTH 0 0
BBX 4 1 -3 6
BITMAP
ABB3
ENDCHAR
STARTCHAR uni0306
ENCODING 774
SWIDTH 0 0
DWIDTH 0 0
BBX 5 2 -4 5
BITMAP
170530
089700
ENDCHAR
STARTCHAR uni0307
ENCODING 775
SWIDTH 0 0
DWIDTH 0 0
BBX 3 2 -2 6
BITMAP
1B20
1E30
ENDCHAR
STARTCHAR uni0308
ENCODING 776
SWIDTH 0 0
DWIDTH 0 0
BBX 4 1 -3 6
BITMAP
6482
ENDCHAR
STARTCHAR hookabovecomb
ENCODING 777
SWIDTH 0 0
DWIDTH 0 0
BBX 3 2 -3 5
BITMAP
1760
0840
ENDCHAR
STARTCHAR uni030A
ENCODING 778
SWIDTH 0 0
DWIDTH 0 0
BBX 3 2 -2 5
BITMAP
1820
2810
ENDCHAR
STARTCHAR uni030B
ENCODING 779
SWIDTH 0 0
DWIDTH 0 0
BBX 4 2 -3 6
BITMAP
4893
A380
ENDCHAR
STARTCHAR uni030C
ENCODING 780
SWIDTH 0 0
DWIDTH 0 0
BBX 4 2 -3 6
BITMAP
3682
0B20
ENDCHAR
STARTCHAR uni030F
ENCODING 783
SWIDTH 0 0
DWIDTH 0 0
BBX 4 2 -4 6
BITMAP
2A66
065A
ENDCHAR
STARTCHAR uni0311
ENCODING 785
SWIDTH 0 0
DWIDTH 0 0
BBX 5 2 -4 5
BITMAP
079800
350710
ENDCHAR
STARTCHAR uni031B
ENCODING 795
SWIDTH 0 0
DWIDTH 0 0
BBX 3 3 -2 4
BITMAP
0930
1A00
0100
ENDCHAR
STARTCHAR dotbelowcomb
ENCODING 803
SWIDTH 0 0
DWIDTH 0 0
BBX 2 2 -2 -2
BITMAP
87
A8
ENDCHAR
STARTCHAR uni0324
ENCODING 804
SWIDTH 0 0
DWIDTH 0 0
BBX 4 1 -5 -2
BITMAP
3745
ENDCHAR
STARTCHAR uni0326
ENCODING 806
SWIDTH 0 0
DWIDTH 0 0
BBX 2 2 -3 -3
BITMAP
49
23
ENDCHAR
STARTCHAR uni0327
ENCODING 807
SWIDTH 0 0
DWIDTH 0 0
BBX 3 3 -4 -2
BITMAP
0810
1790
4830
ENDCHAR
STARTCHAR uni0328
ENCODING 808
SWIDTH 0 0
DWIDTH 0 0
BBX 3 3 -4 -2
BITMAP
1500
7520
4B30
ENDCHAR
STARTCHAR uni032E
ENCODING 814
SWIDTH 0 0
DWIDTH 0 0
BBX 4 2 -5 -2
BITMAP
1404
0873
ENDCHAR
STARTCHAR uni0331
ENCODING 817
SWIDTH 0 0
DWIDTH 0 0
BBX 4 1 -5 -2
BITMAP
6BB8
ENDCHAR
STARTCHAR uni0335
ENCODING 821
SWIDTH 0 0
DWIDTH 0 0
BBX 4 1 -4 2
BITMAP
6774
ENDCHAR
STARTCHAR uni0394
ENCODING 916
SWIDTH 619 0
DWIDTH 6 0
BBX 7 8 0 0
BITMAP
00019100
0009E300
003AA600
00B27800
05805A00
1C103D00
86001F00
BCCCCD10
ENDCHAR
STARTCHAR uni03A9
ENCODING 937
SWIDTH 745 0
DWIDTH 7 0
BBX 7 8 0 0
BITMAP
0019DC30
01C405C0
094000D0
0D0000D0
1C0003A0
0C000930
06606500
8CA2DC50
ENDCHAR
STARTCHAR uni03BC
ENCODING 956
SWIDTH 505 0
DWIDTH 5 0
BBX 7 8 -1 -2
BITMAP
00101000
06F1E700
0AC3F400
0D96F100
1F7BD340
4FC6D800
8E000000
54000000
ENDCHAR
STARTCHAR pi
ENCODING 960
SWIDTH 530 0
DWIDTH 5 0
BBX 7 5 -1 0
BITMAP
1CDCDC30
0480C100
0841B000
0B148000
09037000
ENDCHAR
STARTCHAR uni0400
ENCODING 1024
SWIDTH 459 0
DWIDTH 5 0
BBX 5 10 0 0
BITMAP
002A00
000A00
000000
01BA90
09A1B0
07D100
2BA100
AE1000
DE1250
6EE800
ENDCHAR
STARTCHAR uni0401
ENCODING 1025
SWIDTH 459 0
DWIDTH 5 0
BBX 6 9 0 0
BITMAP
006482
000000
01BA90
09A1B0
07D100
2BA100
AE1000
DE1250
6EE800
ENDCHAR
STARTCHAR uni0402
ENCODING 1026
SWIDTH 725 0
DWIDTH 7 0
BBX 8 9 0 -2
BITMAP
2ACFFFE2
B52F4000
715FAC30
009C0E80
00C80E70
01F52F40
04F27E00
0001D700
003EA000
ENDCHAR
STARTCHAR uni0403
ENCODING 1027
SWIDTH 400 0
DWIDTH 4 0
BBX 7 10 0 0
BITMAP
00002C00
00008200
00000000
18CFFF30
A6BB1200
C3E70000
24F40000
06F10000
0AC00000
0D900000
ENDCHAR
STARTCHAR uni0404
ENCODING 1028
SWIDTH 497 0
DWIDTH 5 0
BBX 6 7 0 0
BITMAP
02A9A2
0C9062
5FBA00
AE0000
CD0000
BF2061
3DEB20
ENDCHAR
STARTCHAR uni0405
ENCODING 1029
SWIDTH 570 0
DWIDTH 6 0
BBX 6 7 0 0
BITMAP
01A9A3
07F196
03F810
006F70
4D49F1
9807E1
2BBC40
ENDCHAR
STARTCHAR uni0406
ENCODING 1030
SWIDTH 374 0
DWIDTH 4 0
BBX 4 7 0 0
BITMAP
05AD
75CA
C2F7
24F4
07F0
0AC0
0D80
ENDCHAR
STARTCHAR uni0407
ENCODING 1031
SWIDTH 375 0
DWIDTH 4 0
BBX 5 9 0 0
BITMAP
009280
000000
05AD00
84D900
D1F600
25F300
08E000
0BB000
0E7000
ENDCHAR
STARTCHAR uni0408
ENCODING 1032
SWIDTH 536 0
DWIDTH 5 0
BBX 6 9 0 -2
BITMAP
0017CA
00B3F6
01C4F3
0027E0
000BB0
000E80
5B6F40
C38D00
488200
ENDCHAR
STARTCHAR uni0409
ENCODING 1033
SWIDTH 817 0
DWIDTH 8 0
BBX 9 8 -1 -1
BITMAP
00005D9000
00074F5000
00594F9B30
01D27D0AB0
08A0AA0AB0
0E40E81D70
3F12F8EB00
2D00000000
ENDCHAR
STARTCHAR uni040A
ENCODING 1034
SWIDTH 931 0
DWIDTH 9 0
BBX 9 7 0 0
BITMAP
16AD0AC000
B3C90E7000
61FCCFAB40
03F17F08D0
07E09C08D0
0AB0CA1B90
0D80F8DC10
ENDCHAR
STARTCHAR uni040B
ENCODING 1035
SWIDTH 745 0
DWIDTH 7 0
BBX 8 7 0 0
BITMAP
2ACFFFE2
B52F4000
715FAC30
009C0E80
00C80F70
01F53F40
04F23F40
ENDCHAR
STARTCHAR uni040C
ENCODING 1036
SWIDTH 635 0
DWIDTH 6 0
BBX 7 10 0 0
BITMAP
00001C00
00007300
00000000
17BD4DA0
B4BC9230
61ECA200
03F1D700
06E0F500
0AB4F200
0D84F200
ENDCHAR
STARTCHAR uni040D
ENCODING 1037
SWIDTH 705 0
DWIDTH 7 0
BBX 8 10 0 0
BITMAP
0000B100
00007300
00000000
05AD06F3
75CB1EF0
C2F79DC0
24F79D80
07FB3F50
0AF55F10
0DB09D00
ENDCHAR
STARTCHAR uni040E
ENCODING 1038
SWIDTH 644 0
DWIDTH 6 0
BBX 7 10 0 0
BITMAP
00039060
00029820
00000000
06AF20A0
863F6370
C10EA910
1009E800
0005F200
00439000
00BC1000
ENDCHAR
STARTCHAR uni040F
ENCODING 1039
SWIDTH 665 0
DWIDTH 7 0
BBX 7 11 0 -4
BITMAP
05AD09C0
85CA0D90
C2F71F60
24F35F20
07F08E00
0AC0BA00
0DEBF700
00820000
00C90000
00490000
00100000
ENDCHAR
STARTCHAR uni0410
ENCODING 1040
SWIDTH 668 0
DWIDTH 7 0
BBX 7 8 0 -1
BITMAP
00002AC0
00092E90
4ACB7F60
C4E16F20
07B09E00
0D60CA00
1F20F700
0D100000
ENDCHAR
STARTCHAR uni0411
ENCODING 1041
SWIDTH 638 0
DWIDTH 6 0
BBX 7 7 0 0
BITMAP
3ADFFF30
D2D81200
72F9B300
05E09C00
09C08D00
0C91C900
1F8DC100
ENDCHAR
STARTCHAR uni0412
ENCODING 1042
SWIDTH 641 0
DWIDTH 6 0
BBX 6 7 0 0
BITMAP
078996
A5B95B
81EAE6
03F26E
07E06E
0AB1AB
0D9DD2
ENDCHAR
STARTCHAR uni0413
ENCODING 1043
SWIDTH 400 0
DWIDTH 4 0
BBX 7 7 0 0
BITMAP
18CFFF30
A6BB1200
C3E70000
24F40000
06F10000
0AC00000
0D900000
ENDCHAR
STARTCHAR uni0414
ENCODING 1044
SWIDTH 669 0
DWIDTH 7 0
BBX 8 7 -1 0
BITMAP
00788970
0A6CA0E4
092F70E7
005F31F6
06BE04F3
36CB0CB0
1CD7DB10
ENDCHAR
STARTCHAR uni0415
ENCODING 1045
SWIDTH 459 0
DWIDTH 5 0
BBX 5 7 0 0
BITMAP
01BA90
09A1B0
07D100
2BA100
AE1000
DE1250
6EE800
ENDCHAR
STARTCHAR uni0416
ENCODING 1046
SWIDTH 777 0
DWIDTH 8 0
BBX 10 7 -1 0
BITMAP
00DB1C59E2
00497F8640
0007BEA000
01CAECBC00
06E1F77E00
09A3F4BA00
2E56F1B900
ENDCHAR
STARTCHAR uni0417
ENCODING 1047
SWIDTH 525 0
DWIDTH 5 0
BBX 5 7 0 0
BITMAP
069D90
020BC0
04DD20
001F90
310EA0
E03F60
AAC700
ENDCHAR
STARTCHAR uni0418
ENCODING 1048
SWIDTH 705 0
DWIDTH 7 0
BBX 8 7 0 0
BITMAP
05AD06F3
75CB1EF0
C2F79DC0
24F79D80
07FB3F50
0AF55F10
0DB09D00
ENDCHAR
STARTCHAR uni0419
ENCODING 1049
SWIDTH 705 0
DWIDTH 7 0
BBX 8 10 0 0
BITMAP
00048060
00039810
00000000
05AD06F3
75CB1EF0
C2F79DC0
24F79D80
07FB3F50
0AF55F10
0DB09D00
ENDCHAR
STARTCHAR uni041A
ENCODING 1050
SWIDTH 635 0
DWIDTH 6 0
BBX 7 7 0 0
BITMAP
17BD4DA0
B4BC9230
61ECA200
03F1D700
06E0F500
0AB4F200
0D84F200
ENDCHAR
STARTCHAR uni041B
ENCODING 1051
SWIDTH 549 0
DWIDTH 5 0
BBX 7 8 -1 -1
BITMAP
00006D90
00076E70
005A3F40
01E37F10
08B0AC00
0E50D800
3F12F500
2D000000
ENDCHAR
STARTCHAR uni041C
ENCODING 1052
SWIDTH 787 0
DWIDTH 8 0
BBX 8 7 0 0
BITMAP
016E909E
1B4F81FC
4A9F87FA
03CE7BE8
067EC7F5
0B1FE4F3
2A1F86F1
ENDCHAR
STARTCHAR uni041D
ENCODING 1053
SWIDTH 665 0
DWIDTH 7 0
BBX 7 7 0 0
BITMAP
128D0AC0
A2D90E90
72FCCF60
04F26F20
07E09E00
0BB0CA00
0E80F700
ENDCHAR
STARTCHAR uni041E
ENCODING 1054
SWIDTH 665 0
DWIDTH 7 0
BBX 7 7 0 0
BITMAP
04889A10
699B0D60
B6F30C80
2AD00E60
0DA05F20
0D91D800
06EC8000
ENDCHAR
STARTCHAR uni041F
ENCODING 1055
SWIDTH 688 0
DWIDTH 7 0
BBX 8 7 0 0
BITMAP
18CEDEEA
A4CA0D90
C2F71F60
14F35F20
07F08E00
0AC0BA00
0D80E700
ENDCHAR
STARTCHAR uni0420
ENCODING 1056
SWIDTH 573 0
DWIDTH 6 0
BBX 6 7 0 0
BITMAP
0678A4
85CA4D
D1F66C
24F5C3
07E410
0BB000
0E7000
ENDCHAR
STARTCHAR uni0421
ENCODING 1057
SWIDTH 497 0
DWIDTH 5 0
BBX 6 7 0 0
BITMAP
02B9A2
0CB094
5F4000
AE0000
CD0000
BE2151
3DEB30
ENDCHAR
STARTCHAR uni0422
ENCODING 1058
SWIDTH 481 0
DWIDTH 5 0
BBX 8 7 0 0
BITMAP
19CFEFE1
B53F4000
D06F1000
109C0000
00D90000
01F50000
05F20000
ENDCHAR
STARTCHAR uni0423
ENCODING 1059
SWIDTH 644 0
DWIDTH 6 0
BBX 7 7 0 0
BITMAP
06AF20A0
863F6370
C10EA910
1009E800
0005F200
00439000
00BC1000
ENDCHAR
STARTCHAR uni0424
ENCODING 1060
SWIDTH 786 0
DWIDTH 8 0
BBX 8 8 0 0
BITMAP
0287A400
0933F400
0438F980
5C0BC0D7
B90E80D7
9B2F56E1
18BF8810
008E0000
ENDCHAR
STARTCHAR uni0425
ENCODING 1061
SWIDTH 620 0
DWIDTH 6 0
BBX 7 7 0 0
BITMAP
06BF1910
865F9500
D02FB000
200DB000
002EE000
0097F300
0543F600
ENDCHAR
STARTCHAR uni0426
ENCODING 1062
SWIDTH 692 0
DWIDTH 7 0
BBX 7 9 0 -2
BITMAP
06BD09C0
86BA0D90
C1E71F50
24F35F20
06F08D00
0AC0CA00
0DD8F610
0015CFE0
00000210
ENDCHAR
STARTCHAR uni0427
ENCODING 1063
SWIDTH 695 0
DWIDTH 7 0
BBX 8 7 0 0
BITMAP
06BD05F2
86BA08D0
C1E70CA0
10DEBF70
00377F30
00006F00
0000AC00
ENDCHAR
STARTCHAR uni0428
ENCODING 1064
SWIDTH 906 0
DWIDTH 9 0
BBX 10 7 0 0
BITMAP
05AD0E83F3
85CA2F47F0
C2F76F1AC0
24F39D0D80
07F0C92F50
0AC1F65F20
0DECFCDD00
ENDCHAR
STARTCHAR uni0429
ENCODING 1065
SWIDTH 934 0
DWIDTH 9 0
BBX 10 9 0 -2
BITMAP
06BD0E83F3
77BA2F47E0
C2E76F1AB0
24F49D0D80
07F0D92F40
0AC1F65F10
0EDBF69C10
00136AEFF6
0000000230
ENDCHAR
STARTCHAR uni042A
ENCODING 1066
SWIDTH 714 0
DWIDTH 7 0
BBX 7 7 0 0
BITMAP
19BE9000
B30F5000
833F9B20
007D0BA0
00AA0AB0
00E81D70
02F7EB00
ENDCHAR
STARTCHAR uni042B
ENCODING 1067
SWIDTH 909 0
DWIDTH 9 0
BBX 10 7 0 0
BITMAP
17BD0003F4
B3C90006F1
61FAB50AC0
03F27E0D90
07E06F2F50
0AB1AB5F20
0D9DD28E00
ENDCHAR
STARTCHAR uni042C
ENCODING 1068
SWIDTH 640 0
DWIDTH 6 0
BBX 6 7 0 0
BITMAP
17BD00
B3C900
61FAB5
03F27E
07E06F
0AB1AB
0D9DD2
ENDCHAR
STARTCHAR uni042D
ENCODING 1069
SWIDTH 544 0
DWIDTH 5 0
BBX 7 7 -1 0
BITMAP
007CE900
02206F40
005BCF50
00009F30
0400DD00
1D05F500
098C5000
ENDCHAR
STARTCHAR uni042E
ENCODING 1070
SWIDTH 946 0
DWIDTH 9 0
BBX 10 7 0 0
BITMAP
17BD05BB80
A4B92D71F3
71ECEE10F5
03F2EA02F3
06E1F707E0
0AB0F72E50
0D808DC600
ENDCHAR
STARTCHAR uni042F
ENCODING 1071
SWIDTH 630 0
DWIDTH 6 0
BBX 8 7 -1 0
BITMAP
00199895
00B64F3D
00C48E02
009CDB00
05E1F700
09A3F400
1D56F100
ENDCHAR
STARTCHAR uni0430
ENCODING 1072
SWIDTH 526 0
DWIDTH 5 0
BBX 7 5 -1 0
BITMAP
01BADA00
0AC0E700
0F72F400
1F67F250
0BD7EB10
ENDCHAR
STARTCHAR uni0431
ENCODING 1073
SWIDTH 430 0
DWIDTH 4 0
BBX 7 8 -1 0
BITMAP
00011100
005FFF60
001C4200
008B8000
09D0C000
1F72C000
1F577000
0AE90000
ENDCHAR
STARTCHAR uni0432
ENCODING 1074
SWIDTH 449 0
DWIDTH 4 0
BBX 7 7 -1 0
BITMAP
003CB000
00D69000
06E18000
0CACB720
1F72D000
1F64A000
0AEB1000
ENDCHAR
STARTCHAR uni0433
ENCODING 1075
SWIDTH 375 0
DWIDTH 4 0
BBX 5 5 -1 0
BITMAP
04DE30
073F50
04D800
1F7050
1DEA10
ENDCHAR
STARTCHAR uni0434
ENCODING 1076
SWIDTH 507 0
DWIDTH 5 0
BBX 7 7 -1 -2
BITMAP
01BADA00
0AC0E700
0F73F400
1F68F240
0BEDD400
017E8000
03CC2000
ENDCHAR
STARTCHAR uni0435
ENCODING 1077
SWIDTH 384 0
DWIDTH 4 0
BBX 5 5 -1 0
BITMAP
01AA80
09B670
0FB600
1F6060
0BEA20
ENDCHAR
STARTCHAR uni0436
ENCODING 1078
SWIDTH 882 0
DWIDTH 9 0
BBX 11 5 -1 0
BITMAP
06CA0F57B700
042F4F5E2500
003FBFCA0000
257B9B9A0510
3BB2D84EA400
ENDCHAR
STARTCHAR uni0437
ENCODING 1079
SWIDTH 498 0
DWIDTH 5 0
BBX 6 7 0 -2
BITMAP
0AEC10
635F30
708D10
09E243
01FA40
38F700
4CB100
ENDCHAR
STARTCHAR uni0438
ENCODING 1080
SWIDTH 505 0
DWIDTH 5 0
BBX 7 5 -1 0
BITMAP
06F1E700
0AC3F400
0D96F100
1F6BD230
0CD7E900
ENDCHAR
STARTCHAR uni0439
ENCODING 1081
SWIDTH 505 0
DWIDTH 5 0
BBX 7 7 -1 0
BITMAP
00751500
00597000
06F1E700
0AC3F400
0D96F100
1F6BD230
0CD7E900
ENDCHAR
STARTCHAR uni043A
ENCODING 1082
SWIDTH 501 0
DWIDTH 5 0
BBX 7 5 -1 0
BITMAP
06F2AA00
0ADA2100
0DCCC000
1F58C230
4F25E900
ENDCHAR
STARTCHAR uni043B
ENCODING 1083
SWIDTH 558 0
DWIDTH 6 0
BBX 7 5 -1 0
BITMAP
0006BF00
00089C00
0034C900
3871F660
2A80CD40
ENDCHAR
STARTCHAR uni043C
ENCODING 1084
SWIDTH 827 0
DWIDTH 8 0
BBX 10 5 -1 0
BITMAP
0006E21EA0
0009F38F70
0045F5AF40
3871EC6F25
2A80D92EC1
ENDCHAR
STARTCHAR uni043D
ENCODING 1085
SWIDTH 507 0
DWIDTH 5 0
BBX 7 5 -1 0
BITMAP
06F1D700
0AC1F400
0DDAF100
1F67D230
4F35EA00
ENDCHAR
STARTCHAR uni043E
ENCODING 1086
SWIDTH 439 0
DWIDTH 4 0
BBX 7 5 -1 0
BITMAP
01AB8000
09D2D630
0F71B000
2F677000
0BEA0000
ENDCHAR
STARTCHAR uni043F
ENCODING 1087
SWIDTH 505 0
DWIDTH 5 0
BBX 7 5 -1 0
BITMAP
06FCE200
0AD3F400
0D95F100
1F68D230
4F25E900
ENDCHAR
STARTCHAR uni0440
ENCODING 1088
SWIDTH 468 0
DWIDTH 5 0
BBX 6 9 -1 -3
BITMAP
028100
07FAE3
0AC0F6
0D91F4
1F67E1
4FDD50
8E0000
BB0000
410000
ENDCHAR
STARTCHAR uni0441
ENCODING 1089
SWIDTH 384 0
DWIDTH 4 0
BBX 5 5 -1 0
BITMAP
01AA70
09C150
0F7000
1F6060
0BEA20
ENDCHAR
STARTCHAR uni0442
ENCODING 1090
SWIDTH 752 0
DWIDTH 8 0
BBX 9 5 -1 0
BITMAP
06FBE7E800
0AD3F5BB00
0D96F1D800
1F69D1F550
4F2CA0CD30
ENDCHAR
STARTCHAR uni0443
ENCODING 1091
SWIDTH 486 0
DWIDTH 5 0
BBX 7 7 -1 -2
BITMAP
06F1E700
0AC3F400
0D96F100
1F6BC410
0CDEB300
038F5000
06DB0000
ENDCHAR
STARTCHAR uni0444
ENCODING 1092
SWIDTH 738 0
DWIDTH 7 0
BBX 8 10 -1 -3
BITMAP
00004C00
00008C00
01BADCCA
09C0E56E
0F73F28D
2F68E1E9
0BEDEEB1
000D7000
001F4000
00130000
ENDCHAR
STARTCHAR uni0445
ENCODING 1093
SWIDTH 522 0
DWIDTH 5 0
BBX 6 6 0 0
BITMAP
0002B0
09E3A0
51DA60
60CB00
15CC15
463EA1
ENDCHAR
STARTCHAR uni0446
ENCODING 1094
SWIDTH 535 0
DWIDTH 5 0
BBX 6 7 -1 -2
BITMAP
06F1E7
0AC3F4
0D96F1
1F6BD0
0CD8F9
00AFF4
016310
ENDCHAR
STARTCHAR uni0447
ENCODING 1095
SWIDTH 505 0
DWIDTH 5 0
BBX 6 5 0 0
BITMAP
6F1E70
AC3F40
ADCF10
269D33
006E90
ENDCHAR
STARTCHAR uni0448
ENCODING 1096
SWIDTH 752 0
DWIDTH 8 0
BBX 9 5 -1 0
BITMAP
06F1E77E00
0AC3F4BB00
0D96F1E800
1F6BD4F560
0CD7E8CD30
ENDCHAR
STARTCHAR uni0449
ENCODING 1097
SWIDTH 782 0
DWIDTH 8 0
BBX 9 7 -1 -2
BITMAP
06F1E77E00
0AC3F4BB00
0D96F1E800
1F6BD4F500
0CD7E8DF20
00005FFB00
0000843000
ENDCHAR
STARTCHAR uni044A
ENCODING 1098
SWIDTH 448 0
DWIDTH 4 0
BBX 5 5 0 0
BITMAP
BB8000
6DB900
A84F10
F68D00
AEB200
ENDCHAR
STARTCHAR uni044B
ENCODING 1099
SWIDTH 655 0
DWIDTH 7 0
BBX 7 5 0 0
BITMAP
6E028E00
ABC9AB00
D849D800
F586F560
BE90CD30
ENDCHAR
STARTCHAR uni044C
ENCODING 1100
SWIDTH 448 0
DWIDTH 4 0
BBX 4 5 0 0
BITMAP
6F10
AE85
DA7F
F67D
AEC3
ENDCHAR
STARTCHAR uni044D
ENCODING 1101
SWIDTH 413 0
DWIDTH 4 0
BBX 5 5 -1 0
BITMAP
04CE50
050CA0
009E90
443F30
5AB500
ENDCHAR
STARTCHAR uni044E
ENCODING 1102
SWIDTH 675 0
DWIDTH 7 0
BBX 9 5 -1 0
BITMAP
06F16BA000
0AD3F3C750
0DDCD0B100
1F6BB2B000
4F36EC3000
ENDCHAR
STARTCHAR uni044F
ENCODING 1103
SWIDTH 527 0
DWIDTH 5 0
BBX 7 5 -1 0
BITMAP
009ADA00
04E0D700
01BAF400
4A96F260
3B82EB10
ENDCHAR
STARTCHAR uni0450
ENCODING 1104
SWIDTH 384 0
DWIDTH 4 0
BBX 5 8 -1 0
BITMAP
004800
000A00
000000
01AA80
09B670
0FB600
1F6060
0BEA20
ENDCHAR
STARTCHAR uni0451
ENCODING 1105
SWIDTH 384 0
DWIDTH 4 0
BBX 6 7 -1 0
BITMAP
007391
000000
01AA80
09B670
0FB600
1F6060
0BEA20
ENDCHAR
STARTCHAR uni0452
ENCODING 1106
SWIDTH 491 0
DWIDTH 5 0
BBX 7 10 -1 -2
BITMAP
00110000
01F60000
08F93000
07FCC000
0AC5F200
0D87E010
1F5AC410
4F6E9200
05AF4000
05CA0000
ENDCHAR
STARTCHAR uni0453
ENCODING 1107
SWIDTH 375 0
DWIDTH 4 0
BBX 5 8 -1 0
BITMAP
0003B0
000910
000000
04DE30
073F50
04D800
1F7050
1DEA10
ENDCHAR
STARTCHAR uni0454
ENCODING 1108
SWIDTH 384 0
DWIDTH 4 0
BBX 5 5 -1 0
BITMAP
01AA70
09D150
0FC600
1F6050
0BEA30
ENDCHAR
STARTCHAR uni0455
ENCODING 1109
SWIDTH 382 0
DWIDTH 4 0
BBX 5 6 -1 0
BITMAP
003500
00CF00
03AF10
086F20
486F70
1BD700
ENDCHAR
STARTCHAR uni0456
ENCODING 1110
SWIDTH 267 0
DWIDTH 3 0
BBX 4 7 -1 0
BITMAP
01D4
0062
06F1
0AC0
0D90
1F66
0CD4
ENDCHAR
STARTCHAR uni0457
ENCODING 1111
SWIDTH 267 0
DWIDTH 3 0
BBX 5 7 -1 0
BITMAP
0A4D10
010100
06F100
0AC000
0D9000
1F6600
0CD400
ENDCHAR
STARTCHAR uni0458
ENCODING 1112
SWIDTH 240 0
DWIDTH 2 0
BBX 5 9 -2 -2
BITMAP
001D30
000710
006F00
00AC00
00D800
02F560
06F600
8BD000
BE5000
ENDCHAR
STARTCHAR uni0459
ENCODING 1113
SWIDTH 745 0
DWIDTH 7 0
BBX 8 5 -1 0
BITMAP
0007CF00
001A8E85
0046CA7F
3882F68D
3B90AEC3
ENDCHAR
STARTCHAR uni045A
ENCODING 1114
SWIDTH 694 0
DWIDTH 7 0
BBX 8 5 -1 0
BITMAP
06F1D700
0AC1F850
0DDAF7E7
1F67D1E5
4F34ED80
ENDCHAR
STARTCHAR uni045B
ENCODING 1115
SWIDTH 505 0
DWIDTH 5 0
BBX 7 8 -1 0
BITMAP
00110000
01F60000
08F93000
07F00000
0AECC100
0DB5F100
1F67D230
4F35EA00
ENDCHAR
STARTCHAR uni045C
ENCODING 1116
SWIDTH 501 0
DWIDTH 5 0
BBX 7 8 -1 0
BITMAP
0000B300
00037000
00000000
06F2AA00
0ADA2100
0DCCC000
1F58C230
4F25E900
ENDCHAR
STARTCHAR uni045D
ENCODING 1117
SWIDTH 505 0
DWIDTH 5 0
BBX 7 8 -1 0
BITMAP
001B0000
000A0000
00000000
06F1E700
0AC3F400
0D96F100
1F6BD230
0CD7E900
ENDCHAR
STARTCHAR uni045E
ENCODING 1118
SWIDTH 486 0
DWIDTH 5 0
BBX 7 9 -1 -2
BITMAP
00751500
00697000
06F1E700
0AC3F400
0D96F100
1F6BC410
0CDEB300
038F5000
06DB0000
ENDCHAR
STARTCHAR uni045F
ENCODING 1119
SWIDTH 505 0
DWIDTH 5 0
BBX 7 8 -1 -3
BITMAP
06F1E700
0AC3F400
0D96F100
1F6BD230
0CD7E900
00370000
005C0000
00020000
ENDCHAR
STARTCHAR uni0462
ENCODING 1122
SWIDTH 659 0
DWIDTH 7 0
BBX 7 7 0 0
BITMAP
00AC0000
7CFFED20
93FAC400
05E09C00
08C08D00
0CA1C900
0F8DC100
ENDCHAR
STARTCHAR uni0463
ENCODING 1123
SWIDTH 692 0
DWIDTH 7 0
BBX 8 5 -1 0
BITMAP
06FCE200
0AD3FCC2
0D95F0D7
1F68D2F4
4F24ED70
ENDCHAR
STARTCHAR uni046A
ENCODING 1130
SWIDTH 834 0
DWIDTH 8 0
BBX 8 7 0 0
BITMAP
058ED8A7
5A08F560
148AFDA5
07D2F59B
0B95F2B9
0E77E0F6
5E2AC1E5
ENDCHAR
STARTCHAR uni046B
ENCODING 1131
SWIDTH 750 0
DWIDTH 8 0
BBX 7 5 0 0
BITMAP
07AF7B20
3B2F9600
07AEDA30
0D5E6D70
4E4F4F40
ENDCHAR
STARTCHAR uni0472
ENCODING 1138
SWIDTH 665 0
DWIDTH 7 0
BBX 7 7 0 0
BITMAP
04889A10
699B0C60
B6F40C80
1AE89F60
0DA05F20
0D91D800
06EC8000
ENDCHAR
STARTCHAR uni0473
ENCODING 1139
SWIDTH 439 0
DWIDTH 4 0
BBX 7 5 -1 0
BITMAP
01AB8000
09C2E730
0FA9B000
2F687000
0BEA0000
ENDCHAR
STARTCHAR uni0474
ENCODING 1140
SWIDTH 668 0
DWIDTH 7 0
BBX 8 7 0 0
BITMAP
06BE04C2
867F0C50
D07F3C00
207F7500
006F9000
006F8000
006F4000
ENDCHAR
STARTCHAR uni0475
ENCODING 1141
SWIDTH 414 0
DWIDTH 4 0
BBX 5 5 -1 0
BITMAP
06F3C0
0AC090
0D9190
1F6840
0CE700
ENDCHAR
STARTCHAR uni0490
ENCODING 1168
SWIDTH 431 0
DWIDTH 4 0
BBX 7 8 0 0
BITMAP
00000450
18DFFF40
A4C92100
D2F60000
35F20000
08E00000
0BA00000
0E700000
ENDCHAR
STARTCHAR uni0491
ENCODING 1169
SWIDTH 342 0
DWIDTH 3 0
BBX 5 6 -1 0
BITMAP
000190
06FA50
0AC000
0D9000
1F6000
4F2000
ENDCHAR
STARTCHAR uni0492
ENCODING 1170
SWIDTH 400 0
DWIDTH 4 0
BBX 7 7 0 0
BITMAP
29DFFF30
B5BA1200
93F60000
19F81000
07E00000
0AB00000
0D800000
ENDCHAR
STARTCHAR uni0493
ENCODING 1171
SWIDTH 375 0
DWIDTH 4 0
BBX 5 5 -1 0
BITMAP
04DE30
073F50
1ADB40
2F7050
1CEA10
ENDCHAR
STARTCHAR uni0494
ENCODING 1172
SWIDTH 665 0
DWIDTH 7 0
BBX 7 7 0 0
BITMAP
29DFFF30
B5BA1200
82EBB600
03F24F10
06E04F20
0AB19C00
0D9DC200
ENDCHAR
STARTCHAR uni0495
ENCODING 1173
SWIDTH 486 0
DWIDTH 5 0
BBX 7 7 -1 -2
BITMAP
06EEF400
09EC9000
0D88D110
1F5AB510
4F6E8100
05AF3000
05D90000
ENDCHAR
STARTCHAR uni0496
ENCODING 1174
SWIDTH 777 0
DWIDTH 8 0
BBX 10 10 -1 -3
BITMAP
00DB1C59E2
00497F8640
0007BEA000
01CAECBC00
06E1F77E00
09A3F4BA00
2E56F1C900
000000D200
000000C800
0000005400
ENDCHAR
STARTCHAR uni0497
ENCODING 1175
SWIDTH 882 0
DWIDTH 9 0
BBX 11 8 -1 -3
BITMAP
06CA0F57B700
042F4F5E2500
003FBFCA0000
257B9B9A0410
3BB2D84EB400
0000000A3000
000000096000
000000010000
ENDCHAR
STARTCHAR uni0498
ENCODING 1176
SWIDTH 525 0
DWIDTH 5 0
BBX 5 10 0 -3
BITMAP
069D90
020BC0
04DD20
001F90
310EA0
E03F50
AAB600
097000
07E000
018000
ENDCHAR
STARTCHAR uni0499
ENCODING 1177
SWIDTH 498 0
DWIDTH 5 0
BBX 6 10 0 -5
BITMAP
0AEC10
635F30
708D10
09E243
01FA40
38F700
4CC100
0B0000
1E2000
020000
ENDCHAR
STARTCHAR uni049A
ENCODING 1178
SWIDTH 635 0
DWIDTH 6 0
BBX 7 10 0 -3
BITMAP
05BE2CA0
67BBA330
C2ED4000
54FCA300
06F1D700
0AC2F300
0D85F200
0003C000
0002F400
00008100
ENDCHAR
STARTCHAR uni049B
ENCODING 1179
SWIDTH 501 0
DWIDTH 5 0
BBX 7 8 -1 -3
BITMAP
06F2AA00
0ADA2100
0DCCC000
1F58C330
4F25E900
0001B000
0001D100
00001000
ENDCHAR
STARTCHAR uni049C
ENCODING 1180
SWIDTH 721 0
DWIDTH 7 0
BBX 8 7 0 0
BITMAP
07BD06E8
A5BB7A32
81EED300
03F66E00
06E08D00
0AB0C900
0D80B900
ENDCHAR
STARTCHAR uni049D
ENCODING 1181
SWIDTH 551 0
DWIDTH 6 0
BBX 7 5 -1 0
BITMAP
06F15D40
0ACB5100
0DDBF500
1FB2F560
4F30DD30
ENDCHAR
STARTCHAR uni04A0
ENCODING 1184
SWIDTH 691 0
DWIDTH 7 0
BBX 8 7 0 0
BITMAP
2ACF79E4
C43FB531
806EB800
009A5F00
00D77E00
01F4AA00
05F2AA00
ENDCHAR
STARTCHAR uni04A1
ENCODING 1185
SWIDTH 676 0
DWIDTH 7 0
BBX 8 5 0 0
BITMAP
6ADB3C60
E1DBA310
61FBE800
05F2C951
08E09E60
ENDCHAR
STARTCHAR uni04A2
ENCODING 1186
SWIDTH 665 0
DWIDTH 7 0
BBX 7 9 0 -2
BITMAP
17BD0AC0
A4C90E90
71FCCF50
03F26F10
07E09D00
0AB0C900
0D80FA20
00001DE0
00000120
ENDCHAR
STARTCHAR uni04A3
ENCODING 1187
SWIDTH 507 0
DWIDTH 5 0
BBX 7 8 -1 -3
BITMAP
06F1D700
0AC1F400
0DDAF100
1F67D230
4F35EA00
0001B000
0001D100
00002000
ENDCHAR
STARTCHAR uni04A4
ENCODING 1188
SWIDTH 689 0
DWIDTH 7 0
BBX 10 7 0 0
BITMAP
17BD09EEE2
A4B90E9000
71FCCF5000
03F26F2000
07E09E0000
0AB0CA0000
0D80F70000
ENDCHAR
STARTCHAR uni04A5
ENCODING 1189
SWIDTH 681 0
DWIDTH 7 0
BBX 8 6 -1 0
BITMAP
00000001
06F1CEFD
0AC1F400
0DDAF100
1F67D230
4F35EA00
ENDCHAR
STARTCHAR uni04AA
ENCODING 1194
SWIDTH 497 0
DWIDTH 5 0
BBX 6 11 0 -4
BITMAP
01A9A1
0CB094
5F4010
9F0000
CD0000
BE0021
7FBA80
06C300
03F300
00A300
001000
ENDCHAR
STARTCHAR uni04AB
ENCODING 1195
SWIDTH 384 0
DWIDTH 4 0
BBX 5 8 -1 -3
BITMAP
01AA70
09C150
0E7000
1F6050
0BEA20
01B000
01D100
002000
ENDCHAR
STARTCHAR uni04AE
ENCODING 1198
SWIDTH 620 0
DWIDTH 6 0
BBX 7 7 0 0
BITMAP
06AF10A0
864F5540
D01F9900
200BE500
000AE000
000DB000
002F7000
ENDCHAR
STARTCHAR uni04AF
ENCODING 1199
SWIDTH 480 0
DWIDTH 5 0
BBX 5 8 0 -3
BITMAP
6F0960
5F2160
3F3610
2F6600
1FB000
1F5000
4F2000
340000
ENDCHAR
STARTCHAR uni04B0
ENCODING 1200
SWIDTH 620 0
DWIDTH 6 0
BBX 7 7 0 0
BITMAP
06AF10A0
864F5540
D01F9900
200BE500
004FF600
000DB000
002F7000
ENDCHAR
STARTCHAR uni04B1
ENCODING 1201
SWIDTH 480 0
DWIDTH 5 0
BBX 5 8 0 -3
BITMAP
6F0960
5F2160
3F3610
2F6600
1FB000
8FD300
4F2000
340000
ENDCHAR
STARTCHAR uni04B6
ENCODING 1206
SWIDTH 695 0
DWIDTH 7 0
BBX 8 9 0 -2
BITMAP
06BD05F2
95BA09D0
B1E70CA0
00DECF60
00376F20
00007E00
0000AD30
00000AF4
00000030
ENDCHAR
STARTCHAR uni04B7
ENCODING 1207
SWIDTH 505 0
DWIDTH 5 0
BBX 6 8 0 -3
BITMAP
6F1E70
AC3F40
ADCF10
269D23
006F90
001B00
001D10
000100
ENDCHAR
STARTCHAR uni04B8
ENCODING 1208
SWIDTH 715 0
DWIDTH 7 0
BBX 8 7 0 0
BITMAP
06BD02F5
86BA05F1
C1E739D0
20DCBEA0
00286F60
00014F30
00007E00
ENDCHAR
STARTCHAR uni04B9
ENCODING 1209
SWIDTH 545 0
DWIDTH 5 0
BBX 6 5 0 0
BITMAP
6F18D0
AC5CA0
ADDF70
288F56
012DC2
ENDCHAR
STARTCHAR uni04BA
ENCODING 1210
SWIDTH 679 0
DWIDTH 7 0
BBX 7 7 0 0
BITMAP
05BD0000
76BA0000
C2F86400
34FCDF20
07F14F20
0AC06E00
0D80AB00
ENDCHAR
STARTCHAR uni04BB
ENCODING 1211
SWIDTH 505 0
DWIDTH 5 0
BBX 7 7 -1 0
BITMAP
00B60000
03F40000
06FCE200
09D3F400
0D95F100
1F68D230
4F25E900
ENDCHAR
STARTCHAR uni04C0
ENCODING 1216
SWIDTH 375 0
DWIDTH 4 0
BBX 4 7 0 0
BITMAP
05AD
84D9
D1F6
25F3
08E0
0BB0
0E70
ENDCHAR
STARTCHAR uni04C1
ENCODING 1217
SWIDTH 777 0
DWIDTH 8 0
BBX 10 10 -1 0
BITMAP
0000661500
0000598100
0000000000
00DB1C59E2
00497F8640
0007BEA000
01CAECBC00
06E1F77E00
09A3F4BA00
2E56F1B900
ENDCHAR
STARTCHAR uni04C2
ENCODING 1218
SWIDTH 882 0
DWIDTH 9 0
BBX 11 7 -1 0
BITMAP
000066150000
000059810000
06CA0F57B700
042F4F5E2500
003FBFCA0000
257B9B9A0510
3BB2D84EA400
ENDCHAR
STARTCHAR uni04CB
ENCODING 1227
SWIDTH 695 0
DWIDTH 7 0
BBX 8 9 0 -2
BITMAP
05BD05F2
77BA08D0
C1E80BA0
41DB5E70
00377F30
00006E00
0013CB00
01FD3000
00110000
ENDCHAR
STARTCHAR uni04CC
ENCODING 1228
SWIDTH 516 0
DWIDTH 5 0
BBX 6 7 0 -2
BITMAP
5F2D90
8E1F50
9EBF20
168F44
003D70
4EF600
742000
ENDCHAR
STARTCHAR uni04CF
ENCODING 1231
SWIDTH 267 0
DWIDTH 3 0
BBX 4 8 -1 0
BITMAP
0001
01E6
04F3
07F0
0AC0
0D90
1F67
0CD4
ENDCHAR
STARTCHAR uni04D0
ENCODING 1232
SWIDTH 668 0
DWIDTH 7 0
BBX 8 11 0 -1
BITMAP
00002A06
00001983
00000000
00002AC0
00092E90
4ACB7F60
C4E16F20
07B09E00
0D60CA00
1F20F700
0D100000
ENDCHAR
STARTCHAR uni04D1
ENCODING 1233
SWIDTH 526 0
DWIDTH 5 0
BBX 7 7 -1 0
BITMAP
002A0600
00198300
01BADA00
0AC0E700
0F72F400
1F67F250
0BD7EB10
ENDCHAR
STARTCHAR uni04D2
ENCODING 1234
SWIDTH 668 0
DWIDTH 7 0
BBX 8 11 0 -1
BITMAP
00000928
00000000
00000000
00002AC0
00092E90
4ACB7F60
C4E16F20
07B09E00
0D60CA00
1F20F700
0D100000
ENDCHAR
STARTCHAR uni04D3
ENCODING 1235
SWIDTH 526 0
DWIDTH 5 0
BBX 7 7 -1 0
BITMAP
00092800
00000000
01BADA00
0AC0E700
0F72F400
1F67F250
0BD7EB10
ENDCHAR
STARTCHAR uni04D4
ENCODING 1236
SWIDTH 764 0
DWIDTH 8 0
BBX 9 8 0 -1
BITMAP
00004BDCB0
00093E9000
3ACB4F5000
D5E18FC800
48B08E0000
0D60BA1100
2F20EFFA00
1D10000000
ENDCHAR
STARTCHAR uni04D5
ENCODING 1237
SWIDTH 650 0
DWIDTH 7 0
BBX 7 5 0 0
BITMAP
18BCCB30
003F7A20
5BBF8300
F6AF1150
CD6DD700
ENDCHAR
STARTCHAR uni04D6
ENCODING 1238
SWIDTH 459 0
DWIDTH 5 0
BBX 6 10 0 0
BITMAP
008424
006970
000000
01BA90
09A1B0
07D100
2BA100
AE1000
DE1250
6EE800
ENDCHAR
STARTCHAR uni04D7
ENCODING 1239
SWIDTH 384 0
DWIDTH 4 0
BBX 6 7 -1 0
BITMAP
00A233
008860
01AA80
09B670
0FB600
1F6060
0BEA20
ENDCHAR
STARTCHAR uni04D8
ENCODING 1240
SWIDTH 544 0
DWIDTH 5 0
BBX 6 7 0 0
BITMAP
08EE80
0A39F3
0004F5
028AF4
4D2AD0
B73F50
6DC500
ENDCHAR
STARTCHAR uni04D9
ENCODING 1241
SWIDTH 404 0
DWIDTH 4 0
BBX 4 5 0 0
BITMAP
3CE5
20BC
18DB
B3E5
BA70
ENDCHAR
STARTCHAR uni04DC
ENCODING 1244
SWIDTH 777 0
DWIDTH 8 0
BBX 10 9 -1 0
BITMAP
0000466400
0000000000
00DB1C59E2
00497F8640
0007BEA000
01CAECBC00
06E1F77E00
09A3F4BA00
2E56F1B900
ENDCHAR
STARTCHAR uni04DD
ENCODING 1245
SWIDTH 882 0
DWIDTH 9 0
BBX 11 7 -1 0
BITMAP
000046640000
000000000000
06CA0F57B700
042F4F5E2500
003FBFCA0000
257B9B9A0510
3BB2D84EA400
ENDCHAR
STARTCHAR uni04DE
ENCODING 1246
SWIDTH 525 0
DWIDTH 5 0
BBX 6 9 0 0
BITMAP
007291
000000
069D90
020BC0
04DD20
001F90
310EA0
E03F60
AAC700
ENDCHAR
STARTCHAR uni04DF
ENCODING 1247
SWIDTH 498 0
DWIDTH 5 0
BBX 6 9 0 -2
BITMAP
046640
000000
0AEC10
635F30
708D10
09E243
01FA40
38F700
4CB100
ENDCHAR
STARTCHAR uni04E2
ENCODING 1250
SWIDTH 705 0
DWIDTH 7 0
BBX 8 9 0 0
BITMAP
0005BB90
00000000
05AD06F3
75CB1EF0
C2F79DC0
24F79D80
07FB3F50
0AF55F10
0DB09D00
ENDCHAR
STARTCHAR uni04E3
ENCODING 1251
SWIDTH 505 0
DWIDTH 5 0
BBX 7 7 -1 0
BITMAP
008BB600
00000000
06F1E700
0AC3F400
0D96F100
1F6BD230
0CD7E900
ENDCHAR
STARTCHAR uni04E4
ENCODING 1252
SWIDTH 705 0
DWIDTH 7 0
BBX 8 9 0 0
BITMAP
00028450
00000000
05AD06F3
75CB1EF0
C2F79DC0
24F79D80
07FB3F50
0AF55F10
0DB09D00
ENDCHAR
STARTCHAR uni04E5
ENCODING 1253
SWIDTH 505 0
DWIDTH 5 0
BBX 7 7 -1 0
BITMAP
00457300
00000000
06F1E700
0AC3F400
0D96F100
1F6BD230
0CD7E900
ENDCHAR
STARTCHAR uni04E6
ENCODING 1254
SWIDTH 665 0
DWIDTH 7 0
BBX 7 9 0 0
BITMAP
00046630
00000000
04889A10
699B0D60
B6F30C80
2AD00E60
0DA05F20
0D91D800
06EC8000
ENDCHAR
STARTCHAR uni04E7
ENCODING 1255
SWIDTH 439 0
DWIDTH 4 0
BBX 7 7 -1 0
BITMAP
00466400
00000000
01AB8000
09D2D630
0F71B000
2F677000
0BEA0000
ENDCHAR
STARTCHAR uni04E8
ENCODING 1256
SWIDTH 665 0
DWIDTH 7 0
BBX 7 7 0 0
BITMAP
04889A10
698B0D60
B6F30C80
2AE88F60
0DA05F20
0D91C800
06EC8000
ENDCHAR
STARTCHAR uni04E9
ENCODING 1257
SWIDTH 439 0
DWIDTH 4 0
BBX 7 5 -1 0
BITMAP
01AB8000
09D2D630
0FF9F000
2F677000
0BEA0000
ENDCHAR
STARTCHAR uni04EE
ENCODING 1262
SWIDTH 644 0
DWIDTH 6 0
BBX 7 9 0 0
BITMAP
0003BBA0
00000000
06AF20A0
863F6370
C10EA910
1009E800
0005F200
00439000
00BC1000
ENDCHAR
STARTCHAR uni04EF
ENCODING 1263
SWIDTH 486 0
DWIDTH 5 0
BBX 7 9 -1 -2
BITMAP
008BB600
00000000
06F1E700
0AC3F400
0D96F100
1F6BC410
0CDEB300
038F5000
06DB0000
ENDCHAR
STARTCHAR uni04F0
ENCODING 1264
SWIDTH 644 0
DWIDTH 6 0
BBX 7 9 0 0
BITMAP
00019370
00000000
06AF20A0
863F6370
C10EA910
1009E800
0005F200
00439000
00BC1000
ENDCHAR
STARTCHAR uni04F1
ENCODING 1265
SWIDTH 486 0
DWIDTH 5 0
BBX 7 9 -1 -2
BITMAP
00557300
00000000
06F1E700
0AC3F400
0D96F100
1F6BC410
0CDEB300
038F5000
06DB0000
ENDCHAR
STARTCHAR uni04F2
ENCODING 1266
SWIDTH 644 0
DWIDTH 6 0
BBX 8 10 0 0
BITMAP
000066A2
0000A460
00000000
06AF20A0
863F6370
C10EA910
1009E800
0005F200
00439000
00BC1000
ENDCHAR
STARTCHAR uni04F3
ENCODING 1267
SWIDTH 486 0
DWIDTH 5 0
BBX 7 10 -1 -2
BITMAP
000A5900
00469200
00000000
06F1E700
0AC3F400
0D96F100
1F6BC410
0CDEB300
038F5000
06DB0000
ENDCHAR
STARTCHAR uni04F4
ENCODING 1268
SWIDTH 695 0
DWIDTH 7 0
BBX 8 9 0 0
BITMAP
00028460
00000000
06BD05F2
86BA08D0
C1E70CA0
10DEBF70
00377F30
00006F00
0000AC00
ENDCHAR
STARTCHAR uni04F5
ENCODING 1269
SWIDTH 505 0
DWIDTH 5 0
BBX 6 7 0 0
BITMAP
055730
000000
6F1E70
AC3F40
ADCF10
269D33
006E90
ENDCHAR
STARTCHAR uni04F6
ENCODING 1270
SWIDTH 442 0
DWIDTH 4 0
BBX 7 9 0 -2
BITMAP
19CFFF30
A6BB1200
C3E70000
24F40000
06F10000
0AC00000
0DA20000
01CF2000
00120000
ENDCHAR
STARTCHAR uni04F7
ENCODING 1271
SWIDTH 375 0
DWIDTH 4 0
BBX 5 8 -1 -3
BITMAP
04DE30
073F50
04D800
1F7050
1DEA20
039000
03D000
002000
ENDCHAR
STARTCHAR uni04F8
ENCODING 1272
SWIDTH 909 0
DWIDTH 9 0
BBX 10 9 0 0
BITMAP
0000193700
0000000000
17BD0003F4
B3C90006F1
61FAB50AC0
03F27E0D90
07E06F2F50
0AB1AB5F20
0D9DD28E00
ENDCHAR
STARTCHAR uni04F9
ENCODING 1273
SWIDTH 642 0
DWIDTH 6 0
BBX 7 7 0 0
BITMAP
00729000
00000000
6D018B00
9BC9BA00
C857E700
F586F460
BD91CC20
ENDCHAR
STARTCHAR uni051A
ENCODING 1306
SWIDTH 665 0
DWIDTH 7 0
BBX 7 8 0 -1
BITMAP
04889A10
699B0D60
B6F30C80
1AC00E60
0DA05F10
0DB8D800
06EDD000
0000CB00
ENDCHAR
STARTCHAR uni051B
ENCODING 1307
SWIDTH 486 0
DWIDTH 5 0
BBX 6 8 -1 -3
BITMAP
01BADA
0AC0E7
0F73F4
1F68F1
0BEDC0
000D90
001F60
001400
ENDCHAR
STARTCHAR uni051C
ENCODING 1308
SWIDTH 962 0
DWIDTH 10 0
BBX 11 7 0 0
BITMAP
06BE01F70820
867F06F70900
D07F09F74500
207F27F78000
006F71F87000
006F80ED2000
006F40EB0000
ENDCHAR
STARTCHAR uni051D
ENCODING 1309
SWIDTH 661 0
DWIDTH 7 0
BBX 8 5 -1 0
BITMAP
06F1E7A5
0AC3F436
0D96F182
1F6BD2A0
0CD8EB20
ENDCHAR
STARTCHAR uni0524
ENCODING 1316
SWIDTH 742 0
DWIDTH 7 0
BBX 8 9 0 -2
BITMAP
19CEDEEA
A5CA0D90
C2F71F60
14F35F20
07F08E00
0AC0CA00
0D80F910
00002EE0
00000120
ENDCHAR
STARTCHAR uni0525
ENCODING 1317
SWIDTH 505 0
DWIDTH 5 0
BBX 7 8 -1 -3
BITMAP
06FCE200
0AD3F400
0D95F100
1F68D230
4F25FA00
0001B000
0001E100
00002000
ENDCHAR
STARTCHAR uni1E0C
ENCODING 7692
SWIDTH 663 0
DWIDTH 7 0
BBX 7 9 0 -2
BITMAP
0677A700
96BA1F30
D1F60F60
14F22F50
07E05F20
0BA1CA00
0ECDB100
00720000
01D40000
ENDCHAR
STARTCHAR uni1E0D
ENCODING 7693
SWIDTH 525 0
DWIDTH 5 0
BBX 7 9 -1 -2
BITMAP
00004C20
00008E00
01BADA00
0AC0E700
0F73F400
1F67F250
0BD7EB10
00720000
01D50000
ENDCHAR
STARTCHAR uni1E20
ENCODING 7712
SWIDTH 578 0
DWIDTH 6 0
BBX 6 11 0 -2
BITMAP
006BB7
000000
03B995
2E7079
9E0010
CB00C5
9D06F2
2CCBD0
098A90
4A2E30
088500
ENDCHAR
STARTCHAR uni1E21
ENCODING 7713
SWIDTH 507 0
DWIDTH 5 0
BBX 7 9 -1 -2
BITMAP
005BB800
00000000
01BADA00
0AC0E700
0F73F400
1F68F240
0BEDD400
017E8000
03CC2000
ENDCHAR
STARTCHAR uni1E24
ENCODING 7716
SWIDTH 665 0
DWIDTH 7 0
BBX 7 9 0 -2
BITMAP
128D0AC0
A2D90E90
72FCCF60
04F26F20
07E09E00
0BB0CA00
0E80F700
00530000
00B80000
ENDCHAR
STARTCHAR uni1E25
ENCODING 7717
SWIDTH 505 0
DWIDTH 5 0
BBX 7 9 -1 -2
BITMAP
00B60000
03F40000
06FCE200
09D3F400
0D95F100
1F68D230
4F25E900
00710000
01E30000
ENDCHAR
STARTCHAR uni1E2A
ENCODING 7722
SWIDTH 665 0
DWIDTH 7 0
BBX 7 9 0 -2
BITMAP
128D0AC0
A2D90E90
72FCCF60
04F26F20
07E09E00
0BB0CA00
0E80F700
05225000
03982000
ENDCHAR
STARTCHAR uni1E2B
ENCODING 7723
SWIDTH 505 0
DWIDTH 5 0
BBX 7 9 -1 -2
BITMAP
00B60000
03F40000
06FCE200
09D3F400
0D95F100
1F68D230
4F25E900
07042000
07870000
ENDCHAR
STARTCHAR uni1E36
ENCODING 7734
SWIDTH 379 0
DWIDTH 4 0
BBX 7 9 0 -2
BITMAP
06BD0000
95C90000
D1F60000
24F20000
08E00000
0BA00000
0EA10000
187DA740
3E21AE40
ENDCHAR
STARTCHAR uni1E37
ENCODING 7735
SWIDTH 293 0
DWIDTH 3 0
BBX 4 10 0 -2
BITMAP
0010
0BA0
0E70
3F40
6F10
9C00
CA52
9E60
6200
D500
ENDCHAR
STARTCHAR uni1E42
ENCODING 7746
SWIDTH 787 0
DWIDTH 8 0
BBX 8 9 0 -2
BITMAP
016E909E
1B4F81FC
4A9F87FA
03CE7BE8
067EC7F5
0B1FE4F3
2A1F86F1
00270000
004D1000
ENDCHAR
STARTCHAR uni1E43
ENCODING 7747
SWIDTH 752 0
DWIDTH 8 0
BBX 9 7 -1 -2
BITMAP
06FBE7E800
0AD3F5BB00
0D96F1D800
1F69D1F550
4F2CA0CD30
0007100000
001E400000
ENDCHAR
STARTCHAR uni1E44
ENCODING 7748
SWIDTH 668 0
DWIDTH 7 0
BBX 8 10 0 0
BITMAP
00002600
00004D10
00000000
17BE00E1
A4CF32D0
D2EE7590
35BBB860
0877EC20
0B43FD00
0E00EA00
ENDCHAR
STARTCHAR uni1E45
ENCODING 7749
SWIDTH 505 0
DWIDTH 5 0
BBX 7 7 -1 0
BITMAP
0008A000
00045000
06FCE200
0AD3F400
0D95F100
1F68D230
4F25E900
ENDCHAR
STARTCHAR uni1E46
ENCODING 7750
SWIDTH 668 0
DWIDTH 7 0
BBX 8 9 0 -2
BITMAP
17BE00E1
A4CF32D0
D2EE7590
35BBB860
0877EC20
0B43FD00
0E00EA00
00440000
00990000
ENDCHAR
STARTCHAR uni1E47
ENCODING 7751
SWIDTH 505 0
DWIDTH 5 0
BBX 7 7 -1 -2
BITMAP
06FCE200
0AD3F400
0D95F100
1F68D230
4F25E900
00720000
01D50000
ENDCHAR
STARTCHAR uni1E5A
ENCODING 7770
SWIDTH 601 0
DWIDTH 6 0
BBX 6 9 0 -2
BITMAP
178996
C3C86A
61FAE2
04F1E6
08D1F4
0BA4F1
0E74F1
005300
00B700
ENDCHAR
STARTCHAR uni1E5B
ENCODING 7771
SWIDTH 376 0
DWIDTH 4 0
BBX 5 7 -1 -2
BITMAP
06FAB0
0AC140
0D9000
1F6000
4F2000
260000
5D0000
ENDCHAR
STARTCHAR uni1E60
ENCODING 7776
SWIDTH 570 0
DWIDTH 6 0
BBX 6 10 0 0
BITMAP
0007B0
000350
000000
01A9A3
07F196
03F810
006F70
4D49F1
9807E1
2BBC40
ENDCHAR
STARTCHAR uni1E61
ENCODING 7777
SWIDTH 382 0
DWIDTH 4 0
BBX 5 7 -1 0
BITMAP
002D20
001710
007B00
01CF00
066F10
396F60
1BE800
ENDCHAR
STARTCHAR uni1E62
ENCODING 7778
SWIDTH 570 0
DWIDTH 6 0
BBX 6 9 0 -2
BITMAP
01A9A3
07F196
03F810
006F70
4D49F1
9807E1
2BBC40
044000
099000
ENDCHAR
STARTCHAR uni1E63
ENCODING 7779
SWIDTH 382 0
DWIDTH 4 0
BBX 5 8 -1 -2
BITMAP
003500
00CF00
03AF10
086F20
486F70
1BD700
062000
0D5000
ENDCHAR
STARTCHAR uni1E6C
ENCODING 7788
SWIDTH 481 0
DWIDTH 5 0
BBX 8 9 0 -2
BITMAP
19CFEFE1
B53F4000
D06F1000
109C0000
00D90000
01F50000
05F20000
04500000
08A00000
ENDCHAR
STARTCHAR uni1E6D
ENCODING 7789
SWIDTH 267 0
DWIDTH 3 0
BBX 4 9 -1 -2
BITMAP
0063
03F3
08F4
0AC0
0D90
1F66
0CD4
2600
5D00
ENDCHAR
STARTCHAR Wgrave
ENCODING 7808
SWIDTH 962 0
DWIDTH 10 0
BBX 11 10 0 0
BITMAP
000001C00000
000000C10000
000000000000
06BE01F70820
867F06F70900
D07F09F74500
207F27F78000
006F71F87000
006F80ED2000
006F40EB0000
ENDCHAR
STARTCHAR wgrave
ENCODING 7809
SWIDTH 661 0
DWIDTH 7 0
BBX 8 7 -1 0
BITMAP
0004B000
0000A000
06F1E7A5
0AC3F436
0D96F182
1F6BD2A0
0CD8EB20
ENDCHAR
STARTCHAR Wacute
ENCODING 7810
SWIDTH 962 0
DWIDTH 10 0
BBX 11 10 0 0
BITMAP
0000000C3000
000000490000
000000000000
06BE01F70820
867F06F70900
D07F09F74500
207F27F78000
006F71F87000
006F80ED2000
006F40EB0000
ENDCHAR
STARTCHAR wacute
ENCODING 7811
SWIDTH 661 0
DWIDTH 7 0
BBX 8 7 -1 0
BITMAP
00001C10
00004300
06F1E7A5
0AC3F436
0D96F182
1F6BD2A0
0CD8EB20
ENDCHAR
STARTCHAR Wdieresis
ENCODING 7812
SWIDTH 962 0
DWIDTH 10 0
BBX 11 9 0 0
BITMAP
0000086B3000
000001010000
06BE01F70820
867F06F70900
D07F09F74500
207F27F78000
006F71F87000
006F80ED2000
006F40EB0000
ENDCHAR
STARTCHAR wdieresis
ENCODING 7813
SWIDTH 661 0
DWIDTH 7 0
BBX 8 7 -1 0
BITMAP
000A4C20
00010100
06F1E7A5
0AC3F436
0D96F182
1F6BD2A0
0CD8EB20
ENDCHAR
STARTCHAR uni1E8E
ENCODING 7822
SWIDTH 620 0
DWIDTH 6 0
BBX 7 10 0 0
BITMAP
00002600
00006D00
00000000
06AF10A0
864F5540
D01F9900
200BE500
000AE000
000DB000
002F7000
ENDCHAR
STARTCHAR uni1E8F
ENCODING 7823
SWIDTH 505 0
DWIDTH 5 0
BBX 7 9 -1 -2
BITMAP
000A8000
00054000
06F1E700
0AC3F400
0D96F100
1F6BC410
0CDEB300
038F5000
06DB0000
ENDCHAR
STARTCHAR uni1E92
ENCODING 7826
SWIDTH 542 0
DWIDTH 5 0
BBX 6 12 0 -2
BITMAP
0000A4
0002A0
000000
1C8CF4
170DA0
007F20
01E900
08E200
2F8080
9FAAA0
035000
08B000
ENDCHAR
STARTCHAR uni1E93
ENCODING 7827
SWIDTH 428 0
DWIDTH 4 0
BBX 5 7 0 -2
BITMAP
3BCE10
24E600
09C000
2F4600
BFB800
360000
6C0000
ENDCHAR
STARTCHAR uni1E97
ENCODING 7831
SWIDTH 267 0
DWIDTH 3 0
BBX 5 8 -1 0
BITMAP
05A950
007400
03F400
08F400
0AC000
0D9000
1F6600
0CD400
ENDCHAR
STARTCHAR uni1E9E
ENCODING 7838
SWIDTH 559 0
DWIDTH 6 0
BBX 7 10 -1 -3
BITMAP
002C9FB0
00BA5F30
01F6DA00
05F3D600
08D08D00
0BA08D00
0E8BD400
3F300000
6E000000
21000000
ENDCHAR
STARTCHAR uni1EA0
ENCODING 7840
SWIDTH 668 0
DWIDTH 7 0
BBX 7 9 0 -2
BITMAP
00002AC0
00092E90
4ACB7F60
C5E16F20
08A09E00
0D50CA00
2F20F700
0B162000
000D5000
ENDCHAR
STARTCHAR uni1EA1
ENCODING 7841
SWIDTH 526 0
DWIDTH 5 0
BBX 7 7 -1 -2
BITMAP
01BADA00
0AC0E700
0F72F400
1F67F250
0BD7EB10
00720000
01D50000
ENDCHAR
STARTCHAR uni1EA2
ENCODING 7842
SWIDTH 668 0
DWIDTH 7 0
BBX 8 11 0 -1
BITMAP
00000383
00000292
00000000
00002AC0
00092E90
4ACB7F60
C4E16F20
07B09E00
0D60CA00
1F20F700
0D100000
ENDCHAR
STARTCHAR uni1EA3
ENCODING 7843
SWIDTH 526 0
DWIDTH 5 0
BBX 7 7 -1 0
BITMAP
00028600
0000A200
01BADA00
0AC0E700
0F72F400
1F67F250
0BD7EB10
ENDCHAR
STARTCHAR uni1EA4
ENCODING 7844
SWIDTH 668 0
DWIDTH 7 0
BBX 9 11 0 -1
BITMAP
0000004450
0000069600
0000000000
00002AC000
00092E9000
4ACB7F6000
C4E16F2000
07B09E0000
0D60CA0000
1F20F70000
0D10000000
ENDCHAR
STARTCHAR uni1EA5
ENCODING 7845
SWIDTH 526 0
DWIDTH 5 0
BBX 7 9 -1 0
BITMAP
00000060
00000470
0003B300
00031200
01BADA00
0AC0E700
0F72F400
1F67F250
0BD7EB10
ENDCHAR
STARTCHAR uni1EA6
ENCODING 7846
SWIDTH 668 0
DWIDTH 7 0
BBX 8 12 0 -1
BITMAP
00000001
00000068
00000663
00000000
00002AC0
00092E90
4ACB7F60
C4E16F20
07B09E00
0D60CA00
1F20F700
0D100000
ENDCHAR
STARTCHAR uni1EA7
ENCODING 7847
SWIDTH 526 0
DWIDTH 5 0
BBX 7 9 -1 0
BITMAP
00000610
00000540
00036200
00000000
01BADA00
0AC0E700
0F72F400
1F67F250
0BD7EB10
ENDCHAR
STARTCHAR uni1EA8
ENCODING 7848
SWIDTH 668 0
DWIDTH 7 0
BBX 9 11 0 -1
BITMAP
0000000440
000003B530
0000031200
00002AC000
00092E9000
4ACB7F6000
C4E16F2000
07B09E0000
0D60CA0000
1F20F70000
0D10000000
ENDCHAR
STARTCHAR uni1EA9
ENCODING 7849
SWIDTH 526 0
DWIDTH 5 0
BBX 7 8 -1 0
BITMAP
00000440
0002C530
00041200
01BADA00
0AC0E700
0F72F400
1F67F250
0BD7EB10
ENDCHAR
STARTCHAR uni1EAA
ENCODING 7850
SWIDTH 668 0
DWIDTH 7 0
BBX 8 11 0 -1
BITMAP
000002C7
00000692
00000000
00002AC0
00092E90
4ACB7F60
C4E16F20
07B09E00
0D60CA00
1F20F700
0D100000
ENDCHAR
STARTCHAR uni1EAB
ENCODING 7851
SWIDTH 526 0
DWIDTH 5 0
BBX 7 9 -1 0
BITMAP
00028700
00000000
0003B100
00031200
01BADA00
0AC0E700
0F72F400
1F67F250
0BD7EB10
ENDCHAR
STARTCHAR uni1EAC
ENCODING 7852
SWIDTH 668 0
DWIDTH 7 0
BBX 8 12 0 -2
BITMAP
000000A3
00001856
00000000
00002AC0
00092E90
4ACB7F60
C5E16F20
08A09E00
0D50CA00
2F20F700
0B162000
000D5000
ENDCHAR
STARTCHAR uni1EAD
ENCODING 7853
SWIDTH 526 0
DWIDTH 5 0
BBX 7 9 -1 -2
BITMAP
0003C100
00141300
01BADA00
0AC0E700
0F72F400
1F67F250
0BD7EB10
00720000
01D50000
ENDCHAR
STARTCHAR uni1EAE
ENCODING 7854
SWIDTH 668 0
DWIDTH 7 0
BBX 8 11 0 -1
BITMAP
00000073
00000645
00000784
00002AC0
00092E90
4ACB7F60
C4E16F20
07B09E00
0D60CA00
1F20F700
0D100000
ENDCHAR
STARTCHAR uni1EAF
ENCODING 7855
SWIDTH 526 0
DWIDTH 5 0
BBX 7 9 -1 0
BITMAP
00003200
00009000
00198500
00000000
01BADA00
0AC0E700
0F72F400
1F67F250
0BD7EB10
ENDCHAR
STARTCHAR uni1EB0
ENCODING 7856
SWIDTH 668 0
DWIDTH 7 0
BBX 8 12 0 -1
BITMAP
00000010
00000190
00000928
00000773
00002AC0
00092E90
4ACB7F60
C4E16F20
07B09E00
0D60CA00
1F20F700
0D100000
ENDCHAR
STARTCHAR uni1EB1
ENCODING 7857
SWIDTH 526 0
DWIDTH 5 0
BBX 7 9 -1 0
BITMAP
00033000
00018000
00197500
00000000
01BADA00
0AC0E700
0F72F400
1F67F250
0BD7EB10
ENDCHAR
STARTCHAR uni1EB2
ENCODING 7858
SWIDTH 668 0
DWIDTH 7 0
BBX 8 11 0 -1
BITMAP
00000161
00000565
00000784
00002AC0
00092E90
4ACB7F60
C4E16F20
07B09E00
0D60CA00
1F20F700
0D100000
ENDCHAR
STARTCHAR uni1EB3
ENCODING 7859
SWIDTH 526 0
DWIDTH 5 0
BBX 7 9 -1 0
BITMAP
00017000
00006100
0019A500
00000000
01BADA00
0AC0E700
0F72F400
1F67F250
0BD7EB10
ENDCHAR
STARTCHAR uni1EB4
ENCODING 7860
SWIDTH 668 0
DWIDTH 7 0
BBX 8 11 0 -1
BITMAP
000003C5
00000504
00000784
00002AC0
00092E90
4ACB7F60
C4E16F20
07B09E00
0D60CA00
1F20F700
0D100000
ENDCHAR
STARTCHAR uni1EB5
ENCODING 7861
SWIDTH 526 0
DWIDTH 5 0
BBX 7 9 -1 0
BITMAP
00039600
00000000
00197600
00000000
01BADA00
0AC0E700
0F72F400
1F67F250
0BD7EB10
ENDCHAR
STARTCHAR uni1EB6
ENCODING 7862
SWIDTH 668 0
DWIDTH 7 0
BBX 9 12 0 -2
BITMAP
0000350710
0000198500
0000000000
00002AC000
00092E9000
4ACB7F6000
C5E16F2000
08A09E0000
0D50CA0000
2F20F70000
0B16200000
000D500000
ENDCHAR
STARTCHAR uni1EB7
ENCODING 7863
SWIDTH 526 0
DWIDTH 5 0
BBX 7 9 -1 -2
BITMAP
00398700
00000000
01BADA00
0AC0E700
0F72F400
1F67F250
0BD7EB10
00720000
01D50000
ENDCHAR
STARTCHAR uni1EB8
ENCODING 7864
SWIDTH 459 0
DWIDTH 5 0
BBX 5 9 0 -2
BITMAP
01BA90
09A1B0
07D100
2BA100
AE1000
DE1250
6EE800
071000
2E3000
ENDCHAR
STARTCHAR uni1EB9
ENCODING 7865
SWIDTH 384 0
DWIDTH 4 0
BBX 5 7 -1 -2
BITMAP
01AA80
09B670
0FB600
1F6060
0BEA20
044000
09A000
ENDCHAR
STARTCHAR uni1EBA
ENCODING 7866
SWIDTH 459 0
DWIDTH 5 0
BBX 5 10 0 0
BITMAP
000780
000760
000000
01BA90
09A1B0
07D100
2BA100
AE1000
DE1250
6EE800
ENDCHAR
STARTCHAR uni1EBB
ENCODING 7867
SWIDTH 384 0
DWIDTH 4 0
BBX 5 7 -1 0
BITMAP
001790
000930
01AA80
09B670
0FB600
1F6060
0BEA20
ENDCHAR
STARTCHAR uni1EBC
ENCODING 7868
SWIDTH 459 0
DWIDTH 5 0
BBX 6 10 0 0
BITMAP
001741
006BE7
000000
01BA90
09A1B0
07D100
2BA100
AE1000
DE1250
6EE800
ENDCHAR
STARTCHAR uni1EBD
ENCODING 7869
SWIDTH 384 0
DWIDTH 4 0
BBX 6 7 -1 0
BITMAP
02CEA2
000420
01AA80
09B670
0FB600
1F6060
0BEA20
ENDCHAR
STARTCHAR uni1EBE
ENCODING 7870
SWIDTH 459 0
DWIDTH 5 0
BBX 6 10 0 0
BITMAP
000139
002893
000000
01BA90
09A1B0
07D100
2BA100
AE1000
DE1250
6EE800
ENDCHAR
STARTCHAR uni1EBF
ENCODING 7871
SWIDTH 384 0
DWIDTH 4 0
BBX 7 9 -1 0
BITMAP
00000330
00000A10
00078200
00213000
01AA8000
09B67000
0FB60000
1F606000
0BEA2000
ENDCHAR
STARTCHAR uni1EC0
ENCODING 7872
SWIDTH 459 0
DWIDTH 5 0
BBX 6 11 0 0
BITMAP
000001
000257
002662
000000
01BA90
09A1B0
07D100
2BA100
AE1000
DE1250
6EE800
ENDCHAR
STARTCHAR uni1EC1
ENCODING 7873
SWIDTH 384 0
DWIDTH 4 0
BBX 6 9 -1 0
BITMAP
000016
000009
001460
000000
01AA80
09B670
0FB600
1F6060
0BEA20
ENDCHAR
STARTCHAR uni1EC2
ENCODING 7874
SWIDTH 459 0
DWIDTH 5 0
BBX 7 10 0 0
BITMAP
00001610
00077610
00213000
01BA9000
09A1B000
07D10000
2BA10000
AE100000
DE125000
6EE80000
ENDCHAR
STARTCHAR uni1EC3
ENCODING 7875
SWIDTH 384 0
DWIDTH 4 0
BBX 6 8 -1 0
BITMAP
000026
000795
002230
01AA80
09B670
0FB600
1F6060
0BEA20
ENDCHAR
STARTCHAR uni1EC4
ENCODING 7876
SWIDTH 459 0
DWIDTH 5 0
BBX 6 10 0 0
BITMAP
0007F6
002880
000000
01BA90
09A1B0
07D100
2BA100
AE1000
DE1250
6EE800
ENDCHAR
STARTCHAR uni1EC5
ENCODING 7877
SWIDTH 384 0
DWIDTH 4 0
BBX 6 9 -1 0
BITMAP
000593
000000
000770
002130
01AA80
09B670
0FB600
1F6060
0BEA20
ENDCHAR
STARTCHAR uni1EC6
ENCODING 7878
SWIDTH 459 0
DWIDTH 5 0
BBX 5 12 0 -2
BITMAP
000670
006780
000000
01BA90
09A1B0
07D100
2BA100
AE1000
DE1250
6EE800
071000
2E3000
ENDCHAR
STARTCHAR uni1EC7
ENCODING 7879
SWIDTH 384 0
DWIDTH 4 0
BBX 5 9 -1 -2
BITMAP
000880
004240
01AA80
09B670
0FB600
1F6060
0BEA20
044000
09A000
ENDCHAR
STARTCHAR uni1EC8
ENCODING 7880
SWIDTH 375 0
DWIDTH 4 0
BBX 5 10 0 0
BITMAP
002850
000A30
000000
05AD00
84D900
D1F600
25F300
08E000
0BB000
0E7000
ENDCHAR
STARTCHAR uni1EC9
ENCODING 7881
SWIDTH 267 0
DWIDTH 3 0
BBX 4 7 -1 0
BITMAP
0079
0084
06F1
0AC0
0D90
1F66
0CD4
ENDCHAR
STARTCHAR uni1ECA
ENCODING 7882
SWIDTH 375 0
DWIDTH 4 0
BBX 4 9 0 -2
BITMAP
05AD
84D9
D1F6
25F3
08E0
0BB0
0E70
1700
4D10
ENDCHAR
STARTCHAR uni1ECB
ENCODING 7883
SWIDTH 267 0
DWIDTH 3 0
BBX 4 9 -1 -2
BITMAP
01D4
0062
06F1
0AC0
0D90
1F66
0CD4
2600
5D00
ENDCHAR
STARTCHAR uni1ECC
ENCODING 7884
SWIDTH 665 0
DWIDTH 7 0
BBX 7 9 0 -2
BITMAP
04889A10
699B0D60
B6F30C80
2AD00E60
0DA05F20
0D91D800
06EC8000
00710000
01E40000
ENDCHAR
STARTCHAR uni1ECD
ENCODING 7885
SWIDTH 433 0
DWIDTH 4 0
BBX 7 7 -1 -2
BITMAP
01BB7000
0AC3D630
1F72A000
3F586000
0BE90000
04400000
09A00000
ENDCHAR
STARTCHAR uni1ECE
ENCODING 7886
SWIDTH 665 0
DWIDTH 7 0
BBX 7 10 0 0
BITMAP
00007700
00008500
00000000
04889A10
699B0D60
B6F30C80
2AD00E60
0DA05F20
0D91D800
06EC8000
ENDCHAR
STARTCHAR uni1ECF
ENCODING 7887
SWIDTH 433 0
DWIDTH 4 0
BBX 7 7 -1 0
BITMAP
0006A000
00075000
01BB7000
0AC3D630
1F72A000
3F586000
0BE90000
ENDCHAR
STARTCHAR uni1ED0
ENCODING 7888
SWIDTH 665 0
DWIDTH 7 0
BBX 7 10 0 0
BITMAP
00002390
00047920
00000000
04889A10
699B0D60
B6F30C80
2AD00E60
0DA05F20
0D91D800
06EC8000
ENDCHAR
STARTCHAR uni1ED1
ENCODING 7889
SWIDTH 433 0
DWIDTH 4 0
BBX 7 9 -1 0
BITMAP
00000330
00000A10
00078200
00213000
01BB7000
0AC3D630
1F72A000
3F586000
0BE90000
ENDCHAR
STARTCHAR uni1ED2
ENCODING 7890
SWIDTH 665 0
DWIDTH 7 0
BBX 7 10 0 0
BITMAP
00003550
00035520
00000000
04889A10
699B0D60
B6F30C80
2AD00E60
0DA05F20
0D91D800
06EC8000
ENDCHAR
STARTCHAR uni1ED3
ENCODING 7891
SWIDTH 433 0
DWIDTH 4 0
BBX 7 9 -1 0
BITMAP
00001600
00000900
00146000
00000000
01BB7000
0AC3D630
1F72A000
3F586000
0BE90000
ENDCHAR
STARTCHAR uni1ED4
ENCODING 7892
SWIDTH 665 0
DWIDTH 7 0
BBX 7 10 0 0
BITMAP
00000260
00018660
00031300
04889A10
699B0D60
B6F30C80
2AD00E60
0DA05F20
0D91D800
06EC8000
ENDCHAR
STARTCHAR uni1ED5
ENCODING 7893
SWIDTH 433 0
DWIDTH 4 0
BBX 7 8 -1 0
BITMAP
00001700
00078500
00223000
01BB7000
0AC3D630
1F72A000
3F586000
0BE90000
ENDCHAR
STARTCHAR uni1ED6
ENCODING 7894
SWIDTH 665 0
DWIDTH 7 0
BBX 7 10 0 0
BITMAP
00009A20
00038700
00000000
04889A10
699B0D60
B6F30C80
2AD00E60
0DA05F20
0D91D800
06EC8000
ENDCHAR
STARTCHAR uni1ED7
ENCODING 7895
SWIDTH 433 0
DWIDTH 4 0
BBX 7 9 -1 0
BITMAP
00047500
00016200
00077000
00213000
01BB7000
0AC3D630
1F72A000
3F586000
0BE90000
ENDCHAR
STARTCHAR uni1ED8
ENCODING 7896
SWIDTH 665 0
DWIDTH 7 0
BBX 7 12 0 -2
BITMAP
0000A300
00185600
00000000
04889A10
699B0D60
B6F30C80
2AD00E60
0DA05F20
0D91D800
06EC8000
00710000
01E40000
ENDCHAR
STARTCHAR uni1ED9
ENCODING 7897
SWIDTH 433 0
DWIDTH 4 0
BBX 7 9 -1 -2
BITMAP
00097000
00424000
01BB7000
0AC3D630
1F72A000
3F586000
0BE90000
04400000
09A00000
ENDCHAR
STARTCHAR uni1EDA
ENCODING 7898
SWIDTH 665 0
DWIDTH 7 0
BBX 8 10 0 0
BITMAP
00005A00
0000B151
000000B2
04889B80
699B0D60
B6F30C80
2AD00E60
0DA05F20
0D91D800
06EC8000
ENDCHAR
STARTCHAR uni1EDB
ENCODING 7899
SWIDTH 439 0
DWIDTH 4 0
BBX 6 7 -1 0
BITMAP
0003B1
00052C
01AAC3
0AC0C0
1F72C0
1F6870
0AE900
ENDCHAR
STARTCHAR uni1EDC
ENCODING 7900
SWIDTH 665 0
DWIDTH 7 0
BBX 8 10 0 0
BITMAP
000B2000
00084072
000000B2
04889B80
699B0D60
B6F30C80
2AD00E60
0DA05F20
0D91D800
06EC8000
ENDCHAR
STARTCHAR uni1EDD
ENCODING 7901
SWIDTH 439 0
DWIDTH 4 0
BBX 6 7 -1 0
BITMAP
001E00
000A1B
01AAC4
0AC0C0
1F72C0
1F6870
0AE900
ENDCHAR
STARTCHAR uni1EDE
ENCODING 7902
SWIDTH 665 0
DWIDTH 7 0
BBX 8 10 0 0
BITMAP
00007700
00008592
000000B1
04889B80
699B0D60
B6F30C80
2AD00E60
0DA05F20
0D91D800
06EC8000
ENDCHAR
STARTCHAR uni1EDF
ENCODING 7903
SWIDTH 439 0
DWIDTH 4 0
BBX 6 7 -1 0
BITMAP
0006A0
00075A
01AAB4
0AC0C0
1F72C0
1F6870
0AE900
ENDCHAR
STARTCHAR uni1EE0
ENCODING 7904
SWIDTH 665 0
DWIDTH 7 0
BBX 8 9 0 0
BITMAP
0019E851
000000B2
04889B80
699B0D60
B6F30C80
2AD00E60
0DA05F20
0D91D800
06EC8000
ENDCHAR
STARTCHAR uni1EE1
ENCODING 7905
SWIDTH 439 0
DWIDTH 4 0
BBX 6 7 -1 0
BITMAP
00BD57
00031B
01AAC3
0AC0C0
1F72C0
1F6870
0AE900
ENDCHAR
STARTCHAR uni1EE2
ENCODING 7906
SWIDTH 665 0
DWIDTH 7 0
BBX 8 11 0 -2
BITMAP
000000A3
000000B1
04889B80
699B0D60
B6F30C80
2AD00E60
0DA05F20
0D91D800
06EC8000
00710000
01E40000
ENDCHAR
STARTCHAR uni1EE3
ENCODING 7907
SWIDTH 439 0
DWIDTH 4 0
BBX 6 9 -1 -2
BITMAP
000005
00000B
01AAC3
0AC0C0
1F72C0
1F6870
0AE900
044000
09A000
ENDCHAR
STARTCHAR uni1EE4
ENCODING 7908
SWIDTH 716 0
DWIDTH 7 0
BBX 8 9 0 -2
BITMAP
07AE10E7
A49C03F3
D0D707F0
22F30AB0
05E00E70
07E07E10
03DED400
00350000
008B0000
ENDCHAR
STARTCHAR uni1EE5
ENCODING 7909
SWIDTH 505 0
DWIDTH 5 0
BBX 7 7 -1 -2
BITMAP
06F1E700
0AC3F400
0D96F100
1F6BD230
0CD7E900
00710000
01E30000
ENDCHAR
STARTCHAR uni1EE6
ENCODING 7910
SWIDTH 716 0
DWIDTH 7 0
BBX 8 10 0 0
BITMAP
00002850
00000A30
00000000
07AE10E7
A49C03F3
D0D707F0
22F30AB0
05E00E70
07E07E10
03DED400
ENDCHAR
STARTCHAR uni1EE7
ENCODING 7911
SWIDTH 505 0
DWIDTH 5 0
BBX 7 7 -1 0
BITMAP
00079000
00084000
06F1E700
0AC3F400
0D96F100
1F6BD230
0CD7E900
ENDCHAR
STARTCHAR uni1EE8
ENCODING 7912
SWIDTH 716 0
DWIDTH 7 0
BBX 9 10 0 0
BITMAP
0000069000
00000B1390
0000000650
07AE10E700
A49C03F300
D0D707E000
22F30AB000
05E00E6000
07E07E1000
03DEC40000
ENDCHAR
STARTCHAR uni1EE9
ENCODING 7913
SWIDTH 505 0
DWIDTH 5 0
BBX 7 7 -1 0
BITMAP
0001C320
00043750
06F1EA00
0AC3F400
0D96F100
1F6BD230
0CD7E900
ENDCHAR
STARTCHAR uni1EEA
ENCODING 7914
SWIDTH 716 0
DWIDTH 7 0
BBX 9 10 0 0
BITMAP
0000B20010
00008504A0
0000000630
07AE10E600
A49C03F200
D0D707E000
22F30AA000
05E00E6000
07E07E1000
03DEC40000
ENDCHAR
STARTCHAR uni1EEB
ENCODING 7915
SWIDTH 505 0
DWIDTH 5 0
BBX 7 7 -1 0
BITMAP
001E0010
00092760
06F1EB00
0AC3F500
0D96F100
1F6BD230
0CD7E900
ENDCHAR
STARTCHAR uni1EEC
ENCODING 7916
SWIDTH 716 0
DWIDTH 7 0
BBX 9 10 0 0
BITMAP
0000285010
00000A34A0
0000000630
07AE10E600
A49C03F200
D0D707E000
22F30AB000
05E00E6000
07E07E1000
03DEC40000
ENDCHAR
STARTCHAR uni1EED
ENCODING 7917
SWIDTH 505 0
DWIDTH 5 0
BBX 7 7 -1 0
BITMAP
00079000
00084760
06F1EC10
0AC3F500
0D96F100
1F6BD230
0CD7E900
ENDCHAR
STARTCHAR uni1EEE
ENCODING 7918
SWIDTH 716 0
DWIDTH 7 0
BBX 9 9 0 0
BITMAP
00017EC590
0000000750
07AE10E700
A49C03F300
D0D707E000
22F30AB000
05E00E6000
07E07E1000
03DEC40000
ENDCHAR
STARTCHAR uni1EEF
ENCODING 7919
SWIDTH 505 0
DWIDTH 5 0
BBX 7 7 -1 0
BITMAP
005E9550
00021830
06F1E700
0AC3F400
0D96F100
1F6BD230
0CD7E900
ENDCHAR
STARTCHAR uni1EF0
ENCODING 7920
SWIDTH 716 0
DWIDTH 7 0
BBX 9 12 0 -2
BITMAP
0000000140
0000000490
0000000520
07AE10E500
A49C03F200
D0D707E000
22F30AA000
05E00E6000
07E07E1000
03DEC40000
0035000000
008B000000
ENDCHAR
STARTCHAR uni1EF1
ENCODING 7921
SWIDTH 505 0
DWIDTH 5 0
BBX 7 9 -1 -2
BITMAP
00000560
00000720
06F1E700
0AC3F400
0D96F100
1F6BD230
0CD7E900
00710000
01E30000
ENDCHAR
STARTCHAR Ygrave
ENCODING 7922
SWIDTH 620 0
DWIDTH 6 0
BBX 7 10 0 0
BITMAP
00008400
00005700
00000000
06AF10A0
864F5540
D01F9900
200BE500
000AE000
000DB000
002F7000
ENDCHAR
STARTCHAR ygrave
ENCODING 7923
SWIDTH 505 0
DWIDTH 5 0
BBX 7 9 -1 -2
BITMAP
001E0000
00091000
06F1E700
0AC3F400
0D96F100
1F6BC410
0CDEB300
038F5000
06DB0000
ENDCHAR
STARTCHAR uni1EF4
ENCODING 7924
SWIDTH 620 0
DWIDTH 6 0
BBX 7 9 0 -2
BITMAP
06AF10A0
864F5540
D01F9900
200BE500
000AE000
000DB000
002F7000
00260000
005D0000
ENDCHAR
STARTCHAR uni1EF5
ENCODING 7925
SWIDTH 505 0
DWIDTH 5 0
BBX 7 7 -1 -2
BITMAP
06F1E700
0AC3F400
0D96F100
1F6BC410
0CDEB300
037F6200
06DB6A00
ENDCHAR
STARTCHAR uni1EF6
ENCODING 7926
SWIDTH 620 0
DWIDTH 6 0
BBX 7 10 0 0
BITMAP
00002850
00000A30
00000000
06AF10A0
864F5540
D01F9900
200BE500
000AE000
000DB000
002F7000
ENDCHAR
STARTCHAR uni1EF7
ENCODING 7927
SWIDTH 505 0
DWIDTH 5 0
BBX 7 9 -1 -2
BITMAP
000E8000
00000000
06F1E700
0AC3F400
0D96F100
1F6BC410
0CDEB300
038F5000
06DB0000
ENDCHAR
STARTCHAR uni1EF8
ENCODING 7928
SWIDTH 620 0
DWIDTH 6 0
BBX 7 9 0 0
BITMAP
0002AEA0
00000000
06AF10A0
864F5540
D01F9900
200BE500
000AE000
000DB000
002F7000
ENDCHAR
STARTCHAR uni1EF9
ENCODING 7929
SWIDTH 505 0
DWIDTH 5 0
BBX 7 9 -1 -2
BITMAP
008EC500
00013000
06F1E700
0AC3F400
0D96F100
1F6BC410
0CDEB300
038F5000
06DB0000
ENDCHAR
STARTCHAR uni2010
ENCODING 8208
SWIDTH 290 0
DWIDTH 3 0
BBX 3 1 0 2
BITMAP
8C30
ENDCHAR
STARTCHAR endash
ENCODING 8211
SWIDTH 352 0
DWIDTH 4 0
BBX 3 1 0 2
BITMAP
8CA0
ENDCHAR
STARTCHAR emdash
ENCODING 8212
SWIDTH 444 0
DWIDTH 4 0
BBX 4 1 0 2
BITMAP
8CC9
ENDCHAR
STARTCHAR quoteleft
ENCODING 8216
SWIDTH 209 0
DWIDTH 2 0
BBX 2 3 1 5
BITMAP
01
A0
D3
ENDCHAR
STARTCHAR quoteright
ENCODING 8217
SWIDTH 238 0
DWIDTH 2 0
BBX 2 3 1 4
BITMAP
D3
91
10
ENDCHAR
STARTCHAR quotesinglbase
ENCODING 8218
SWIDTH 220 0
DWIDTH 2 0
BBX 2 3 0 -2
BITMAP
D2
91
10
ENDCHAR
STARTCHAR quotedblleft
ENCODING 8220
SWIDTH 429 0
DWIDTH 4 0
BBX 4 3 1 5
BITMAP
0111
A1A0
D4E2
ENDCHAR
STARTCHAR quotedblright
ENCODING 8221
SWIDTH 426 0
DWIDTH 4 0
BBX 4 3 1 4
BITMAP
B5C4
8282
1010
ENDCHAR
STARTCHAR quotedblbase
ENCODING 8222
SWIDTH 440 0
DWIDTH 4 0
BBX 4 3 0 -2
BITMAP
D3D2
91A0
1010
ENDCHAR
STARTCHAR dagger
ENCODING 8224
SWIDTH 495 0
DWIDTH 5 0
BBX 5 9 0 -2
BITMAP
002900
007400
3EFE70
12B210
029000
056000
083000
0B0000
0B0000
ENDCHAR
STARTCHAR daggerdbl
ENCODING 8225
SWIDTH 495 0
DWIDTH 5 0
BBX 5 9 0 -2
BITMAP
002900
007400
3EFE70
12B210
9EFE10
276200
092000
0B0000
0B0000
ENDCHAR
STARTCHAR bullet
ENCODING 8226
SWIDTH 434 0
DWIDTH 4 0
BBX 3 2 1 2
BITMAP
7B00
9D10
ENDCHAR
STARTCHAR ellipsis
ENCODING 8230
SWIDTH 702 0
DWIDTH 7 0
BBX 7 2 0 0
BITMAP
35170530
8B3E2B80
ENDCHAR
STARTCHAR perthousand
ENCODING 8240
SWIDTH 1175 0
DWIDTH 12 0
BBX 12 7 0 0
BITMAP
089607400000
5A4A19000000
778592000000
286476980995
000A2C1C5959
00645A498676
01A02B914A80
ENDCHAR
STARTCHAR minute
ENCODING 8242
SWIDTH 196 0
DWIDTH 2 0
BBX 3 3 0 4
BITMAP
0B30
1B00
2300
ENDCHAR
STARTCHAR second
ENCODING 8243
SWIDTH 341 0
DWIDTH 3 0
BBX 4 3 0 4
BITMAP
0B7A
1B83
2340
ENDCHAR
STARTCHAR guilsinglleft
ENCODING 8249
SWIDTH 359 0
DWIDTH 4 0
BBX 4 4 0 1
BITMAP
0012
0671
9400
0660
ENDCHAR
STARTCHAR guilsinglright
ENCODING 8250
SWIDTH 344 0
DWIDTH 3 0
BBX 4 4 0 1
BITMAP
1200
1850
01A3
5720
ENDCHAR
STARTCHAR fraction
ENCODING 8260
SWIDTH 248 0
DWIDTH 2 0
BBX 5 7 -1 0
BITMAP
000280
000A10
005600
01A000
083000
290000
A10000
ENDCHAR
STARTCHAR uni2052
ENCODING 8274
SWIDTH 796 0
DWIDTH 8 0
BBX 6 7 1 0
BITMAP
6C0074
260190
000920
004700
00A000
064062
1A00D5
ENDCHAR
STARTCHAR uni2070
ENCODING 8304
SWIDTH 379 0
DWIDTH 4 0
BBX 4 4 0 3
BITMAP
0896
5A4A
7785
2860
ENDCHAR
STARTCHAR uni2074
ENCODING 8308
SWIDTH 352 0
DWIDTH 4 0
BBX 4 4 0 3
BITMAP
0B74
0AB2
48E2
03A0
ENDCHAR
STARTCHAR uni2075
ENCODING 8309
SWIDTH 335 0
DWIDTH 3 0
BBX 4 5 0 3
BITMAP
0110
0A91
1990
55D1
2650
ENDCHAR
STARTCHAR uni2076
ENCODING 8310
SWIDTH 351 0
DWIDTH 4 0
BBX 4 4 0 3
BITMAP
0874
5C91
7792
2850
ENDCHAR
STARTCHAR uni2077
ENCODING 8311
SWIDTH 329 0
DWIDTH 3 0
BBX 4 5 0 2
BITMAP
5DD1
0450
1B00
5800
1300
ENDCHAR
STARTCHAR uni2078
ENCODING 8312
SWIDTH 354 0
DWIDTH 4 0
BBX 4 4 0 3
BITMAP
0A74
0AB1
66C3
2770
ENDCHAR
STARTCHAR uni2079
ENCODING 8313
SWIDTH 345 0
DWIDTH 3 0
BBX 4 5 0 2
BITMAP
18A1
5695
17B4
21C0
3620
ENDCHAR
STARTCHAR uni2080
ENCODING 8320
SWIDTH 379 0
DWIDTH 4 0
BBX 4 4 0 0
BITMAP
0896
4A4A
7777
4A90
ENDCHAR
STARTCHAR uni2081
ENCODING 8321
SWIDTH 229 0
DWIDTH 2 0
BBX 3 4 0 0
BITMAP
3D10
1C00
3900
7600
ENDCHAR
STARTCHAR uni2082
ENCODING 8322
SWIDTH 328 0
DWIDTH 3 0
BBX 4 4 0 0
BITMAP
18B1
04C1
0820
6C90
ENDCHAR
STARTCHAR uni2083
ENCODING 8323
SWIDTH 336 0
DWIDTH 3 0
BBX 4 4 0 0
BITMAP
0992
05A1
34C1
48A0
ENDCHAR
STARTCHAR uni2084
ENCODING 8324
SWIDTH 352 0
DWIDTH 4 0
BBX 4 4 0 0
BITMAP
0B74
0AB2
48E2
03A0
ENDCHAR
STARTCHAR uni2085
ENCODING 8325
SWIDTH 335 0
DWIDTH 3 0
BBX 4 5 0 0
BITMAP
0110
0991
1990
34D2
5790
ENDCHAR
STARTCHAR uni2086
ENCODING 8326
SWIDTH 351 0
DWIDTH 4 0
BBX 4 4 0 0
BITMAP
0874
4C91
7883
4A80
ENDCHAR
STARTCHAR uni2087
ENCODING 8327
SWIDTH 329 0
DWIDTH 3 0
BBX 4 4 0 0
BITMAP
5DD1
0540
2A00
5800
ENDCHAR
STARTCHAR uni2088
ENCODING 8328
SWIDTH 354 0
DWIDTH 4 0
BBX 4 4 0 0
BITMAP
0A74
0AA1
48C3
49A1
ENDCHAR
STARTCHAR uni2089
ENCODING 8329
SWIDTH 345 0
DWIDTH 3 0
BBX 4 4 0 0
BITMAP
18A2
5695
28C2
5760
ENDCHAR
STARTCHAR colonmonetary
ENCODING 8353
SWIDTH 384 0
DWIDTH 4 0
BBX 5 8 0 -1
BITMAP
008700
07BB00
7B0910
C50000
C60100
5ED300
465000
110000
ENDCHAR
STARTCHAR franc
ENCODING 8355
SWIDTH 529 0
DWIDTH 5 0
BBX 6 7 0 0
BITMAP
00BEC8
00C800
01FD70
04F100
07E000
6DD700
0E7000
ENDCHAR
STARTCHAR lira
ENCODING 8356
SWIDTH 455 0
DWIDTH 5 0
BBX 6 7 0 0
BITMAP
008BC1
04F250
4CD710
6EB700
0F5000
4E2250
BFFF90
ENDCHAR
STARTCHAR uni20A6
ENCODING 8358
SWIDTH 723 0
DWIDTH 7 0
BBX 8 7 0 0
BITMAP
008E00D1
00CF21D0
00EF65A0
49DECBA5
6BBCED94
0B34FD00
0E01F900
ENDCHAR
STARTCHAR uni20A9
ENCODING 8361
SWIDTH 841 0
DWIDTH 8 0
BBX 10 7 0 0
BITMAP
0AC02F50A1
0AC08F5190
09D0BF5630
4CE9BFAC81
6BEB8FBA70
08E70FC100
07F20F9000
ENDCHAR
STARTCHAR Euro
ENCODING 8364
SWIDTH 507 0
DWIDTH 5 0
BBX 6 7 0 0
BITMAP
004CDA
05F349
4ED760
6FC840
0F9000
0BD250
03DE60
ENDCHAR
STARTCHAR uni20AE
ENCODING 8366
SWIDTH 481 0
DWIDTH 5 0
BBX 8 7 0 0
BITMAP
19CFFFE1
B53F4000
D06F1100
35BD7300
47EC7200
34F50000
05F20000
ENDCHAR
STARTCHAR uni20B3
ENCODING 8371
SWIDTH 573 0
DWIDTH 6 0
BBX 6 7 0 0
BITMAP
1788A5
B4D94D
92F599
1AF960
08E000
3CD820
0E8000
ENDCHAR
STARTCHAR uni20B4
ENCODING 8372
SWIDTH 570 0
DWIDTH 6 0
BBX 6 7 0 0
BITMAP
0679D2
0805D2
38CB83
5BC871
4F17A0
8E03F1
3CCB50
ENDCHAR
STARTCHAR uni20B8
ENCODING 8376
SWIDTH 522 0
DWIDTH 5 0
BBX 8 7 0 0
BITMAP
18888884
07BDDEE3
9A1E6110
D33F3000
117E0000
00BB0000
00E70000
ENDCHAR
STARTCHAR uni20B9
ENCODING 8377
SWIDTH 544 0
DWIDTH 5 0
BBX 6 8 0 -1
BITMAP
079B86
288EB4
002D40
39E700
008E00
009C00
00D900
008700
ENDCHAR
STARTCHAR uni20BA
ENCODING 8378
SWIDTH 455 0
DWIDTH 5 0
BBX 6 7 0 0
BITMAP
00D900
02F820
39F630
3AE630
3DA0B3
1F63D1
4FC920
ENDCHAR
STARTCHAR uni20BD
ENCODING 8381
SWIDTH 573 0
DWIDTH 6 0
BBX 6 7 0 0
BITMAP
1788A5
B4D94D
92F599
3AF960
08E000
5CD600
0E8000
ENDCHAR
STARTCHAR uni2116
ENCODING 8470
SWIDTH 996 0
DWIDTH 10 0
BBX 10 7 0 0
BITMAP
17BE00D275
A4CF41D768
D2ED759B48
35BAB86691
0876EC4CC5
0B33FE0000
0E00EA0000
ENDCHAR
STARTCHAR uni2120
ENCODING 8480
SWIDTH 585 0
DWIDTH 6 0
BBX 5 4 1 4
BITMAP
242330
657950
499B30
555510
ENDCHAR
STARTCHAR trademark
ENCODING 8482
SWIDTH 379 0
DWIDTH 4 0
BBX 5 3 -1 4
BITMAP
075460
172A70
074960
ENDCHAR
STARTCHAR uni2126
ENCODING 8486
SWIDTH 745 0
DWIDTH 7 0
BBX 7 8 0 0
BITMAP
0019DC30
01C405C0
094000D0
0D0000D0
1C0003A0
0C000930
06606500
8CA2DC50
ENDCHAR
STARTCHAR uni212A
ENCODING 8490
SWIDTH 601 0
DWIDTH 6 0
BBX 7 7 0 0
BITMAP
17BC2A30
C2DA9100
61FCA200
04F1E600
08D1F400
0BA4F100
0E74F100
ENDCHAR
STARTCHAR uni212B
ENCODING 8491
SWIDTH 668 0
DWIDTH 7 0
BBX 8 11 0 -1
BITMAP
00000161
00000481
00003CC0
0003ACA0
000C2E70
4ACB7F30
B4E16F00
08A09C00
0E50D900
2F20A400
0A100000
ENDCHAR
STARTCHAR estimated
ENCODING 8494
SWIDTH 786 0
DWIDTH 8 0
BBX 8 8 0 0
BITMAP
00799600
0B6008A0
5F5006F4
9FB88AC6
9F500000
5F500000
0B600540
00799600
ENDCHAR
STARTCHAR uni2153
ENCODING 8531
SWIDTH 733 0
DWIDTH 7 0
BBX 8 8 0 0
BITMAP
03100000
3E001900
1B009200
58047000
320A19A2
006405A0
01A044D1
092058A0
ENDCHAR
STARTCHAR uni2154
ENCODING 8532
SWIDTH 852 0
DWIDTH 9 0
BBX 9 7 0 0
BITMAP
18B100A000
03B0074000
0710190000
5BB0928840
0004704A20
000A025B30
0064038A10
ENDCHAR
STARTCHAR oneeighth
ENCODING 8539
SWIDTH 741 0
DWIDTH 7 0
BBX 8 8 0 0
BITMAP
03100000
3E001900
1B009200
58047000
320A0B73
00640C91
01A067D1
092068A0
ENDCHAR
STARTCHAR threeeighths
ENCODING 8540
SWIDTH 828 0
DWIDTH 8 0
BBX 9 7 0 0
BITMAP
09A2038000
03A00A1000
55D1650000
2761A1B810
000831D800
0038086D00
00A1087900
ENDCHAR
STARTCHAR fiveeighths
ENCODING 8541
SWIDTH 827 0
DWIDTH 8 0
BBX 9 8 0 0
BITMAP
0110000000
0A91038000
19900A1000
55D1650000
2651A1B810
000831D800
0038086D00
00A1087900
ENDCHAR
STARTCHAR seveneighths
ENCODING 8542
SWIDTH 761 0
DWIDTH 8 0
BBX 8 7 0 0
BITMAP
5DD10A00
04507400
1B019000
58092975
133709B2
00A038C4
065039A1
ENDCHAR
STARTCHAR partialdiff
ENCODING 8706
SWIDTH 597 0
DWIDTH 6 0
BBX 6 8 0 0
BITMAP
004BC4
00202C
00000C
03BC9C
2B2069
8400B3
870780
2BB700
ENDCHAR
STARTCHAR uni2206
ENCODING 8710
SWIDTH 619 0
DWIDTH 6 0
BBX 7 8 0 0
BITMAP
00019100
0009E300
003AA600
00B27800
05805A00
1C103D00
86001F00
BCCCCD10
ENDCHAR
STARTCHAR product
ENCODING 8719
SWIDTH 661 0
DWIDTH 7 0
BBX 7 8 0 0
BITMAP
6CCCDC40
0840C000
0B11B000
0C048000
39084000
660B1000
A20C0000
40140000
ENDCHAR
STARTCHAR summation
ENCODING 8721
SWIDTH 605 0
DWIDTH 6 0
BBX 7 8 0 0
BITMAP
05DCCC10
02D00000
00960000
002D0000
004B0000
03B10000
2C100000
9DCCA000
ENDCHAR
STARTCHAR minus
ENCODING 8722
SWIDTH 471 0
DWIDTH 5 0
BBX 4 1 0 3
BITMAP
6CCB
ENDCHAR
STARTCHAR uni2215
ENCODING 8725
SWIDTH 488 0
DWIDTH 5 0
BBX 5 8 0 0
BITMAP
000050
000650
001A00
008300
029000
092000
380000
A10000
ENDCHAR
STARTCHAR uni2219
ENCODING 8729
SWIDTH 434 0
DWIDTH 4 0
BBX 3 2 1 2
BITMAP
8C00
9D10
ENDCHAR
STARTCHAR radical
ENCODING 8730
SWIDTH 660 0
DWIDTH 7 0
BBX 7 8 0 0
BITMAP
0000CC30
00057000
000A2000
001B0000
00560000
98A10000
1C900000
0B400000
ENDCHAR
STARTCHAR infinity
ENCODING 8734
SWIDTH 833 0
DWIDTH 8 0
BBX 8 4 0 1
BITMAP
08C52AB1
571CA194
852BA0B1
3C918C50
ENDCHAR
STARTCHAR integral
ENCODING 8747
SWIDTH 305 0
DWIDTH 3 0
BBX 5 10 -1 -2
BITMAP
000860
004900
008500
00B200
00D000
02A000
067000
094000
0C1000
960000
ENDCHAR
STARTCHAR approxequal
ENCODING 8776
SWIDTH 441 0
DWIDTH 4 0
BBX 5 4 0 0
BITMAP
2CCC50
100000
7CCB00
100000
ENDCHAR
STARTCHAR notequal
ENCODING 8800
SWIDTH 500 0
DWIDTH 5 0
BBX 5 6 0 0
BITMAP
001000
006200
1FFF90
029210
8FFF20
164200
ENDCHAR
STARTCHAR lessequal
ENCODING 8804
SWIDTH 405 0
DWIDTH 4 0
BBX 4 5 0 1
BITMAP
005A
3C71
19A2
0033
BCC7
ENDCHAR
STARTCHAR greaterequal
ENCODING 8805
SWIDTH 405 0
DWIDTH 4 0
BBX 4 5 0 1
BITMAP
0A60
009C
19A2
3200
ACC8
ENDCHAR
STARTCHAR lozenge
ENCODING 9674
SWIDTH 619 0
DWIDTH 6 0
BBX 6 8 0 0
BITMAP
000630
006BB0
03B0C2
1C1077
770059
2B02B0
0B3B10
05E300
ENDCHAR
STARTCHAR uni27E8
ENCODING 10216
SWIDTH 456 0
DWIDTH 5 0
BBX 5 11 0 -2
BITMAP
000140
000810
006400
037000
190000
630000
190000
046000
008100
001900
000200
ENDCHAR
STARTCHAR uni27E9
ENCODING 10217
SWIDTH 456 0
DWIDTH 5 0
BBX 4 11 0 -2
BITMAP
2000
2700
0730
0090
0037
0009
0037
0190
0810
6400
4000
ENDCHAR
STARTCHAR ff
ENCODING 64256
SWIDTH 508 0
DWIDTH 5 0
BBX 9 9 -2 -2
BITMAP
0008E9DD20
002F5BB110
006F7FA300
009C3F4000
00D97F0000
01F5AC0000
06F5E80000
89D3F50000
CE9EA00000
ENDCHAR
STARTCHAR fi
ENCODING 64257
SWIDTH 534 0
DWIDTH 5 0
BBX 8 9 -2 -2
BITMAP
0006C990
001F5360
006F6BA0
009C0E70
00D93F40
01F65F25
06F23EB1
8AD00000
BE500000
ENDCHAR
STARTCHAR fl
ENCODING 64258
SWIDTH 548 0
DWIDTH 5 0
BBX 8 9 -2 -2
BITMAP
0008C992
002F45F2
006F68D0
009C0CA0
00D90F60
01F53F46
07F22EC2
8BD00000
CE500000
ENDCHAR
STARTCHAR ffi
ENCODING 64259
SWIDTH 764 0
DWIDTH 8 0
BBX 10 9 -2 -2
BITMAP
0008D9C9B1
002F4C9180
006F8F9BF0
009C5F2AC0
00D98D0D80
01F6BA1F66
07F6E60DD4
9AD4F30000
CEAD900000
ENDCHAR
STARTCHAR ffl
ENCODING 64260
SWIDTH 780 0
DWIDTH 8 0
BBX 11 9 -2 -2
BITMAP
0008DAD9A400
002F4D90F600
006F8F96F300
009C5F27E000
00D98D0AB000
01F6BA0D8510
07F6E60BE600
9AD4F3000000
CEAD90000000
ENDCHAR
STARTCHAR .notdef
ENCODING -1
SWIDTH 810 0
DWIDTH 8 0
BBX 8 13 0 -3
BITMAP
00466668
00600006
00600006
01500005
04247333
06086660
06027060
06040060
14070150
51000420
60000600
60000600
86666500
ENDCHAR
STARTCHAR A.salt
ENCODING -1
SWIDTH 590 0
DWIDTH 6 0
BBX 7 8 0 -1
BITMAP
0003BE10
00399D00
01C1C900
09B8F600
2F14F200
8B07E000
C60BB000
A5000000
ENDCHAR
STARTCHAR B.salt
ENCODING -1
SWIDTH 633 0
DWIDTH 6 0
BBX 6 7 0 0
BITMAP
188996
B4C86B
81F9E5
04F19E
08D0AD
0BA2E7
0EDEA0
ENDCHAR
STARTCHAR E.salt
ENCODING -1
SWIDTH 554 0
DWIDTH 6 0
BBX 6 7 0 0
BITMAP
19DFFD
A4D921
D2F500
35FC70
08E000
0CA000
0FFFA0
ENDCHAR
STARTCHAR N.salt
ENCODING -1
SWIDTH 669 0
DWIDTH 7 0
BBX 7 7 0 0
BITMAP
06CECD20
86EB1F60
D3F62F40
26F36E00
09E0AB00
0DB0D850
1F70AE50
ENDCHAR
STARTCHAR i.loclTRK
ENCODING -1
SWIDTH 267 0
DWIDTH 3 0
BBX 4 7 -1 0
BITMAP
01D4
0062
06F1
0AC0
0D90
1F66
0CD4
ENDCHAR
STARTCHAR a.end
ENCODING -1
SWIDTH 467 0
DWIDTH 5 0
BBX 6 5 -1 0
BITMAP
01BADA
0AC0E7
0F72F4
1F67F1
0BD7E6
ENDCHAR
STARTCHAR aacute.end
ENCODING -1
SWIDTH 461 0
DWIDTH 5 0
BBX 6 7 -1 0
BITMAP
0000C2
000340
01BAD9
0AC0F6
1F63F3
2F58F0
0CD7E5
ENDCHAR
STARTCHAR c.end
ENCODING -1
SWIDTH 341 0
DWIDTH 3 0
BBX 5 5 -1 0
BITMAP
01BA60
0AB240
1F6000
3F5200
0BE800
ENDCHAR
STARTCHAR d.end
ENCODING -1
SWIDTH 476 0
DWIDTH 5 0
BBX 7 7 -1 0
BITMAP
00004C20
00008E00
01BADA00
0AC0E700
0F73F400
1F68F100
0BE7E700
ENDCHAR
STARTCHAR e.end
ENCODING -1
SWIDTH 366 0
DWIDTH 4 0
BBX 5 5 -1 0
BITMAP
01AA70
09B670
0FA600
2F7200
0BE900
ENDCHAR
STARTCHAR eacute.end
ENCODING -1
SWIDTH 367 0
DWIDTH 4 0
BBX 5 7 -1 0
BITMAP
0005A0
000610
01AA80
09C670
0FA600
1F7200
0BE900
ENDCHAR
STARTCHAR uni0292.end
ENCODING -1
SWIDTH 391 0
DWIDTH 4 0
BBX 4 7 0 -2
BITMAP
99F8
48D0
3F40
1BB0
19F0
89E0
BE50
ENDCHAR
STARTCHAR g.end
ENCODING -1
SWIDTH 480 0
DWIDTH 5 0
BBX 6 7 -1 -2
BITMAP
01BADA
0AC0E7
0F73F3
1F67F0
0BEEC0
036E80
03DC20
ENDCHAR
STARTCHAR uni01E5.end
ENCODING -1
SWIDTH 507 0
DWIDTH 5 0
BBX 6 7 -1 -2
BITMAP
01BADA
0AC0E7
0F73F3
1F67E0
0BFEB0
07BFB1
03DC10
ENDCHAR
STARTCHAR h.end
ENCODING -1
SWIDTH 453 0
DWIDTH 5 0
BBX 6 7 -1 0
BITMAP
00B600
03F300
06FCE2
0AD3F3
0D95F1
1F68D0
4F25E4
ENDCHAR
STARTCHAR i.end
ENCODING -1
SWIDTH 209 0
DWIDTH 2 0
BBX 4 7 -1 0
BITMAP
01D4
0062
06F1
0AC0
0D90
1F60
0CC0
ENDCHAR
STARTCHAR iacute.end
ENCODING -1
SWIDTH 209 0
DWIDTH 2 0
BBX 4 7 -1 0
BITMAP
004A
0061
06F1
0AC0
0D90
1F60
0CC0
ENDCHAR
STARTCHAR ij.end
ENCODING -1
SWIDTH 480 0
DWIDTH 5 0
BBX 6 10 -1 -2
BITMAP
007226
01D55D
000000
06F1CA
0AC0F7
0D93F3
1F67F0
0CECC0
037E80
03DC20
ENDCHAR
STARTCHAR j.end
ENCODING -1
SWIDTH 213 0
DWIDTH 2 0
BBX 5 10 -2 -2
BITMAP
000710
001D40
000000
006F00
00AC00
00D800
01F500
17F200
89D000
CE5000
ENDCHAR
STARTCHAR k.end
ENCODING -1
SWIDTH 472 0
DWIDTH 5 0
BBX 6 7 -1 0
BITMAP
00C600
03F400
06F293
09ED70
0DB8F2
1F67F0
4F34E6
ENDCHAR
STARTCHAR l.end
ENCODING -1
SWIDTH 207 0
DWIDTH 2 0
BBX 4 7 -1 0
BITMAP
00C6
03F3
07F0
0AC0
0D80
1F60
0DC0
ENDCHAR
STARTCHAR m.end
ENCODING -1
SWIDTH 701 0
DWIDTH 7 0
BBX 8 5 -1 0
BITMAP
06FBE7E8
0AD3F5BB
0D96F1D8
1F69D1F5
4F2CA0DA
ENDCHAR
STARTCHAR n.end
ENCODING -1
SWIDTH 454 0
DWIDTH 5 0
BBX 6 5 -1 0
BITMAP
06FCE2
0AD3F4
0D95F1
1F68D0
4F25E4
ENDCHAR
STARTCHAR o.end
ENCODING -1
SWIDTH 487 0
DWIDTH 5 0
BBX 6 5 -1 0
BITMAP
01AB82
09C2E4
0F72B0
2F6770
0BEA00
ENDCHAR
STARTCHAR oacute.end
ENCODING -1
SWIDTH 487 0
DWIDTH 5 0
BBX 6 7 -1 0
BITMAP
0003B0
000510
01AB82
09D2E4
0F71B0
1F6770
0AEA00
ENDCHAR
STARTCHAR s.end
ENCODING -1
SWIDTH 316 0
DWIDTH 3 0
BBX 5 6 -1 0
BITMAP
002500
00CF00
03AF10
086F20
486F10
1BD700
ENDCHAR
STARTCHAR t.end
ENCODING -1
SWIDTH 276 0
DWIDTH 3 0
BBX 3 7 0 0
BITMAP
0630
3F40
8F50
9D00
C900
F700
CA00
ENDCHAR
STARTCHAR u.end
ENCODING -1
SWIDTH 459 0
DWIDTH 5 0
BBX 6 5 -1 0
BITMAP
06F1E7
0AC3F4
0D96F1
1F6BD0
0CD7E5
ENDCHAR
STARTCHAR uacute.end
ENCODING -1
SWIDTH 459 0
DWIDTH 5 0
BBX 6 7 -1 0
BITMAP
0003B0
000510
06F1E7
0AC3F4
0D96F1
1F6BD0
0CD7E5
ENDCHAR
STARTCHAR x.end
ENCODING -1
SWIDTH 500 0
DWIDTH 5 0
BBX 5 6 0 0
BITMAP
0002B0
09E3A0
51DA60
60CC00
15CD00
463E70
ENDCHAR
STARTCHAR y.end
ENCODING -1
SWIDTH 460 0
DWIDTH 5 0
BBX 6 7 -1 -2
BITMAP
06F1E7
0AC3F4
0D96F1
1F6BC0
0CDE90
056F50
06DB00
ENDCHAR
STARTCHAR k.salt
ENCODING -1
SWIDTH 518 0
DWIDTH 5 0
BBX 7 7 -1 0
BITMAP
00B60000
03F40000
06F3C500
09EC7000
0DB8F200
1F67F140
4F34EB10
ENDCHAR
STARTCHAR p.salt
ENCODING -1
SWIDTH 482 0
DWIDTH 5 0
BBX 7 9 -1 -3
BITMAP
02810000
07FBD100
0AD1E500
0D91EA20
1F8BD000
4F7D4000
8E000000
BB000000
41000000
ENDCHAR
STARTCHAR E_x
ENCODING -1
SWIDTH 797 0
DWIDTH 8 0
BBX 9 7 0 0
BITMAP
02B9A00000
09A1404900
07E26F1900
5F503F9400
CE001F8000
DD008E9430
6EDA37E700
ENDCHAR
STARTCHAR F_i
ENCODING -1
SWIDTH 726 0
DWIDTH 7 0
BBX 8 7 0 0
BITMAP
29CFFFE1
C3AB1430
70DD7D90
02F31F60
05F04F20
09C07F16
0C904EA1
ENDCHAR
STARTCHAR T_h
ENCODING -1
SWIDTH 971 0
DWIDTH 10 0
BBX 10 7 0 0
BITMAP
19CFDCC300
B62F46E000
D06F19DDB0
109C0C97E0
00D91F4AB0
01F54F1D85
05F28E0AE6
ENDCHAR
STARTCHAR T_i
ENCODING -1
SWIDTH 744 0
DWIDTH 7 0
BBX 8 7 0 0
BITMAP
19AFFFF4
B42F5560
D06F1AC0
009C0D90
00D91F50
01F54F35
05F22EC2
ENDCHAR
STARTCHAR a_x
ENCODING -1
SWIDTH 899 0
DWIDTH 9 0
BBX 11 6 -1 0
BITMAP
000000002400
01B9DA6F2A00
0AC0E73F6600
0F72F41F9000
1F67F26E9330
0BE6DD57E800
ENDCHAR
STARTCHAR a_z
ENCODING -1
SWIDTH 906 0
DWIDTH 9 0
BBX 10 5 -1 0
BITMAP
01BADA6AEC
0AC0E744F3
0F72F40C90
1F67F15E35
0BD7E6DEC5
ENDCHAR
STARTCHAR b_s
ENCODING -1
SWIDTH 799 0
DWIDTH 8 0
BBX 9 7 0 0
BITMAP
0C60000000
3F40003000
6FCA0AF200
AC1F66F300
D91E03F400
F67996F710
BEA18DB300
ENDCHAR
STARTCHAR b_s_x
ENCODING -1
SWIDTH 1144 0
DWIDTH 11 0
BBX 12 8 0 0
BITMAP
032000000000
1F6000000000
4F30026100B2
7E7B1AF2E763
AB1F54F3C990
D81D03F49E30
F67996F7BE14
BEA18DB52EC3
ENDCHAR
STARTCHAR b_s_z
ENCODING -1
SWIDTH 1158 0
DWIDTH 12 0
BBX 12 7 0 0
BITMAP
0C6000000000
3F3000300000
6FBA0AF2BBF4
AC1F65F46AB0
D91E03F44F20
F67996F4C830
BEA18DB7FCC1
ENDCHAR
STARTCHAR c_x
ENCODING -1
SWIDTH 755 0
DWIDTH 8 0
BBX 9 6 -1 0
BITMAP
0000000410
01BA6D8850
0AB24AB810
1F6007F300
2F502BF260
0AEB71DD30
ENDCHAR
STARTCHAR c_z
ENCODING -1
SWIDTH 769 0
DWIDTH 8 0
BBX 9 5 -1 0
BITMAP
01BA68AF60
0AB247AC00
1F6003F300
3F520B9520
0BE85FDB10
ENDCHAR
STARTCHAR e_x
ENCODING -1
SWIDTH 762 0
DWIDTH 8 0
BBX 9 6 -1 0
BITMAP
0000000410
01AB8CA760
09C579D810
0FA606F300
1F702AF470
0AEB71CD30
ENDCHAR
STARTCHAR e_z
ENCODING -1
SWIDTH 788 0
DWIDTH 8 0
BBX 9 5 -1 0
BITMAP
01BC68AF90
0AB6646E10
1FA501D600
3F6208C440
0BE82FDC30
ENDCHAR
STARTCHAR eacute_x
ENCODING -1
SWIDTH 760 0
DWIDTH 8 0
BBX 9 7 -1 0
BITMAP
0003B00000
0005100410
01BA7C9760
0AB679C810
1FA606F200
2F603AF370
0AEB71CD30
ENDCHAR
STARTCHAR f_f_t
ENCODING -1
SWIDTH 780 0
DWIDTH 8 0
BBX 11 9 -2 -2
BITMAP
0008DAD9A400
002F4D91F600
006F8F99F600
009C5F28E000
00D98D0BB000
01F6BA0E8510
07F6E60BE600
9AD4F3000000
CEAD90000000
ENDCHAR
STARTCHAR f_i_x
ENCODING -1
SWIDTH 898 0
DWIDTH 9 0
BBX 12 9 -2 -2
BITMAP
0006C9900000
001F53500240
006F6BA6F2A0
009C0E74F650
00D93F41F900
01F65F26E933
06F23EC37E80
8AD000000000
BE5000000000
ENDCHAR
STARTCHAR f_i_z
ENCODING -1
SWIDTH 904 0
DWIDTH 9 0
BBX 11 9 -2 -2
BITMAP
0006C9900000
001F53600000
006F6BA6AEB0
009C0E745F30
00D93F40C900
01F65F16E340
06F23E8EEC50
8AD000000000
BE5000000000
ENDCHAR
STARTCHAR f_l_x
ENCODING -1
SWIDTH 912 0
DWIDTH 9 0
BBX 12 9 -2 -2
BITMAP
0008C9920000
002F45F20150
006F79D4F3B0
009C0CA1F770
00D90F60EB00
01F53F45DB24
07F22ED55E90
8BD000000000
CE5000000000
ENDCHAR
STARTCHAR f_l_z
ENCODING -1
SWIDTH 938 0
DWIDTH 9 0
BBX 12 9 -2 -2
BITMAP
0008C9920000
002F45F20000
006F68D2BBE2
009C0CA24D70
00D90F607D10
01F53F31E570
07F22E99FC90
8BD000000000
CE5000000000
ENDCHAR
STARTCHAR f_t
ENCODING -1
SWIDTH 548 0
DWIDTH 5 0
BBX 8 9 -2 -2
BITMAP
0008C992
002F46F1
006F6CD3
009C0C90
00D91F60
01F53F46
07F22EC2
8BD00000
CE500000
ENDCHAR
STARTCHAR f_u
ENCODING -1
SWIDTH 772 0
DWIDTH 8 0
BBX 10 9 -2 -2
BITMAP
0008E80000
002F520000
006F6DA4F2
009C0E78E0
00D83F4BB0
01F55F3E85
07F13EAAE5
8BD0000000
CE50000000
ENDCHAR
STARTCHAR f_x
ENCODING -1
SWIDTH 663 0
DWIDTH 7 0
BBX 9 9 -2 -2
BITMAP
0008E80000
002F510520
006F7DA660
009C09C810
00D908F300
01F567F460
07F2B4CD40
7AD0000000
CE50000000
ENDCHAR
STARTCHAR g_p
ENCODING -1
SWIDTH 975 0
DWIDTH 10 0
BBX 11 8 -1 -2
BITMAP
000000282000
01BADA6F9E30
0AC0E79D0E70
0F73F4CA0F50
1F68F1F76F20
0BEDE9FDD600
017E97E00000
03CD2A900000
ENDCHAR
STARTCHAR g_x
ENCODING -1
SWIDTH 892 0
DWIDTH 9 0
BBX 11 8 -1 -2
BITMAP
000000002400
01B9DA7E3A00
0AC0E74F5500
0F72F42F8000
1F67F16E8420
0BEDD528E700
017E80000000
03CD20000000
ENDCHAR
STARTCHAR g_z
ENCODING -1
SWIDTH 907 0
DWIDTH 9 0
BBX 10 7 -1 -2
BITMAP
01BADA6AEC
0AC0E744F3
0F73F30B90
2F68F05E35
0BEEC1DEC5
036E800000
04DC200000
ENDCHAR
STARTCHAR i_x
ENCODING -1
SWIDTH 631 0
DWIDTH 6 0
BBX 8 7 -1 0
BITMAP
01D40000
006200C1
06F2F581
0AC0EA70
0D90BD00
1F63CE16
0CD62EB1
ENDCHAR
STARTCHAR i_z
ENCODING -1
SWIDTH 637 0
DWIDTH 6 0
BBX 8 7 -1 0
BITMAP
01D40000
00620000
06F3BCE2
0AC24D70
0D907D10
1F61E570
0CCAFC90
ENDCHAR
STARTCHAR iacute_x
ENCODING -1
SWIDTH 631 0
DWIDTH 6 0
BBX 8 7 -1 0
BITMAP
00680000
001000C1
06F2F581
0AC0EA70
0D90BD00
1F63CE16
0CD62EB1
ENDCHAR
STARTCHAR iacute_z
ENCODING -1
SWIDTH 637 0
DWIDTH 6 0
BBX 8 7 -1 0
BITMAP
004A0000
00610000
06F2ACE2
0AC47D70
0D907D10
1F61E550
0CCAFC90
ENDCHAR
STARTCHAR j_x
ENCODING -1
SWIDTH 624 0
DWIDTH 6 0
BBX 9 10 -2 -2
BITMAP
0007100000
001E300000
0000001C00
006F3F4900
00AC0E9700
00D90CC000
02F64DD150
06F643EA10
9CD0000000
BE50000000
ENDCHAR
STARTCHAR j_z
ENCODING -1
SWIDTH 618 0
DWIDTH 6 0
BBX 8 10 -2 -2
BITMAP
00072000
001D4000
00000000
006F5ADD
009C34F5
00D90AB0
01F54F45
17F2CEB7
9BD00000
BE500000
ENDCHAR
STARTCHAR l_x
ENCODING -1
SWIDTH 631 0
DWIDTH 6 0
BBX 7 8 0 0
BITMAP
03200000
1F600000
4F300C10
7E2F5810
AC0EA700
D90BD000
F63CE160
CD72EB10
ENDCHAR
STARTCHAR l_z
ENCODING -1
SWIDTH 635 0
DWIDTH 6 0
BBX 8 7 -1 0
BITMAP
00C60000
03F30000
07F3BCE1
0AC24D70
0D808D00
1F62E570
0DCAFC90
ENDCHAR
STARTCHAR m_x
ENCODING -1
SWIDTH 1124 0
DWIDTH 11 0
BBX 13 6 -1 0
BITMAP
00000000001C00
06FDE8E82F4900
0AD3F5BB0F8700
0D96F1D80CC000
1F69D1F53DD150
4F2CA0CD64EA10
ENDCHAR
STARTCHAR m_z
ENCODING -1
SWIDTH 1125 0
DWIDTH 11 0
BBX 13 5 -1 0
BITMAP
06FBE7E84BCE10
0AD3F5BB24E600
0D96F1D809C000
1F69D1F53F4600
4F2CA0DABFB800
ENDCHAR
STARTCHAR n_z
ENCODING -1
SWIDTH 882 0
DWIDTH 9 0
BBX 10 5 -1 0
BITMAP
06FCE299F8
0AD3F457E1
0D95F11E60
1F68D09C42
4F25E6FDC2
ENDCHAR
STARTCHAR o_ae
ENCODING -1
SWIDTH 1089 0
DWIDTH 11 0
BBX 13 5 -1 0
BITMAP
01AB807ADBB800
09D3E710CC4800
0F81C2A9FB6000
1F6679C4F70610
0AEA06E99EA200
ENDCHAR
STARTCHAR o_s
ENCODING -1
SWIDTH 786 0
DWIDTH 8 0
BBX 9 6 -1 0
BITMAP
0000000200
01AB70CF00
09C2D77F10
0F72C05F20
2F678A6F60
0BEA1ADA20
ENDCHAR
STARTCHAR o_s_x
ENCODING -1
SWIDTH 1132 0
DWIDTH 11 0
BBX 13 6 -1 0
BITMAP
00000002000500
01AA70CF1F5B20
09C2D77F1E7900
0F72C05F2BD300
1F678A7F6CD040
0AEA19DB43EC20
ENDCHAR
STARTCHAR o_s_z
ENCODING -1
SWIDTH 1139 0
DWIDTH 11 0
BBX 13 6 -1 0
BITMAP
00000002000000
01AB70CF2BCF20
09D2D77F35C800
0F72C05F26D100
2F678A6F3E5300
0BEA1ADA9FCB00
ENDCHAR
STARTCHAR o_x
ENCODING -1
SWIDTH 851 0
DWIDTH 9 0
BBX 10 6 -1 0
BITMAP
0000000051
01AA81E884
09D2E7CB81
1F71B0AE20
2F66778F26
0BD90C2DC3
ENDCHAR
STARTCHAR oacute_s
ENCODING -1
SWIDTH 787 0
DWIDTH 8 0
BBX 10 7 -1 0
BITMAP
0003B00000
0005100200
01AB70BF00
09D2D77F10
0F72C05F20
1F678A7F61
0AEA19DA20
ENDCHAR
STARTCHAR oacute_s_x
ENCODING -1
SWIDTH 1141 0
DWIDTH 11 0
BBX 13 7 -1 0
BITMAP
0003B000000000
00051002000000
01AB80BF2BCF20
09D2D77F35C800
0F82C05F26D100
1F678A7F3E5300
0AEA19DA9FCB00
ENDCHAR
STARTCHAR oacute_s_z
ENCODING -1
SWIDTH 1140 0
DWIDTH 11 0
BBX 13 7 -1 0
BITMAP
0003B000000000
00051002000000
01AB70BF2BCF20
09D2D77F35C800
0F82C05F26D100
1F678A7F3E5300
0AEA19DA9FCB00
ENDCHAR
STARTCHAR oacute_x
ENCODING -1
SWIDTH 852 0
DWIDTH 9 0
BBX 10 7 -1 0
BITMAP
0003B00000
0005100041
01AA81E885
09D2E7CB81
0F71C0AF20
2F66778F26
0BD90C2DC3
ENDCHAR
STARTCHAR r_x
ENCODING -1
SWIDTH 784 0
DWIDTH 8 0
BBX 10 6 -1 0
BITMAP
0000000670
06F9BAB190
0AB147E720
0D8005F500
1F5046E751
4F20878E60
ENDCHAR
STARTCHAR r_z
ENCODING -1
SWIDTH 654 0
DWIDTH 7 0
BBX 8 5 -1 0
BITMAP
06FAEBF4
0AC14BA0
0D905F20
1F60D860
4F27FCB0
ENDCHAR
STARTCHAR s_x
ENCODING -1
SWIDTH 727 0
DWIDTH 7 0
BBX 9 6 -1 0
BITMAP
0036001C00
00CF2F4910
03AF1E9700
085F2BC000
496F8CD150
1BE813EB10
ENDCHAR
STARTCHAR s_z
ENCODING -1
SWIDTH 744 0
DWIDTH 7 0
BBX 9 6 -1 0
BITMAP
0013000000
00CF2BBF20
02BF24C800
086F16E100
396F2E6700
1BD88FCA00
ENDCHAR
STARTCHAR t_x
ENCODING -1
SWIDTH 631 0
DWIDTH 6 0
BBX 7 7 0 0
BITMAP
06300000
3F400700
8F7F5A10
9C0E8800
D90BD100
F63CD150
CD73EB10
ENDCHAR
STARTCHAR t_z
ENCODING -1
SWIDTH 704 0
DWIDTH 7 0
BBX 7 7 0 0
BITMAP
06300000
3F400000
8F56AEB0
9D045F30
C900C900
F706E340
CA1EEC50
ENDCHAR
STARTCHAR u_v
ENCODING -1
SWIDTH 923 0
DWIDTH 9 0
BBX 10 5 -1 0
BITMAP
06F1E78F3C
0AC3F49D09
0D96F1CA09
1F6BD0F774
0CDE90CE70
ENDCHAR
STARTCHAR u_x
ENCODING -1
SWIDTH 878 0
DWIDTH 9 0
BBX 11 6 -1 0
BITMAP
000000007600
06F1E79C1800
0AC3F46F8100
0D96F13F5000
1F6BD08F6610
0CD6EC3AE500
ENDCHAR
STARTCHAR y_p
ENCODING -1
SWIDTH 954 0
DWIDTH 10 0
BBX 11 8 -1 -2
BITMAP
000000370000
06F1E79FAD10
0AC3F4CA2F40
0D96F1F73F20
1F6BD3F39D00
0CDEDBFDD300
038F6AC00000
06DB1C600000
ENDCHAR
STARTCHAR y_x
ENCODING -1
SWIDTH 871 0
DWIDTH 9 0
BBX 10 8 -1 -2
BITMAP
0000000085
06F1E7AB27
0AC2F47E81
0D96F15F40
1F6BD09F56
0CDEB51BD4
038F500000
06DB000000
ENDCHAR
STARTCHAR y_z
ENCODING -1
SWIDTH 888 0
DWIDTH 9 0
BBX 10 7 -1 -2
BITMAP
06F1E789F9
0AC3F456E1
0D96F11E60
1F6BC08C43
0CDE92FDC3
056F500000
06DB000000
ENDCHAR
STARTCHAR a_x.end
ENCODING -1
SWIDTH 884 0
DWIDTH 9 0
BBX 10 6 -1 0
BITMAP
0000000024
01B9DA6F2A
0AC0E73F66
0F72F41F90
1F67F26E90
0BE6DD57E3
ENDCHAR
STARTCHAR b_s.end
ENCODING -1
SWIDTH 731 0
DWIDTH 7 0
BBX 8 7 0 0
BITMAP
0C600000
3F400030
6FCA0AF2
AC1F66F3
D91E03F4
F67996F4
BEA18DB0
ENDCHAR
STARTCHAR e_x.end
ENCODING -1
SWIDTH 747 0
DWIDTH 7 0
BBX 9 6 -1 0
BITMAP
0000000410
01AB8CA760
09C579D810
0FA606F300
1F702AF400
0AEB70CC00
ENDCHAR
STARTCHAR f_u.end
ENCODING -1
SWIDTH 724 0
DWIDTH 7 0
BBX 10 9 -2 -2
BITMAP
0008E80000
002F520000
006F6DA4F2
009C0E78E0
00D83F4BB0
01F55F3E80
07F13EA9D1
8BD0000000
CE50000000
ENDCHAR
STARTCHAR fi.end
ENCODING -1
SWIDTH 479 0
DWIDTH 5 0
BBX 7 9 -2 -2
BITMAP
0006C990
001F5360
006F6BA0
009C0E70
00D93F40
01F65F10
06F23E70
8AD00000
BE500000
ENDCHAR
STARTCHAR fl.end
ENCODING -1
SWIDTH 490 0
DWIDTH 5 0
BBX 8 9 -2 -2
BITMAP
0008C992
002F45F2
006F68D0
009C0CA0
00D90F60
01F53F30
07F22E90
8BD00000
CE500000
ENDCHAR
STARTCHAR i_x.end
ENCODING -1
SWIDTH 616 0
DWIDTH 6 0
BBX 8 7 -1 0
BITMAP
01D40000
006200C1
06F2F581
0AC0EA70
0D90BD00
1F63CE00
0CD62E70
ENDCHAR
STARTCHAR o_s.end
ENCODING -1
SWIDTH 718 0
DWIDTH 7 0
BBX 9 6 -1 0
BITMAP
0000000200
01AB70CF00
09C2D77F10
0F72C05F20
2F678A6F20
0BEA1ADA00
ENDCHAR
STARTCHAR oacute_s.end
ENCODING -1
SWIDTH 719 0
DWIDTH 7 0
BBX 9 7 -1 0
BITMAP
0003B00000
0005100200
01AB70BF00
09D2D77F10
0F72C05F20
1F678A7F20
0AEA19DA00
ENDCHAR
STARTCHAR u_x.end
ENCODING -1
SWIDTH 863 0
DWIDTH 9 0
BBX 10 6 -1 0
BITMAP
0000000076
06F1E79C18
0AC2F46F81
0D96F14F50
1F6AD08F60
0CD7EB3AD1
ENDCHAR
STARTCHAR uni0424.loclBGR
ENCODING -1
SWIDTH 840 0
DWIDTH 8 0
BBX 9 9 0 -1
BITMAP
0067980000
0490BA0000
0188FB9300
3E43F34E10
BB07F01F40
C90AC04F20
8C0D81D800
079FA95000
004D200000
ENDCHAR
STARTCHAR uni0492.loclBSH
ENCODING -1
SWIDTH 459 0
DWIDTH 5 0
BBX 6 7 0 0
BITMAP
29DFFD
C3D821
72FC70
05F000
08C000
0C9000
0F6000
ENDCHAR
STARTCHAR uni04AA.loclCHU
ENCODING -1
SWIDTH 497 0
DWIDTH 5 0
BBX 6 9 0 -2
BITMAP
02B9A2
0CA094
5F3000
AE0000
CD0000
BF2171
4DFB30
00A500
036300
ENDCHAR
STARTCHAR uni0418.loclSRB
ENCODING -1
SWIDTH 705 0
DWIDTH 7 0
BBX 8 7 0 0
BITMAP
05BD03F3
77BA0AF0
C1E78FC0
23FA9E80
06FA2F50
0AD05F10
0D809D00
ENDCHAR
STARTCHAR uni0419.loclSRB
ENCODING -1
SWIDTH 705 0
DWIDTH 7 0
BBX 8 10 0 0
BITMAP
00048060
00039810
00000000
05BD03F3
77BA0AF0
C1E78FC0
23FA9E80
06FA2F50
0AD05F10
0D809D00
ENDCHAR
STARTCHAR uni0430.end
ENCODING -1
SWIDTH 467 0
DWIDTH 5 0
BBX 6 5 -1 0
BITMAP
01BADA
0AC0E7
0F72F4
1F67F1
0BD7E6
ENDCHAR
STARTCHAR uni0432.end
ENCODING -1
SWIDTH 406 0
DWIDTH 4 0
BBX 5 7 -1 0
BITMAP
003CB0
00D690
06E180
0CAC80
1F72D0
1F64A0
0AEB10
ENDCHAR
STARTCHAR uni0434.end
ENCODING -1
SWIDTH 480 0
DWIDTH 5 0
BBX 6 7 -1 -2
BITMAP
01BADA
0AC0E7
0F73F3
1F67F0
0BEEC0
036E80
03DC20
ENDCHAR
STARTCHAR uni0435.end
ENCODING -1
SWIDTH 366 0
DWIDTH 4 0
BBX 5 5 -1 0
BITMAP
01AA70
09B670
0FA600
2F7200
0BE900
ENDCHAR
STARTCHAR uni0451.end
ENCODING -1
SWIDTH 366 0
DWIDTH 4 0
BBX 6 7 -1 0
BITMAP
00A4D1
001010
01AA70
09B670
0FA600
2F7200
0BE900
ENDCHAR
STARTCHAR uni0436.end
ENCODING -1
SWIDTH 848 0
DWIDTH 8 0
BBX 10 5 -1 0
BITMAP
06CA0F57B7
042F4F5E25
003FBFCA00
257B9B9A00
3BB2D84EA2
ENDCHAR
STARTCHAR uni0437.end
ENCODING -1
SWIDTH 426 0
DWIDTH 4 0
BBX 5 7 0 -2
BITMAP
09EC10
635F30
708D10
09E300
02F700
55F600
4EB100
ENDCHAR
STARTCHAR uni0438.end
ENCODING -1
SWIDTH 459 0
DWIDTH 5 0
BBX 6 5 -1 0
BITMAP
06F1E7
0AC3F4
0D96F1
1F6BD0
0CD7E5
ENDCHAR
STARTCHAR uni0439.end
ENCODING -1
SWIDTH 459 0
DWIDTH 5 0
BBX 6 7 -1 0
BITMAP
007615
005981
06F1E7
0AC3F4
0D96F1
1F6BD0
0CD7E5
ENDCHAR
STARTCHAR uni043A.end
ENCODING -1
SWIDTH 501 0
DWIDTH 5 0
BBX 6 5 -1 0
BITMAP
06F1AB
0ADA21
0DCCC0
1F58C0
4F25E4
ENDCHAR
STARTCHAR uni043B.end
ENCODING -1
SWIDTH 511 0
DWIDTH 5 0
BBX 6 5 -1 0
BITMAP
0007CF
001A8C
0046C9
3882F6
3B90CC
ENDCHAR
STARTCHAR uni043C.end
ENCODING -1
SWIDTH 780 0
DWIDTH 8 0
BBX 9 5 -1 0
BITMAP
0006E21EA0
0009F38F70
0044F5AF40
3871EC6F10
2A80D93E70
ENDCHAR
STARTCHAR uni043D.end
ENCODING -1
SWIDTH 460 0
DWIDTH 5 0
BBX 6 5 -1 0
BITMAP
06F1D7
0AC1F4
0DDAF1
1F67D0
4F35E4
ENDCHAR
STARTCHAR uni043E.end
ENCODING -1
SWIDTH 439 0
DWIDTH 4 0
BBX 5 5 -1 0
BITMAP
01AB80
09D0C0
0F72C0
2F6770
0BEA00
ENDCHAR
STARTCHAR uni043F.end
ENCODING -1
SWIDTH 454 0
DWIDTH 5 0
BBX 6 5 -1 0
BITMAP
06FCE2
0AD3F4
0D95F1
1F68D0
4F25E4
ENDCHAR
STARTCHAR uni0441.end
ENCODING -1
SWIDTH 341 0
DWIDTH 3 0
BBX 5 5 -1 0
BITMAP
01BA60
0AB240
1F6000
3F5200
0BE800
ENDCHAR
STARTCHAR uni0442.end
ENCODING -1
SWIDTH 701 0
DWIDTH 7 0
BBX 8 5 -1 0
BITMAP
06FBE7E8
0AD3F5BB
0D96F1D8
1F69D1F5
4F2CA0DA
ENDCHAR
STARTCHAR uni0443.end
ENCODING -1
SWIDTH 460 0
DWIDTH 5 0
BBX 6 7 -1 -2
BITMAP
06F1E7
0AC3F4
0D96F1
1F6BC0
0CDE90
056F50
06DB00
ENDCHAR
STARTCHAR uni0445.end
ENCODING -1
SWIDTH 500 0
DWIDTH 5 0
BBX 5 6 0 0
BITMAP
0002B0
09E3A0
51DA60
60CC00
15CD00
463E70
ENDCHAR
STARTCHAR uni0447.end
ENCODING -1
SWIDTH 459 0
DWIDTH 5 0
BBX 5 5 0 0
BITMAP
6F1E70
AC3F40
ADCF10
269D00
006E50
ENDCHAR
STARTCHAR uni0448.end
ENCODING -1
SWIDTH 706 0
DWIDTH 7 0
BBX 8 5 -1 0
BITMAP
06F1E77E
0AC3F4BB
0D96F1E8
1F6BD4F5
0CD7E8CB
ENDCHAR
STARTCHAR uni044B.end
ENCODING -1
SWIDTH 608 0
DWIDTH 6 0
BBX 6 5 0 0
BITMAP
6E028E
ABC9AB
D849D8
F586F5
BE90CB
ENDCHAR
STARTCHAR uni0455.end
ENCODING -1
SWIDTH 316 0
DWIDTH 3 0
BBX 5 6 -1 0
BITMAP
002500
00CF00
03AF10
086F20
486F10
1BD700
ENDCHAR
STARTCHAR uni0456.end
ENCODING -1
SWIDTH 209 0
DWIDTH 2 0
BBX 4 7 -1 0
BITMAP
01D4
0062
06F1
0AC0
0D90
1F60
0CC0
ENDCHAR
STARTCHAR uni0458.end
ENCODING -1
SWIDTH 213 0
DWIDTH 2 0
BBX 5 10 -2 -2
BITMAP
000710
001D40
000000
006F00
00AC00
00D800
01F500
17F200
89D000
CE5000
ENDCHAR
STARTCHAR uni044E.end
ENCODING -1
SWIDTH 675 0
DWIDTH 7 0
BBX 8 5 -1 0
BITMAP
06F16BA1
0AD3F393
0DDCD0B2
1F6BB2C0
4F36EC30
ENDCHAR
STARTCHAR uni044F.end
ENCODING -1
SWIDTH 480 0
DWIDTH 5 0
BBX 6 5 -1 0
BITMAP
009ADA
04E0D7
01BAF4
4A96F1
3B82E7
ENDCHAR
STARTCHAR uni0437.init
ENCODING -1
SWIDTH 455 0
DWIDTH 5 0
BBX 5 7 0 -2
BITMAP
2CE600
70CC00
01D700
2DA060
07F610
7AF100
9D7000
ENDCHAR
STARTCHAR uni0445.init
ENCODING -1
SWIDTH 390 0
DWIDTH 4 0
BBX 6 6 -1 0
BITMAP
000580
09C190
05F920
05F600
47E852
787E70
ENDCHAR
STARTCHAR uni0436.loclBGR
ENCODING -1
SWIDTH 882 0
DWIDTH 9 0
BBX 11 7 -1 0
BITMAP
000009C00000
00000C900000
06CA0E67B700
042F4F5E2500
003FBFCA0000
257B9B9A0510
3BB2D84EA400
ENDCHAR
STARTCHAR uni043A.loclBGR
ENCODING -1
SWIDTH 518 0
DWIDTH 5 0
BBX 7 7 -1 0
BITMAP
00C60000
03F30000
06F29300
09ED8000
0DB7F200
1F67F140
4F24EB10
ENDCHAR
STARTCHAR uni044E.loclBGR
ENCODING -1
SWIDTH 675 0
DWIDTH 7 0
BBX 9 7 -1 0
BITMAP
00F7000000
03F4000000
07F16CB000
0AD3F3B750
0DDCD0B200
1F6BB2C000
4F36EC3000
ENDCHAR
STARTCHAR uni0493.loclBSH
ENCODING -1
SWIDTH 398 0
DWIDTH 4 0
BBX 6 5 -1 0
BITMAP
09EFE1
0D7000
2F9700
5F2400
3EC100
ENDCHAR
STARTCHAR uni04AB.loclCHU
ENCODING -1
SWIDTH 384 0
DWIDTH 4 0
BBX 5 7 -1 -2
BITMAP
01AA70
09C150
0F7000
1F6060
0BEB20
007700
005700
ENDCHAR
STARTCHAR uni0453.loclMKD
ENCODING -1
SWIDTH 267 0
DWIDTH 3 0
BBX 5 10 -1 0
BITMAP
000C20
004600
000000
08BA00
000000
06F100
0AC000
0D9000
1F6600
0CD400
ENDCHAR
STARTCHAR uni0433.loclSRB
ENCODING -1
SWIDTH 267 0
DWIDTH 3 0
BBX 4 7 -1 0
BITMAP
08BA
0000
06F1
0AC0
0D90
1F66
0CD4
ENDCHAR
STARTCHAR uni043F.loclSRB
ENCODING -1
SWIDTH 505 0
DWIDTH 5 0
BBX 7 7 -1 0
BITMAP
009BB500
00000000
06F1E700
0AC3F400
0D96F100
1F6BD230
0CD7E900
ENDCHAR
STARTCHAR uni0442.loclSRB
ENCODING -1
SWIDTH 752 0
DWIDTH 8 0
BBX 9 7 -1 0
BITMAP
008BBBB900
0000000000
06F1E77E00
0AC3F4BB00
0D96F1E800
1F6BD4F560
0CD7E8CD30
ENDCHAR
STARTCHAR uni04150437
ENCODING -1
SWIDTH 940 0
DWIDTH 9 0
BBX 10 9 0 -2
BITMAP
01B9900000
09A1900000
07D204DE40
2D91170EA0
BE00612F50
DE1364E806
6EE8008E71
000007CD00
00000BD500
ENDCHAR
STARTCHAR uni04150445
ENCODING -1
SWIDTH 797 0
DWIDTH 8 0
BBX 9 7 0 0
BITMAP
02B9A00000
09A1404900
07E26F1900
5F503F9400
CE001F8000
DD008E9430
6EDA37E700
ENDCHAR
STARTCHAR uni04010437
ENCODING -1
SWIDTH 940 0
DWIDTH 9 0
BBX 10 12 0 -2
BITMAP
0077A40000
0011100000
0000000000
01B9900000
09A1900000
07D204DE40
2D91170EA0
BE00612F50
DE1364E806
6EE8008E71
000007CD00
00000BD500
ENDCHAR
STARTCHAR uni04010445
ENCODING -1
SWIDTH 797 0
DWIDTH 8 0
BBX 9 9 0 0
BITMAP
0077A40000
0011100000
02B9A00000
09A1404900
07E26F1900
5F503F9400
CE001F8000
DD008E9430
6EDA37E700
ENDCHAR
STARTCHAR uni04210437
ENCODING -1
SWIDTH 973 0
DWIDTH 10 0
BBX 10 9 0 -2
BITMAP
02B9A20000
0CB0830000
5F4001BE90
AE000719F0
CD00250BA0
BE2171CC06
3DEA103F84
0000049F30
000007D900
ENDCHAR
STARTCHAR uni04210445
ENCODING -1
SWIDTH 814 0
DWIDTH 8 0
BBX 9 7 0 0
BITMAP
02B9A30000
0CB0412B00
5F403F3900
AF001F9600
CD000DA000
BE106DB150
4DDA44E900
ENDCHAR
STARTCHAR uni04040437
ENCODING -1
SWIDTH 973 0
DWIDTH 10 0
BBX 10 9 0 -2
BITMAP
02A9A20000
0C90830000
5FBA01BE90
AE000719F0
CD00250BA0
BF2171CC06
3DEA103F84
0000049F30
000007D900
ENDCHAR
STARTCHAR uni04040445
ENCODING -1
SWIDTH 814 0
DWIDTH 8 0
BBX 9 7 0 0
BITMAP
02A9A30000
0C90412B00
5FBA3D3900
AE001F9500
CD000DA000
BF106DB150
4DEA44E800
ENDCHAR
STARTCHAR uni04300445
ENCODING -1
SWIDTH 899 0
DWIDTH 9 0
BBX 11 6 -1 0
BITMAP
000000002400
01B9DA6F2A00
0AC0E73F6600
0F72F41F9000
1F67F26E9330
0BE6DD57E800
ENDCHAR
STARTCHAR uni04300447
ENCODING -1
SWIDTH 993 0
DWIDTH 10 0
BBX 12 5 -1 0
BITMAP
01BADA8D1F50
0AC0E7BA4F20
0F72F4CCCE00
1F67F136BB42
0BD7E6007E70
ENDCHAR
STARTCHAR uni04310433
ENCODING -1
SWIDTH 816 0
DWIDTH 8 0
BBX 10 8 -1 0
BITMAP
0001110000
005FFF6000
002D420000
005B82BE60
08D1D91E90
0E71E3BC10
1F5679E033
0AD907EB60
ENDCHAR
STARTCHAR uni04310453
ENCODING -1
SWIDTH 816 0
DWIDTH 8 0
BBX 10 8 -1 0
BITMAP
0001110000
005FFF6770
002D420600
005B82BE60
08D1D91E90
0E71E3BC10
1F5679E033
0AD907EB60
ENDCHAR
STARTCHAR uni04310451
ENCODING -1
SWIDTH 814 0
DWIDTH 8 0
BBX 10 8 -1 0
BITMAP
0002320000
005FFE7885
001C310110
008B907BB0
09D0C5F3B0
1F72CAD710
1F577CA042
0AD907EB40
ENDCHAR
STARTCHAR uni04310436
ENCODING -1
SWIDTH 1261 0
DWIDTH 13 0
BBX 14 8 -1 0
BITMAP
00011100000000
005FFF60000000
001C4200000000
008B85CB0D76A8
09D0D61F4F5E26
1F72D02FBFBC00
1F57766C8C8B05
0AEA1BB3B93EA3
ENDCHAR
STARTCHAR uni04310439
ENCODING -1
SWIDTH 935 0
DWIDTH 9 0
BBX 11 8 -1 0
BITMAP
000111000000
005FFF7C0700
001C42298200
008B82F5AC00
09C0C5F2D900
1F72C8D1F500
1F677BB6F350
0AEA08E7EC10
ENDCHAR
STARTCHAR uni0431045E
ENCODING -1
SWIDTH 916 0
DWIDTH 9 0
BBX 11 10 -1 -2
BITMAP
000111000000
005EBA4A7500
001C30000000
008BA2F5AC00
09C0C5F2D900
1F72B8D1F500
1F676BB6F340
0AE908EDE400
0000017EA000
000002CD3000
ENDCHAR
STARTCHAR uni0431044D
ENCODING -1
SWIDTH 860 0
DWIDTH 9 0
BBX 10 8 -1 0
BITMAP
0001110000
005FFF6000
001C420000
008B72AEB0
09D0D915F2
1F72E25BF1
1F57880B90
0AE90B9A10
ENDCHAR
STARTCHAR uni04310456
ENCODING -1
SWIDTH 697 0
DWIDTH 7 0
BBX 9 7 -1 0
BITMAP
005FFDA900
001C515400
008B82F500
09C0C5F200
1F72C8D000
1F677BB420
0AEA08E700
ENDCHAR
STARTCHAR uni04310457
ENCODING -1
SWIDTH 697 0
DWIDTH 7 0
BBX 9 8 -1 0
BITMAP
0002310000
005FFAD760
001C301000
008B92F500
09C0C5F200
1F72C8D000
1F677BB420
0AE908E700
ENDCHAR
STARTCHAR uni04310458
ENCODING -1
SWIDTH 669 0
DWIDTH 7 0
BBX 8 10 -1 -2
BITMAP
00289453
006EB8B7
000C3000
008BB2F5
09D0C5F1
1F72B9D0
1F576CA5
0AE92F93
0006AF20
0007D900
ENDCHAR
STARTCHAR uni04320433
ENCODING -1
SWIDTH 837 0
DWIDTH 8 0
BBX 10 7 -1 0
BITMAP
003CB00000
00D6900000
06E283AE80
0CACB50CB0
1F72D09D20
1F64A7F124
0AEB15EC70
ENDCHAR
STARTCHAR uni04320453
ENCODING -1
SWIDTH 837 0
DWIDTH 8 0
BBX 10 7 -1 0
BITMAP
003CB005A0
00D6900710
06E283AE80
0CACB50CB0
1F72D09D20
1F64A7F124
0AEB15EC70
ENDCHAR
STARTCHAR uni04320436
ENCODING -1
SWIDTH 1279 0
DWIDTH 13 0
BBX 15 7 -1 0
BITMAP
003CB00000000000
00D6900000000000
06E186BD1B93BA00
0CACB50D5E6D4600
1F72D00EBFBF0000
1F64B63E6F5E0510
0AEB1AB59C1DB500
ENDCHAR
STARTCHAR uni04320437
ENCODING -1
SWIDTH 824 0
DWIDTH 8 0
BBX 10 9 -1 -2
BITMAP
003CB00000
00D6900000
06E186DE30
0CACC41F70
1F72D04F30
1F64A5F516
0AEB10BC71
000006DB00
00001CD400
ENDCHAR
STARTCHAR uni04320445
ENCODING -1
SWIDTH 851 0
DWIDTH 9 0
BBX 10 7 -1 0
BITMAP
003CB00000
00D6900094
06E185C755
0CACC18C90
1F72D07E10
1F64A3AF16
0AEB390CC2
ENDCHAR
STARTCHAR uni04330437
ENCODING -1
SWIDTH 840 0
DWIDTH 8 0
BBX 10 7 -1 -2
BITMAP
04DE32CE50
073F580DA0
04D8522F50
1F7274E706
1DE8008D72
000006BE00
00000BE500
ENDCHAR
STARTCHAR uni04330445
ENCODING -1
SWIDTH 740 0
DWIDTH 7 0
BBX 9 6 -1 0
BITMAP
0000000C10
04DE5F4720
073F5D9800
04D80AD100
1F706BE150
1DEA31DC20
ENDCHAR
STARTCHAR uni04330447
ENCODING -1
SWIDTH 880 0
DWIDTH 9 0
BBX 11 5 -1 0
BITMAP
04DE3AC3F400
073F5D86F100
04D84FBDC000
1F71857DA510
1DD91009E600
ENDCHAR
STARTCHAR uni04530437
ENCODING -1
SWIDTH 840 0
DWIDTH 8 0
BBX 10 9 -1 -2
BITMAP
0005900000
0006100000
04DE32CE50
073F580DA0
04D8522F50
1F7274E706
1DE8008D72
000006BE00
00000BE500
ENDCHAR
STARTCHAR uni04530445
ENCODING -1
SWIDTH 740 0
DWIDTH 7 0
BBX 9 7 -1 0
BITMAP
0007700000
0001000C10
04DE5F4720
073F5D9800
04D80AD100
1F706BE150
1DEA31DC20
ENDCHAR
STARTCHAR uni04530447
ENCODING -1
SWIDTH 880 0
DWIDTH 9 0
BBX 11 7 -1 0
BITMAP
000590000000
000610000000
04DE3AC3F400
073F5D86F100
04D84FBDC000
1F71857DA510
1DD91009E600
ENDCHAR
STARTCHAR uni04340447
ENCODING -1
SWIDTH 1010 0
DWIDTH 10 0
BBX 12 7 -1 -2
BITMAP
01BADA6F1E80
0AC0E79D2F50
0F73F4CDBF20
1F68F2779E24
0BEDD4005E90
017E80000000
03CD20000000
ENDCHAR
STARTCHAR uni04340458
ENCODING -1
SWIDTH 746 0
DWIDTH 7 0
BBX 9 10 -1 -2
BITMAP
0000000720
0000001D40
0000000000
01BADA5F10
0AC0E79D00
0F72F4CA00
1F67F1F650
0BEDD5F720
016E88E000
03DCBE6000
ENDCHAR
STARTCHAR uni04350437
ENCODING -1
SWIDTH 876 0
DWIDTH 9 0
BBX 11 7 -1 -2
BITMAP
01AA81AE9000
09B67718F000
0FB6150BA000
1F6071CC1610
0BEA203F8400
0000048F4000
000007DA0000
ENDCHAR
STARTCHAR uni04350445
ENCODING -1
SWIDTH 762 0
DWIDTH 8 0
BBX 9 6 -1 0
BITMAP
0000000410
01AB8CA760
09C579D810
0FA606F300
1F702AF470
0AEB71CD30
ENDCHAR
STARTCHAR uni04350447
ENCODING -1
SWIDTH 889 0
DWIDTH 9 0
BBX 11 5 -1 0
BITMAP
01AA89D2F500
09C57C96F200
0FA53EEED000
1F61736BB420
0BE91008E600
ENDCHAR
STARTCHAR uni04510437
ENCODING -1
SWIDTH 876 0
DWIDTH 9 0
BBX 11 9 -1 -2
BITMAP
00A4D1000000
001010000000
01AA81AE9000
09B67718F000
0FB6150BA000
1F6071CC1610
0BEA203F8400
0000048F4000
000007DA0000
ENDCHAR
STARTCHAR uni04510445
ENCODING -1
SWIDTH 762 0
DWIDTH 8 0
BBX 9 7 -1 0
BITMAP
00A4D10000
0010100410
01AB8CA760
09C579D810
0FA606F300
1F702AF470
0AEB71CD30
ENDCHAR
STARTCHAR uni04510447
ENCODING -1
SWIDTH 889 0
DWIDTH 9 0
BBX 11 7 -1 0
BITMAP
00A4D1000000
001010000000
01AA89D2F500
09C57C96F200
0FA53EEED000
1F61736BB420
0BE81008E600
ENDCHAR
STARTCHAR uni04360447
ENCODING -1
SWIDTH 1392 0
DWIDTH 14 0
BBX 16 5 -1 0
BITMAP
06CA0F57B79D2F40
042F4F5E25CA5F10
003FBFCA02FACD00
257B9B9A0857CB41
3BB2D84EA3009E70
ENDCHAR
STARTCHAR uni04370437
ENCODING -1
SWIDTH 921 0
DWIDTH 9 0
BBX 10 7 0 -2
BITMAP
0AEC16DD20
635F551F70
708D604E20
09E256F515
01FB10BC50
38F718DA00
4CB11CD300
ENDCHAR
STARTCHAR uni04380447
ENCODING -1
SWIDTH 1010 0
DWIDTH 10 0
BBX 12 5 -1 0
BITMAP
06F1E76F1E80
0AC3F49D2F50
0D96F1CEBF20
1F6BD2669E24
0CD7E8005E90
ENDCHAR
STARTCHAR uni04390447
ENCODING -1
SWIDTH 1010 0
DWIDTH 10 0
BBX 12 7 -1 0
BITMAP
007615000000
005981000000
06F1E76F1E80
0AC3F49D2F50
0D96F1CEBF20
1F6BD2669E24
0CD7E8005E90
ENDCHAR
STARTCHAR uni043A0447
ENCODING -1
SWIDTH 1016 0
DWIDTH 10 0
BBX 12 5 -1 0
BITMAP
06F1AB4F3CA0
0ADA217E1F70
0DCCC0AEBF40
1F58C1668F25
4F25EA003EA1
ENDCHAR
STARTCHAR uni045C0447
ENCODING -1
SWIDTH 1016 0
DWIDTH 10 0
BBX 12 7 -1 0
BITMAP
0002C1000000
000420000000
06F1AB4F3CA0
0ADA217E1F70
0DCCC0AEBF40
1F58C1768F25
4F25EA003EA1
ENDCHAR
STARTCHAR uni043B0447
ENCODING -1
SWIDTH 1061 0
DWIDTH 11 0
BBX 12 5 -1 0
BITMAP
0007CF0D96F1
001A9C1F69D0
0046C95FBE90
3982F6754F76
3B90CD300CD3
ENDCHAR
STARTCHAR uni043C0447
ENCODING -1
SWIDTH 1276 0
DWIDTH 13 0
BBX 15 5 -1 0
BITMAP
000CB07F2BB4F300
000FC1EE0E87E000
003DD7DB2FBEB000
3879E9D8755D9610
3A87F4AE500AE500
ENDCHAR
STARTCHAR uni043D0447
ENCODING -1
SWIDTH 1011 0
DWIDTH 10 0
BBX 12 5 -1 0
BITMAP
06F1D76F1D80
0AC1F49D1F50
0DDAF1CD9F20
1F67D2769E14
4F35E9005E90
ENDCHAR
STARTCHAR uni043E0433
ENCODING -1
SWIDTH 804 0
DWIDTH 8 0
BBX 10 5 -1 0
BITMAP
01AB81AE80
09D2E71CA0
0F71B1AC20
2F677AC032
0BD908EB50
ENDCHAR
STARTCHAR uni043E0453
ENCODING -1
SWIDTH 804 0
DWIDTH 8 0
BBX 10 7 -1 0
BITMAP
00000001C1
0000000430
01AB81AE80
09D2E71CA0
0F71B1AC20
2F677AC032
0BD908EB50
ENDCHAR
STARTCHAR uni043E0436
ENCODING -1
SWIDTH 1271 0
DWIDTH 13 0
BBX 14 5 -1 0
BITMAP
01AA84BC1C84B9
09C2E60E4F6E26
0F71B00FBFBD00
2F67774D7E6D05
0BEA2BB4AA2DB4
ENDCHAR
STARTCHAR uni043E0437
ENCODING -1
SWIDTH 837 0
DWIDTH 8 0
BBX 10 7 -1 -2
BITMAP
01AB83CE40
09D2E70E90
0F72B02F40
2F6774E706
0BEA009D71
000006BD00
00000BE500
ENDCHAR
STARTCHAR uni043E043B
ENCODING -1
SWIDTH 992 0
DWIDTH 10 0
BBX 12 5 -1 0
BITMAP
01AB8003CF50
09D0C00A5F20
0F71B00A7E00
2F677B37AB42
0BEC6AB17E70
ENDCHAR
STARTCHAR uni043E043C
ENCODING -1
SWIDTH 1207 0
DWIDTH 12 0
BBX 14 5 -1 0
BITMAP
01AB8007F12F70
09D0C00AF29F40
0F71B00BF5DF10
2F677B29FC9D24
0BEC6A92F95E90
ENDCHAR
STARTCHAR uni043E0445
ENCODING -1
SWIDTH 850 0
DWIDTH 9 0
BBX 10 6 -1 0
BITMAP
0000000051
01AA81E884
09D2E7CB81
1F71B0AE20
2F66778F26
0BD90C2DC3
ENDCHAR
STARTCHAR uni043E0459
ENCODING -1
SWIDTH 1179 0
DWIDTH 12 0
BBX 13 5 -1 0
BITMAP
01AB8003CF5000
09D0C00A5F8700
0F71B00A7E4F50
2F677B379B3F30
0BEC6AB15ED600
ENDCHAR
STARTCHAR uni043E044D
ENCODING -1
SWIDTH 867 0
DWIDTH 9 0
BBX 10 5 -1 0
BITMAP
01AB819EB0
09D2D714F3
0F72B04BF2
2F67780AB0
0BEA0B8A10
ENDCHAR
STARTCHAR uni043F0447
ENCODING -1
SWIDTH 1010 0
DWIDTH 10 0
BBX 12 5 -1 0
BITMAP
06FCE26F1E80
0AD3F49D2F50
0D95F1CEBF20
1F68D2669E24
4F25E9005E90
ENDCHAR
STARTCHAR uni04400437
ENCODING -1
SWIDTH 890 0
DWIDTH 9 0
BBX 11 8 -1 -2
BITMAP
028100000000
07FAE38EB000
0AC0FB26F200
0E91F409C000
2F67E1AE1420
5FDD501F9500
9E00027F6000
B80005DB1000
ENDCHAR
STARTCHAR uni04410437
ENCODING -1
SWIDTH 876 0
DWIDTH 9 0
BBX 11 7 -1 -2
BITMAP
01AA71AE9000
09C15718F000
0F70150BA000
1F6071CC1610
0BEA203F8400
0000048F4000
000007DA0000
ENDCHAR
STARTCHAR uni04410445
ENCODING -1
SWIDTH 755 0
DWIDTH 8 0
BBX 9 6 -1 0
BITMAP
0000000410
01BA6D8850
0AB24AB810
1F6007F300
2F502BF260
0AEB71DD30
ENDCHAR
STARTCHAR uni04410447
ENCODING -1
SWIDTH 889 0
DWIDTH 9 0
BBX 11 5 -1 0
BITMAP
01AA79D2F500
09C15CA5F200
0F703FCCD000
1F61947BB410
0BE91008E700
ENDCHAR
STARTCHAR uni0441044A
ENCODING -1
SWIDTH 841 0
DWIDTH 8 0
BBX 10 5 -1 0
BITMAP
01AA7AAA00
09C158CBB1
0F700AB2F3
1F607E95E1
0AEA28EC40
ENDCHAR
STARTCHAR uni04420447
ENCODING -1
SWIDTH 1257 0
DWIDTH 13 0
BBX 14 5 -1 0
BITMAP
06FBE7E80E87F0
0AD3F5BB2F5AC0
0D96F1D85FAF90
1F69D1F5755F66
4F2CA0CD300CD3
ENDCHAR
STARTCHAR uni04430447
ENCODING -1
SWIDTH 989 0
DWIDTH 10 0
BBX 12 7 -1 -2
BITMAP
06F1E79D2F50
0AC3F4CA5F20
0D96F1FCDD00
1F7BC456BB42
0CDEB3008E70
038F50000000
06DB00000000
ENDCHAR
STARTCHAR uni04430458
ENCODING -1
SWIDTH 725 0
DWIDTH 7 0
BBX 9 10 -1 -2
BITMAP
0000001700
0000003E20
0000000000
06F1E78D00
0AC3F4CA00
0D96F1F700
1F6BD3F450
0CDEA8F510
037F7CB000
06EACD3000
ENDCHAR
STARTCHAR uni045E0447
ENCODING -1
SWIDTH 989 0
DWIDTH 10 0
BBX 12 10 -1 -2
BITMAP
007615000000
005981000000
000000000000
06F1E79D2F50
0AC3F4CA5F20
0D96F1FCDD00
1F7BC456BB42
0CDEB3008E70
038F50000000
06DB00000000
ENDCHAR
STARTCHAR uni045E0458
ENCODING -1
SWIDTH 725 0
DWIDTH 7 0
BBX 9 10 -1 -2
BITMAP
0076152B10
0059812A10
0000000000
06F1E78D00
0AC3F4CA00
0D96F1F700
1F6BD3F450
0CDEA8F510
037F5BB000
06EACD3000
ENDCHAR
STARTCHAR uni04440437
ENCODING -1
SWIDTH 1148 0
DWIDTH 11 0
BBX 13 9 -1 -2
BITMAP
00004C00000000
00008C00000000
01BADCCA2BE600
09C0E55F70CB00
0F73F27D01E600
2F68E1D93D9060
0BEDEEB107E720
000D70005BF000
002D3000AE6000
ENDCHAR
STARTCHAR uni04450447
ENCODING -1
SWIDTH 1027 0
DWIDTH 10 0
BBX 11 6 0 0
BITMAP
0002B0000000
09E3A3F4BB00
51DA66F1E700
70CB09FAF400
16BC1878F250
463EB103EB10
ENDCHAR
STARTCHAR uni0445044A
ENCODING -1
SWIDTH 1006 0
DWIDTH 10 0
BBX 10 6 0 0
BITMAP
0001500000
09E4C5AD20
61DB539CC4
60CA02F2B9
07BC1CF1E6
563EB4EE80
ENDCHAR
STARTCHAR uni04470447
ENCODING -1
SWIDTH 1010 0
DWIDTH 10 0
BBX 11 5 0 0
BITMAP
6F1E76F1E800
AC3F49D2F500
ADCF1CEBF200
269D2669E240
006E8005E900
ENDCHAR
STARTCHAR uni04480447
ENCODING -1
SWIDTH 1257 0
DWIDTH 13 0
BBX 14 5 -1 0
BITMAP
06F1E77E0E87F0
0AC3F4BB2F5AC0
0D96F1E85FAF90
1F6BD4F5755F66
0CD7E8CD300CD3
ENDCHAR
STARTCHAR uni045F0447
ENCODING -1
SWIDTH 1010 0
DWIDTH 10 0
BBX 12 7 -1 -2
BITMAP
06F1E76F1E80
0AC3F49D2F50
0D96F1CEBF20
1F6BD2669E24
0CEAE8005E90
006B00000000
002A00000000
ENDCHAR
STARTCHAR uni044B0447
ENCODING -1
SWIDTH 1157 0
DWIDTH 12 0
BBX 12 5 0 0
BITMAP
6E028E0E87F0
ABC9AB2F4BC0
D849D85FDF90
F586F5654F66
BE90CD300CC3
ENDCHAR
STARTCHAR uni04550437
ENCODING -1
SWIDTH 840 0
DWIDTH 8 0
BBX 10 8 -1 -2
BITMAP
0002000000
00BF03DE40
02BF180EA0
076F722F50
386F84E706
1BEA108D72
000006BE00
00000BE500
ENDCHAR
STARTCHAR uni04550445
ENCODING -1
SWIDTH 727 0
DWIDTH 7 0
BBX 9 6 -1 0
BITMAP
0036001C00
00CF2F4910
03AF1E9700
085F2BC000
496F8CD150
1BE813EB10
ENDCHAR
STARTCHAR uni04550447
ENCODING -1
SWIDTH 909 0
DWIDTH 9 0
BBX 11 6 -1 0
BITMAP
001300000000
00CF06F1E800
02BF09D2F500
086F2DEBF100
396F9269E240
1BE81005E900
ENDCHAR
STARTCHAR uni04540437
ENCODING -1
SWIDTH 876 0
DWIDTH 9 0
BBX 10 7 -1 -2
BITMAP
01AA81AE90
09C71718F0
0F60150BA0
1F6071CC16
0BEA203F84
0000048F40
000007DA00
ENDCHAR
STARTCHAR uni04540445
ENCODING -1
SWIDTH 755 0
DWIDTH 8 0
BBX 9 6 -1 0
BITMAP
0000000410
01BA6D8750
0AC24AB710
1FB608E400
2F502AF250
0AEB71DD30
ENDCHAR
STARTCHAR uni04540447
ENCODING -1
SWIDTH 889 0
DWIDTH 9 0
BBX 11 5 -1 0
BITMAP
01AA79D2F500
09D15CA5F200
0FC63FBBD000
1F61A57CB410
0BEA1008E700
ENDCHAR
STARTCHAR uni044D0437
ENCODING -1
SWIDTH 837 0
DWIDTH 8 0
BBX 10 7 -1 -2
BITMAP
05CE86DE40
008CF70E90
010CA02F41
582F54E706
2BB7009D71
000006CD00
00000BE500
ENDCHAR
STARTCHAR uni04560447
ENCODING -1
SWIDTH 763 0
DWIDTH 8 0
BBX 9 7 -1 0
BITMAP
01D4000000
0062000000
06F1D96F10
0AC1F69D00
0D94FBEA00
1F6754F760
0CD300CD40
ENDCHAR
STARTCHAR uni04570447
ENCODING -1
SWIDTH 763 0
DWIDTH 8 0
BBX 9 7 -1 0
BITMAP
0A4D100000
0101000000
06F1D96F10
0AC1F69D00
0D94FBEA00
1F6754F760
0CD300CD40
ENDCHAR
STARTCHAR uni04570457
ENCODING -1
SWIDTH 543 0
DWIDTH 5 0
BBX 7 7 -1 0
BITMAP
0A7BB7A0
01011010
06F1BA00
0AC0E700
0D93F400
1F68F250
0CD7EB10
ENDCHAR
STARTCHAR uni04580447
ENCODING -1
SWIDTH 743 0
DWIDTH 7 0
BBX 10 10 -2 -2
BITMAP
0007100000
001E300000
0000000000
006F1F69D0
00AC4F3CA0
00D97FAF60
02F6666F46
06F6101DC2
9CD0000000
AE50000000
ENDCHAR
STARTCHAR uni04580458
ENCODING -1
SWIDTH 480 0
DWIDTH 5 0
BBX 8 10 -2 -2
BITMAP
00071440
001E3990
00000000
006F1F60
00AC4F30
00D97E00
01F5BB61
05F7EA30
8CD3F400
BEAEA000
ENDCHAR
STARTCHAR uni045B0447
ENCODING -1
SWIDTH 990 0
DWIDTH 10 0
BBX 12 10 -1 -2
BITMAP
001100000000
01F600000000
08F930000000
07FCC0AC3F40
0AC5F2D87F10
0D87E1FEED00
1F5AC445CA51
4F6E92008E60
05AF40000000
05DA00000000
ENDCHAR
STARTCHAR uni045B0458
ENCODING -1
SWIDTH 722 0
DWIDTH 7 0
BBX 9 10 -1 -2
BITMAP
0043001700
01F6003E10
08F9300000
07FCC09D00
0AC5F2C900
0D87E1F610
1F5AC4F440
4F5E97E200
059F5CA000
05DBDD3000
ENDCHAR
STARTCHAR uni044E0433
ENCODING -1
SWIDTH 1050 0
DWIDTH 11 0
BBX 12 5 -1 0
BITMAP
06F16BA17DC1
0AD3F3C827F1
0DDCD0B17E50
1F6BB2B5F314
4F36EC33ED80
ENDCHAR
STARTCHAR uni044E0453
ENCODING -1
SWIDTH 1050 0
DWIDTH 11 0
BBX 12 7 -1 0
BITMAP
0000000000A4
000000000150
06F16BA17DC1
0AD3F3C827F1
0DDCD0B17E50
1F6BB2B5F314
4F36EC33ED80
ENDCHAR
STARTCHAR uni044E0436
ENCODING -1
SWIDTH 1507 0
DWIDTH 15 0
BBX 17 5 -1 0
BITMAP
06F16AA29D47E1AB10
0AD3F2C909AAB97410
0DDCC0B10ACECE4000
1F6BB2B71D5F5F3230
4F36EC39A84F1AD700
ENDCHAR
STARTCHAR uni044E0437
ENCODING -1
SWIDTH 1073 0
DWIDTH 11 0
BBX 12 7 -1 -2
BITMAP
06E1ACB4BE90
0ADCF3BB18F0
0D7BD0D10BA1
1F4BB3C1CC06
4F24EC303F84
000000048F40
00000007DA00
ENDCHAR
STARTCHAR uni044E043B
ENCODING -1
SWIDTH 1228 0
DWIDTH 12 0
BBX 14 5 -1 0
BITMAP
06F16BA100AEB0
0AD3F293056D70
0DDCC0B1093F40
1F6BB2C74A4F25
4F36ED88A52EC1
ENDCHAR
STARTCHAR uni044E043C
ENCODING -1
SWIDTH 1443 0
DWIDTH 14 0
BBX 16 5 -1 0
BITMAP
06F16BA101F70BD0
0AD3F29305F74FA0
0DDCC0B108E8AF60
1F6BB2C648CC9F45
4F36ED8895BE2DD2
ENDCHAR
STARTCHAR uni044E0445
ENCODING -1
SWIDTH 1088 0
DWIDTH 11 0
BBX 13 6 -1 0
BITMAP
00000000003400
06F16BA1AD3900
0AD3F2C88F5500
0DDCD0B24F8000
1F6BB1B28E7410
4F36EB3868E700
ENDCHAR
STARTCHAR uni044E0459
ENCODING -1
SWIDTH 1415 0
DWIDTH 14 0
BBX 15 5 -1 0
BITMAP
06F16BA100AEB000
0AD3F393056DA620
0DDCD0B1093F9CA0
1F6BB2C74A4F2C90
4F36ED98A51DEA10
ENDCHAR
STARTCHAR uni044E044D
ENCODING -1
SWIDTH 1103 0
DWIDTH 11 0
BBX 12 5 -1 0
BITMAP
06F16BA16BE4
0AD3F3C820D9
0DDCD0B119F7
1F6BB2B534E2
4F36EC36AB40
ENDCHAR
STARTCHAR uni044F0447
ENCODING -1
SWIDTH 1030 0
DWIDTH 10 0
BBX 12 5 -1 0
BITMAP
009ADA3F4BB0
04E0D76F1E80
01B9F49FCF50
4A96F2667F36
3B82EB102EB1
ENDCHAR
STARTCHAR uni04300445.liga
ENCODING -1
SWIDTH 884 0
DWIDTH 9 0
BBX 10 6 -1 0
BITMAP
0000000024
01B9DA6F2A
0AC0E73F66
0F72F41F90
1F67F26E90
0BE6DD57E3
ENDCHAR
STARTCHAR uni04300447.liga
ENCODING -1
SWIDTH 947 0
DWIDTH 9 0
BBX 11 5 -1 0
BITMAP
01BADA8D1F50
0AC0E7BA4F20
0F72F4CCCE00
1F67F136BB00
0BD7E6007E30
ENDCHAR
STARTCHAR uni04310451.liga
ENCODING -1
SWIDTH 746 0
DWIDTH 7 0
BBX 10 8 -1 0
BITMAP
0002320000
005FFE7885
001C310110
008B907BB0
09C0C5F3B0
1F72CAD710
1F577CB020
0AE906EC10
ENDCHAR
STARTCHAR uni04310436.liga
ENCODING -1
SWIDTH 1258 0
DWIDTH 13 0
BBX 14 8 -1 0
BITMAP
00011100000000
005FFF60000000
001C4200000000
008B85CB0D75A8
09D0D61F4F5E26
1F72D02FBFBC00
1F57766C8C7B00
0AEA1BB3B93DA3
ENDCHAR
STARTCHAR uni04310439.liga
ENCODING -1
SWIDTH 901 0
DWIDTH 9 0
BBX 10 8 -1 0
BITMAP
0001110000
005FFF7C07
001C422982
008B82F5AC
09C0C5F2D9
1F72C8D1F5
1F677BB6F3
0AEA08E7D9
ENDCHAR
STARTCHAR uni0431045E.liga
ENCODING -1
SWIDTH 890 0
DWIDTH 9 0
BBX 10 10 -1 -2
BITMAP
0001110000
005EBA4A75
001C300000
008BA2F5AC
09C0C5F2D9
1F72B8D1F5
1F676BB6F2
0AE908EDD0
0000017DA0
000002DD20
ENDCHAR
STARTCHAR uni04310456.liga
ENCODING -1
SWIDTH 639 0
DWIDTH 6 0
BBX 8 7 -1 0
BITMAP
005FFDA9
001C5154
008B82F5
09C0C5F2
1F72C8D0
1F677BB0
0AEA08E3
ENDCHAR
STARTCHAR uni04310457.liga
ENCODING -1
SWIDTH 638 0
DWIDTH 6 0
BBX 9 8 -1 0
BITMAP
0002310000
005FFAD760
001C301000
008B92F400
09C0C5F100
1F72C8D000
1F677BB000
0AE908E300
ENDCHAR
STARTCHAR uni04310458.liga
ENCODING -1
SWIDTH 638 0
DWIDTH 6 0
BBX 8 10 -1 -2
BITMAP
00289453
006EB8B7
000C3000
008BB2F5
09D0C5F1
1F72B9D0
1F576CA0
0AE94F60
00078F20
0008E900
ENDCHAR
STARTCHAR uni04320436.liga
ENCODING -1
SWIDTH 1275 0
DWIDTH 13 0
BBX 14 7 -1 0
BITMAP
003CB000000000
00D69000000000
06E186BD1B93BA
0CACB50D5E6D46
1F72D00EBFBF00
1F64B63E6F5E00
0AEB1AB59C1DB5
ENDCHAR
STARTCHAR uni04320437.liga
ENCODING -1
SWIDTH 752 0
DWIDTH 8 0
BBX 9 9 -1 -2
BITMAP
003CB00000
00D6900000
06E186DE30
0CACC41F70
1F72D04F30
1F64A5F600
0AEB10BB00
000016CA00
00002CD300
ENDCHAR
STARTCHAR uni04320445.liga
ENCODING -1
SWIDTH 842 0
DWIDTH 8 0
BBX 10 7 -1 0
BITMAP
003CB00000
00D6900094
06E185C755
0CACC18C90
1F72D07F10
1F64A3AF20
0AEB391DB0
ENDCHAR
STARTCHAR uni04330437.liga
ENCODING -1
SWIDTH 768 0
DWIDTH 8 0
BBX 9 7 -1 -2
BITMAP
04DE32CE50
073F580DA0
04D8522F50
1F7274E800
1DE8009D00
000007BD00
00000BE500
ENDCHAR
STARTCHAR uni04330445.liga
ENCODING -1
SWIDTH 725 0
DWIDTH 7 0
BBX 9 6 -1 0
BITMAP
0000000C20
04DE5F4720
073F5D9800
04D80AD100
1F706BE000
1DEA32E800
ENDCHAR
STARTCHAR uni04330447.liga
ENCODING -1
SWIDTH 834 0
DWIDTH 8 0
BBX 10 5 -1 0
BITMAP
04DE3AC3F3
073F5D86F0
04D84FBDC0
1F71857D90
1DD9100AD2
ENDCHAR
STARTCHAR uni04530437.liga
ENCODING -1
SWIDTH 768 0
DWIDTH 8 0
BBX 9 9 -1 -2
BITMAP
0005900000
0006100000
04DE32CE50
073F580DA0
04D8522F50
1F7274E800
1DE8009D00
000007BD00
00000BE500
ENDCHAR
STARTCHAR uni04530445.liga
ENCODING -1
SWIDTH 725 0
DWIDTH 7 0
BBX 9 7 -1 0
BITMAP
0007700000
0001000C20
04DE5F4720
073F5D9800
04D80AD100
1F706BE000
1DEA32E800
ENDCHAR
STARTCHAR uni04530447.liga
ENCODING -1
SWIDTH 834 0
DWIDTH 8 0
BBX 10 7 -1 0
BITMAP
0005900000
0006100000
04DE3AC3F3
073F5D86F0
04D84FBDC0
1F71857D90
1DD9100AD2
ENDCHAR
STARTCHAR uni04340447.liga
ENCODING -1
SWIDTH 965 0
DWIDTH 10 0
BBX 11 7 -1 -2
BITMAP
01BADA6F1E80
0AC0E79D2F50
0F73F4CDBF20
1F68F2779E00
0BEDD4005E50
017E80000000
03CD20000000
ENDCHAR
STARTCHAR uni04340458.liga
ENCODING -1
SWIDTH 715 0
DWIDTH 7 0
BBX 9 10 -1 -2
BITMAP
0000000720
0000001D40
0000000000
01BADA5F10
0AC0E79D00
0F72F4C900
1F67F1F600
0BEDD5F200
016E88E000
03DCBE6000
ENDCHAR
STARTCHAR uni04350437.liga
ENCODING -1
SWIDTH 804 0
DWIDTH 8 0
BBX 9 7 -1 -2
BITMAP
01AA81AE90
09B67718F0
0FB6150BA0
1F6071CD10
0BEA203F40
0000057F30
000007E900
ENDCHAR
STARTCHAR uni04350445.liga
ENCODING -1
SWIDTH 747 0
DWIDTH 7 0
BBX 9 6 -1 0
BITMAP
0000000410
01AB8CA760
09C579D810
0FA606F300
1F702AF400
0AEB70CC00
ENDCHAR
STARTCHAR uni04350447.liga
ENCODING -1
SWIDTH 844 0
DWIDTH 8 0
BBX 10 5 -1 0
BITMAP
01AA89D2F5
09C57C96F2
0FA53EEEE0
1F61736BB0
0BE91007E3
ENDCHAR
STARTCHAR uni04510437.liga
ENCODING -1
SWIDTH 804 0
DWIDTH 8 0
BBX 9 9 -1 -2
BITMAP
00A4D10000
0010100000
01AA81AE90
09B67718F0
0FB6150BA0
1F6071CD10
0BEA203F40
0000057F30
000007E900
ENDCHAR
STARTCHAR uni04510445.liga
ENCODING -1
SWIDTH 747 0
DWIDTH 7 0
BBX 9 7 -1 0
BITMAP
00A4D10000
0010100410
01AB8CA760
09C579D810
0FA606F300
1F702AF400
0AEB70CC00
ENDCHAR
STARTCHAR uni04510447.liga
ENCODING -1
SWIDTH 844 0
DWIDTH 8 0
BBX 10 7 -1 0
BITMAP
00A4D10000
0010100000
01AA89D2F5
09C57C96F2
0FA53EEEE0
1F61736BB0
0BE91007E3
ENDCHAR
STARTCHAR uni04360447.liga
ENCODING -1
SWIDTH 1341 0
DWIDTH 13 0
BBX 15 5 -1 0
BITMAP
06CA0F57B79D2F40
042F4F5E25CA5F10
003FBFCA02FACD00
257B9B9A0857CB00
3BB2D84EA3009E30
ENDCHAR
STARTCHAR uni04370437.liga
ENCODING -1
SWIDTH 849 0
DWIDTH 8 0
BBX 9 7 0 -2
BITMAP
0AEC16DD20
635F551F70
708D604E20
09E256F500
01FB11CA00
38F727CA00
4DB12DD200
ENDCHAR
STARTCHAR uni04380447.liga
ENCODING -1
SWIDTH 964 0
DWIDTH 10 0
BBX 11 5 -1 0
BITMAP
06F1E76F1E80
0AC3F49D2F50
0D96F1CEBF20
1F6BD2669E00
0CD7E8005E50
ENDCHAR
STARTCHAR uni04390447.liga
ENCODING -1
SWIDTH 964 0
DWIDTH 10 0
BBX 11 7 -1 0
BITMAP
007615000000
005981000000
06F1E76F1E80
0AC3F49D2F50
0D96F1CEBF20
1F6BD2669E00
0CD7E8005E50
ENDCHAR
STARTCHAR uni043A0447.liga
ENCODING -1
SWIDTH 978 0
DWIDTH 10 0
BBX 11 5 -1 0
BITMAP
06F1AB4F3CA0
0ADA217E1F70
0DCCC0AEBF40
1F58C1667F10
4F25EA003E70
ENDCHAR
STARTCHAR uni045C0447.liga
ENCODING -1
SWIDTH 978 0
DWIDTH 10 0
BBX 11 7 -1 0
BITMAP
0002C1000000
000420000000
06F1AB4F3CA0
0ADA217E1F70
0DCCC0AEBF40
1F58C1767F10
4F25EA003E70
ENDCHAR
STARTCHAR uni043B0447.liga
ENCODING -1
SWIDTH 1015 0
DWIDTH 10 0
BBX 12 5 -1 0
BITMAP
0007CF0D96F1
001A9C1F69C0
0046C95FBE90
3982F6754F60
3B90CD300CC0
ENDCHAR
STARTCHAR uni043C0447.liga
ENCODING -1
SWIDTH 1231 0
DWIDTH 12 0
BBX 14 5 -1 0
BITMAP
000CB07F2BB4F3
000FC1EE0E87F0
003DD7DB2FBEC0
3879E9D8755D90
3A87F4AE500AD2
ENDCHAR
STARTCHAR uni043D0447.liga
ENCODING -1
SWIDTH 965 0
DWIDTH 10 0
BBX 11 5 -1 0
BITMAP
06F1D76F1D80
0AC1F49D1F50
0DDAF1CD9F20
1F67D2769E00
4F35E9005E50
ENDCHAR
STARTCHAR uni043E0436.liga
ENCODING -1
SWIDTH 1268 0
DWIDTH 13 0
BBX 14 5 -1 0
BITMAP
01AA84BC1C84BA
09C2E60E4F6E36
0F71B00FBFBD00
2F67774D7E6D00
0BEA2BB4AA2DB4
ENDCHAR
STARTCHAR uni043E0437.liga
ENCODING -1
SWIDTH 765 0
DWIDTH 8 0
BBX 9 7 -1 -2
BITMAP
01AB83CE40
09D2E70E90
0F72B02F40
2F6774E800
0BEA009D00
000007BC00
00001CE400
ENDCHAR
STARTCHAR uni043E043B.liga
ENCODING -1
SWIDTH 945 0
DWIDTH 9 0
BBX 11 5 -1 0
BITMAP
01AB8003CF50
09D0C00A5F20
0F71B00A7E00
2F677B379B00
0BEC6AB17E30
ENDCHAR
STARTCHAR uni043E043C.liga
ENCODING -1
SWIDTH 1161 0
DWIDTH 12 0
BBX 13 5 -1 0
BITMAP
01AB8007F12F80
09D0C00AF29F40
0F71B00BF5DF10
2F677B29FC9D00
0BEC6A92F95E50
ENDCHAR
STARTCHAR uni043E0445.liga
ENCODING -1
SWIDTH 835 0
DWIDTH 8 0
BBX 10 6 -1 0
BITMAP
0000000051
01AA81E884
09D2E7BB91
1F71B0AF20
2F66779F20
0BD90C2DA0
ENDCHAR
STARTCHAR uni043F0447.liga
ENCODING -1
SWIDTH 965 0
DWIDTH 10 0
BBX 11 5 -1 0
BITMAP
06FCE26F1E80
0AD3F49D2F50
0D95F1CEBF20
1F68D2669E00
4F25E9005E50
ENDCHAR
STARTCHAR uni04400437.liga
ENCODING -1
SWIDTH 818 0
DWIDTH 8 0
BBX 10 8 -1 -2
BITMAP
0281000000
07FAE38EB0
0AC0FB26F2
0E91F409C0
2F67E1AE20
5FDD501F60
9E00046F50
B80006DB00
ENDCHAR
STARTCHAR uni04410437.liga
ENCODING -1
SWIDTH 804 0
DWIDTH 8 0
BBX 9 7 -1 -2
BITMAP
01AA71AE90
09C15718F0
0F70150BA0
1F6071CD10
0BEA203F40
0000057F30
000007E900
ENDCHAR
STARTCHAR uni04410445.liga
ENCODING -1
SWIDTH 740 0
DWIDTH 7 0
BBX 9 6 -1 0
BITMAP
0000000410
01BA6D8850
0AB24AB810
1F6007F300
2F502AF200
0AEB71DB00
ENDCHAR
STARTCHAR uni04410447.liga
ENCODING -1
SWIDTH 843 0
DWIDTH 8 0
BBX 10 5 -1 0
BITMAP
01AA79D2F5
09C15CA5F2
0F703FCCD0
1F61947BB0
0BE91008E3
ENDCHAR
STARTCHAR uni04420447.liga
ENCODING -1
SWIDTH 1211 0
DWIDTH 12 0
BBX 13 5 -1 0
BITMAP
06FBE7E80E87F0
0AD3F5BB2F5AC0
0D96F1D85FAF90
1F69D1F5755F60
4F2CA0CD300DB0
ENDCHAR
STARTCHAR uni04430447.liga
ENCODING -1
SWIDTH 943 0
DWIDTH 9 0
BBX 11 7 -1 -2
BITMAP
06F1E79D2F50
0AC3F4CA5F20
0D96F1FCDD00
1F7BC456BB00
0CDEB3008E30
038F50000000
06DB00000000
ENDCHAR
STARTCHAR uni04430458.liga
ENCODING -1
SWIDTH 694 0
DWIDTH 7 0
BBX 9 10 -1 -2
BITMAP
0000001700
0000003E20
0000000000
06F1E78D00
0AC3F4CA00
0D96F1F600
1F6BD3F300
0CDEA8E000
037F7CB000
06EACD3000
ENDCHAR
STARTCHAR uni045E0447.liga
ENCODING -1
SWIDTH 943 0
DWIDTH 9 0
BBX 11 10 -1 -2
BITMAP
007615000000
005981000000
000000000000
06F1E79D2F50
0AC3F4CA5F20
0D96F1FCDD00
1F7BC456BB00
0CDEB3008E30
038F50000000
06DB00000000
ENDCHAR
STARTCHAR uni045E0458.liga
ENCODING -1
SWIDTH 694 0
DWIDTH 7 0
BBX 9 10 -1 -2
BITMAP
0076152B10
0059812A10
0000000000
06F1E78D00
0AC3F4CA00
0D96F1F600
1F6BD3F300
0CDEA8E000
037F5BB000
06EACD3000
ENDCHAR
STARTCHAR uni04440437.liga
ENCODING -1
SWIDTH 1076 0
DWIDTH 11 0
BBX 12 9 -1 -2
BITMAP
00004C000000
00008C000000
01BADCCA2BE6
09C0E55F70CB
0F73F27D01E6
2F68E1D93D90
0BEDEEB107F0
000D70006AE0
002D3000BE50
ENDCHAR
STARTCHAR uni04450447.liga
ENCODING -1
SWIDTH 981 0
DWIDTH 10 0
BBX 10 6 0 0
BITMAP
0002B00000
09E3A3F4BB
51DA66F1E7
70CB09FAF4
16BC1878F2
463EB103E7
ENDCHAR
STARTCHAR uni04470447.liga
ENCODING -1
SWIDTH 964 0
DWIDTH 10 0
BBX 10 5 0 0
BITMAP
6F1E76F1E8
AC3F49D2F5
ADCF1CEBF2
269D2669E0
006E8005E5
ENDCHAR
STARTCHAR uni04480447.liga
ENCODING -1
SWIDTH 1211 0
DWIDTH 12 0
BBX 13 5 -1 0
BITMAP
06F1E77E0E87F0
0AC3F4BB2F5AC0
0D96F1E85FAF80
1F6BD4F5755F60
0CD7E8CD300DB0
ENDCHAR
STARTCHAR uni045F0447.liga
ENCODING -1
SWIDTH 964 0
DWIDTH 10 0
BBX 11 7 -1 -2
BITMAP
06F1E76F1E80
0AC3F49D2F50
0D96F1CEBF20
1F6BD2669E00
0CEAE8005E50
006B00000000
002A00000000
ENDCHAR
STARTCHAR uni044B0447.liga
ENCODING -1
SWIDTH 1112 0
DWIDTH 11 0
BBX 12 5 0 0
BITMAP
6E028E0E87F1
ABC9AB2F4BC0
D849D85FDF90
F586F5654F60
BE90CD300CB0
ENDCHAR
STARTCHAR uni04550437.liga
ENCODING -1
SWIDTH 768 0
DWIDTH 8 0
BBX 9 8 -1 -2
BITMAP
0002000000
00BF03DE40
02BF180EA0
076F722F50
386F84E800
1BEA108E00
000007AD00
00000BE500
ENDCHAR
STARTCHAR uni04550445.liga
ENCODING -1
SWIDTH 712 0
DWIDTH 7 0
BBX 9 6 -1 0
BITMAP
0036001C00
00CF2F4910
03AF1EA700
085F2BC000
496F8CD000
1BE813E700
ENDCHAR
STARTCHAR uni04550447.liga
ENCODING -1
SWIDTH 864 0
DWIDTH 9 0
BBX 10 6 -1 0
BITMAP
0013000000
00CF06F1E8
02BF09D2F5
086F2DEBF2
396F9269E0
1BE81005E5
ENDCHAR
STARTCHAR uni04540437.liga
ENCODING -1
SWIDTH 804 0
DWIDTH 8 0
BBX 9 7 -1 -2
BITMAP
01AA81AE90
09C71718F0
0F60150BA0
1F6071CD10
0BEA203F40
0000057F30
000007E900
ENDCHAR
STARTCHAR uni04540445.liga
ENCODING -1
SWIDTH 740 0
DWIDTH 7 0
BBX 9 6 -1 0
BITMAP
0000000410
01BA6D8750
0AC24AB710
1FB608E400
2F502AF200
0AEB71DB00
ENDCHAR
STARTCHAR uni04540447.liga
ENCODING -1
SWIDTH 844 0
DWIDTH 8 0
BBX 10 5 -1 0
BITMAP
01AA79D2F5
09D15CA5F2
0FC63FBBE0
1F61A57CB0
0BEA1008E3
ENDCHAR
STARTCHAR uni044D0437.liga
ENCODING -1
SWIDTH 765 0
DWIDTH 8 0
BBX 9 7 -1 -2
BITMAP
05CE86DE40
008CF70E90
010CA02F40
582F54E800
2BB7009D00
000007BC00
00000CE400
ENDCHAR
STARTCHAR uni04560447.liga
ENCODING -1
SWIDTH 717 0
DWIDTH 7 0
BBX 9 7 -1 0
BITMAP
01D4000000
0062000000
06F1D96F10
0AC1F69D00
0D94FBEA00
1F6754F700
0CD300CC00
ENDCHAR
STARTCHAR uni04570447.liga
ENCODING -1
SWIDTH 718 0
DWIDTH 7 0
BBX 9 7 -1 0
BITMAP
0A4D100000
0101000000
06F1D96F10
0AC1F69D00
0D94FBEA00
1F6754F700
0CD300CC10
ENDCHAR
STARTCHAR uni04570457.liga
ENCODING -1
SWIDTH 476 0
DWIDTH 5 0
BBX 7 7 -1 0
BITMAP
0A7BB7A0
01011010
06F1BA00
0AC0E700
0D93F400
1F68F100
0CD7E700
ENDCHAR
STARTCHAR uni04580447.liga
ENCODING -1
SWIDTH 697 0
DWIDTH 7 0
BBX 9 10 -2 -2
BITMAP
0007100000
001E300000
0000000000
006F1F69D0
00AC4F3CA0
00D97FAF70
02F6666F40
06F6101DA0
9CD0000000
AE50000000
ENDCHAR
STARTCHAR uni04580458.liga
ENCODING -1
SWIDTH 449 0
DWIDTH 4 0
BBX 7 10 -2 -2
BITMAP
00071440
001E3990
00000000
006F1F60
00AC4F30
00D97E00
01F5BB00
05F7E800
8CD3F400
BEAEA000
ENDCHAR
STARTCHAR uni045B0447.liga
ENCODING -1
SWIDTH 937 0
DWIDTH 9 0
BBX 11 10 -1 -2
BITMAP
001100000000
01F600000000
08F930000000
07FCC0AC3F40
0AC5F2D87F10
0D87E1FEED00
1F5AC445CA00
4F6E92009D20
05AF40000000
05DA00000000
ENDCHAR
STARTCHAR uni045B0458.liga
ENCODING -1
SWIDTH 691 0
DWIDTH 7 0
BBX 9 10 -1 -2
BITMAP
0043001700
01F6003E10
08F9300000
07FCC09D00
0AC5F2C900
0D87E1F600
1F5AC4F200
4F5E97E000
059F5CA000
05DBDD3000
ENDCHAR
STARTCHAR uni044E0436.liga
ENCODING -1
SWIDTH 1503 0
DWIDTH 15 0
BBX 17 5 -1 0
BITMAP
06F16AA29D47E1AB10
0AD3F2C909AAB97410
0DDCC0B10ACECE4000
1F6BB2B71D5F5F3000
4F36EC39A84F1AD700
ENDCHAR
STARTCHAR uni044E0437.liga
ENCODING -1
SWIDTH 1001 0
DWIDTH 10 0
BBX 11 7 -1 -2
BITMAP
06E1ACB4BE90
0ADCF3BB18F0
0D7BD0D10BA0
1F4BB3C1CD10
4F24EC304F30
000000057F30
00000008E900
ENDCHAR
STARTCHAR uni044E043B.liga
ENCODING -1
SWIDTH 1181 0
DWIDTH 12 0
BBX 13 5 -1 0
BITMAP
06F16BA100AEB0
0AD3F293056D70
0DDCC0B1093F40
1F6BB2C74A4F20
4F36ED88A52E80
ENDCHAR
STARTCHAR uni044E043C.liga
ENCODING -1
SWIDTH 1396 0
DWIDTH 14 0
BBX 15 5 -1 0
BITMAP
06F16BA101F70BD0
0AD3F29305F74FA0
0DDCC0B108E8AE60
1F6BB2C648CC9F40
4F36ED8895BE2D90
ENDCHAR
STARTCHAR uni044E0445.liga
ENCODING -1
SWIDTH 1072 0
DWIDTH 11 0
BBX 12 6 -1 0
BITMAP
000000000034
06F16BA1AD39
0AD3F2C88F55
0DDCD0B24F80
1F6BB1B28E70
4F36EB3868D2
ENDCHAR
STARTCHAR uni044F0447.liga
ENCODING -1
SWIDTH 984 0
DWIDTH 10 0
BBX 11 5 -1 0
BITMAP
009ADA3F4BB0
04E0D76F1E80
01B9F49FCF50
4A96F2667F20
3B82EB102E80
ENDCHAR
STARTCHAR brevecombcy
ENCODING -1
SWIDTH 0 0
DWIDTH 0 0
BBX 4 2 -3 5
BITMAP
9324
7860
ENDCHAR
STARTCHAR brevecombcy.case
ENCODING -1
SWIDTH 0 0
DWIDTH 0 0
BBX 4 2 -3 8
BITMAP
3906
2982
ENDCHAR
ENDFONT
